%TF.GenerationSoftware,KiCad,Pcbnew,(6.0.7)*%
%TF.CreationDate,2022-09-06T00:26:26+01:00*%
%TF.ProjectId,Cortinas Eletricas,436f7274-696e-4617-9320-456c65747269,rev?*%
%TF.SameCoordinates,Original*%
%TF.FileFunction,Soldermask,Top*%
%TF.FilePolarity,Negative*%
%FSLAX46Y46*%
G04 Gerber Fmt 4.6, Leading zero omitted, Abs format (unit mm)*
G04 Created by KiCad (PCBNEW (6.0.7)) date 2022-09-06 00:26:26*
%MOMM*%
%LPD*%
G01*
G04 APERTURE LIST*
%ADD10C,1.400000*%
%ADD11O,1.400000X1.400000*%
%ADD12C,3.000000*%
%ADD13R,1.600000X1.600000*%
%ADD14C,1.600000*%
%ADD15R,2.400000X1.600000*%
%ADD16O,2.400000X1.600000*%
%ADD17R,3.000000X3.000000*%
%ADD18C,2.600000*%
%ADD19R,2.600000X2.600000*%
%ADD20C,1.650000*%
%ADD21R,1.650000X1.650000*%
%ADD22C,1.440000*%
%ADD23C,1.710000*%
G04 APERTURE END LIST*
D10*
%TO.C,R3*%
X97580000Y-114050000D03*
D11*
X92500000Y-114050000D03*
%TD*%
D12*
%TO.C,REF\u002A\u002A*%
X181420000Y-68480000D03*
%TD*%
%TO.C,REF\u002A\u002A*%
X180850000Y-133850000D03*
%TD*%
%TO.C,REF\u002A\u002A*%
X84960000Y-134160000D03*
%TD*%
%TO.C,REF\u002A\u002A*%
X85370000Y-69420000D03*
%TD*%
D13*
%TO.C,C1*%
X142100000Y-134452651D03*
D14*
X142100000Y-131952651D03*
%TD*%
D15*
%TO.C,U1*%
X123345000Y-134125000D03*
D16*
X123345000Y-131585000D03*
X123345000Y-129045000D03*
X123345000Y-126505000D03*
X123345000Y-123965000D03*
X123345000Y-121425000D03*
X123345000Y-118885000D03*
X113185000Y-118885000D03*
X113185000Y-121425000D03*
X113185000Y-123965000D03*
X113185000Y-126505000D03*
X113185000Y-129045000D03*
X113185000Y-131585000D03*
X113185000Y-134125000D03*
%TD*%
D12*
%TO.C,K6*%
X114860000Y-106840000D03*
D17*
X107360000Y-106840000D03*
D12*
X114860000Y-81840000D03*
X114860000Y-91840000D03*
X114860000Y-86840000D03*
X107360000Y-81840000D03*
X107360000Y-91840000D03*
X107360000Y-86840000D03*
%TD*%
%TO.C,K5*%
X94100000Y-86850000D03*
X94100000Y-91850000D03*
X94100000Y-81850000D03*
X101600000Y-86850000D03*
X101600000Y-91850000D03*
X101600000Y-81850000D03*
D17*
X94100000Y-106850000D03*
D12*
X101600000Y-106850000D03*
%TD*%
%TO.C,K4*%
X138307500Y-86897500D03*
X138307500Y-91897500D03*
X138307500Y-81897500D03*
X145807500Y-86897500D03*
X145807500Y-91897500D03*
X145807500Y-81897500D03*
D17*
X138307500Y-106897500D03*
D12*
X145807500Y-106897500D03*
%TD*%
%TO.C,K3*%
X124830000Y-86875000D03*
X124830000Y-91875000D03*
X124830000Y-81875000D03*
X132330000Y-86875000D03*
X132330000Y-91875000D03*
X132330000Y-81875000D03*
D17*
X124830000Y-106875000D03*
D12*
X132330000Y-106875000D03*
%TD*%
%TO.C,K2*%
X161947500Y-103927500D03*
X154447500Y-100427500D03*
X154447500Y-107427500D03*
D17*
X161947500Y-83927500D03*
D12*
X154447500Y-83927500D03*
%TD*%
%TO.C,K1*%
X175537500Y-103887500D03*
X168037500Y-100387500D03*
X168037500Y-107387500D03*
D17*
X175537500Y-83887500D03*
D12*
X168037500Y-83887500D03*
%TD*%
D18*
%TO.C,J4*%
X94360000Y-74040000D03*
X99360000Y-74040000D03*
D19*
X104360000Y-74040000D03*
%TD*%
D18*
%TO.C,J2*%
X125132500Y-74132500D03*
X130132500Y-74132500D03*
D19*
X135132500Y-74132500D03*
%TD*%
%TO.C,J1*%
X178690000Y-124760000D03*
D18*
X178690000Y-119760000D03*
%TD*%
D15*
%TO.C,U2*%
X108705000Y-134145000D03*
D16*
X108705000Y-131605000D03*
X108705000Y-129065000D03*
X108705000Y-126525000D03*
X108705000Y-123985000D03*
X108705000Y-121445000D03*
X108705000Y-118905000D03*
X108705000Y-116365000D03*
X98545000Y-116365000D03*
X98545000Y-118905000D03*
X98545000Y-121445000D03*
X98545000Y-123985000D03*
X98545000Y-126525000D03*
X98545000Y-129065000D03*
X98545000Y-131605000D03*
X98545000Y-134145000D03*
%TD*%
D19*
%TO.C,J3*%
X170320000Y-74245000D03*
D18*
X165320000Y-74245000D03*
X160320000Y-74245000D03*
%TD*%
D20*
%TO.C,PS1*%
X149510000Y-134380000D03*
X149510000Y-124220000D03*
X169830000Y-129300000D03*
D21*
X169830000Y-134380000D03*
%TD*%
D22*
%TO.C,RV1*%
X130280000Y-128600000D03*
X132820000Y-128600000D03*
X135360000Y-128600000D03*
%TD*%
D11*
%TO.C,R2*%
X129190000Y-118890000D03*
D10*
X134270000Y-118890000D03*
%TD*%
%TO.C,R1*%
X134040000Y-121390000D03*
D11*
X128960000Y-121390000D03*
%TD*%
D23*
%TO.C,F1*%
X179770000Y-115280000D03*
X174670000Y-114080000D03*
%TD*%
M02*
