M48
; DRILL file {KiCad (6.0.7)} date Tue Sep  6 00:26:26 2022
; FORMAT={-:-/ absolute / inch / decimal}
; #@! TF.CreationDate,2022-09-06T00:26:26+01:00
; #@! TF.GenerationSoftware,Kicad,Pcbnew,(6.0.7)
; #@! TF.FileFunction,Plated,1,2,PTH
FMAT,2
INCH
; #@! TA.AperFunction,Plated,PTH,ComponentDrill
T1C0.0276
; #@! TA.AperFunction,Plated,PTH,ComponentDrill
T2C0.0280
; #@! TA.AperFunction,Plated,PTH,ComponentDrill
T3C0.0315
; #@! TA.AperFunction,Plated,PTH,ComponentDrill
T4C0.0433
; #@! TA.AperFunction,Plated,PTH,ComponentDrill
T5C0.0512
; #@! TA.AperFunction,Plated,PTH,ComponentDrill
T6C0.0591
%
G90
G05
T1
X3.6417Y-4.4902
X3.8417Y-4.4902
X5.0772Y-4.7791
X5.0862Y-4.6807
X5.2772Y-4.7791
X5.2862Y-4.6807
T2
X6.8768Y-4.4913
X7.0776Y-4.5386
T3
X3.8797Y-4.5813
X3.8797Y-4.6813
X3.8797Y-4.7813
X3.8797Y-4.8813
X3.8797Y-4.9813
X3.8797Y-5.0813
X3.8797Y-5.1813
X3.8797Y-5.2813
X4.2797Y-4.5813
X4.2797Y-4.6813
X4.2797Y-4.7813
X4.2797Y-4.8813
X4.2797Y-4.9813
X4.2797Y-5.0813
X4.2797Y-5.1813
X4.2797Y-5.2813
X4.4561Y-4.6805
X4.4561Y-4.7805
X4.4561Y-4.8805
X4.4561Y-4.9805
X4.4561Y-5.0805
X4.4561Y-5.1805
X4.4561Y-5.2805
X4.8561Y-4.6805
X4.8561Y-4.7805
X4.8561Y-4.8805
X4.8561Y-4.9805
X4.8561Y-5.0805
X4.8561Y-5.1805
X4.8561Y-5.2805
X5.1291Y-5.063
X5.2291Y-5.063
X5.3291Y-5.063
X5.5945Y-5.195
X5.5945Y-5.2934
T4
X5.8862Y-4.8906
X5.8862Y-5.2906
X6.6862Y-5.0906
X6.6862Y-5.2906
T5
X3.715Y-2.915
X3.9118Y-2.915
X4.1087Y-2.915
X4.9265Y-2.9186
X5.1233Y-2.9186
X5.3202Y-2.9186
X6.3118Y-2.923
X6.5087Y-2.923
X6.7055Y-2.923
X7.035Y-4.715
X7.035Y-4.9118
T6
X3.7047Y-3.2224
X3.7047Y-3.4193
X3.7047Y-3.6161
X3.7047Y-4.2067
X4.0Y-3.2224
X4.0Y-3.4193
X4.0Y-3.6161
X4.0Y-4.2067
X4.2268Y-3.222
X4.2268Y-3.4189
X4.2268Y-3.6157
X4.2268Y-4.2063
X4.522Y-3.222
X4.522Y-3.4189
X4.522Y-3.6157
X4.522Y-4.2063
X4.9146Y-3.2234
X4.9146Y-3.4203
X4.9146Y-3.6171
X4.9146Y-4.2077
X5.2098Y-3.2234
X5.2098Y-3.4203
X5.2098Y-3.6171
X5.2098Y-4.2077
X5.4452Y-3.2243
X5.4452Y-3.4212
X5.4452Y-3.618
X5.4452Y-4.2086
X5.7405Y-3.2243
X5.7405Y-3.4212
X5.7405Y-3.618
X5.7405Y-4.2086
X6.0806Y-3.3042
X6.0806Y-3.9538
X6.0806Y-4.2294
X6.3759Y-3.3042
X6.3759Y-4.0916
X6.6156Y-3.3027
X6.6156Y-3.9523
X6.6156Y-4.2279
X6.9109Y-3.3027
X6.9109Y-4.0901
T0
M30
