%TF.GenerationSoftware,KiCad,Pcbnew,(6.0.8)*%
%TF.CreationDate,2022-12-26T14:05:03+00:00*%
%TF.ProjectId,Display_LED,44697370-6c61-4795-9f4c-45442e6b6963,1*%
%TF.SameCoordinates,Original*%
%TF.FileFunction,Copper,L1,Top*%
%TF.FilePolarity,Positive*%
%FSLAX46Y46*%
G04 Gerber Fmt 4.6, Leading zero omitted, Abs format (unit mm)*
G04 Created by KiCad (PCBNEW (6.0.8)) date 2022-12-26 14:05:03*
%MOMM*%
%LPD*%
G01*
G04 APERTURE LIST*
G04 Aperture macros list*
%AMRoundRect*
0 Rectangle with rounded corners*
0 $1 Rounding radius*
0 $2 $3 $4 $5 $6 $7 $8 $9 X,Y pos of 4 corners*
0 Add a 4 corners polygon primitive as box body*
4,1,4,$2,$3,$4,$5,$6,$7,$8,$9,$2,$3,0*
0 Add four circle primitives for the rounded corners*
1,1,$1+$1,$2,$3*
1,1,$1+$1,$4,$5*
1,1,$1+$1,$6,$7*
1,1,$1+$1,$8,$9*
0 Add four rect primitives between the rounded corners*
20,1,$1+$1,$2,$3,$4,$5,0*
20,1,$1+$1,$4,$5,$6,$7,0*
20,1,$1+$1,$6,$7,$8,$9,0*
20,1,$1+$1,$8,$9,$2,$3,0*%
G04 Aperture macros list end*
%TA.AperFunction,ComponentPad*%
%ADD10R,1.700000X1.700000*%
%TD*%
%TA.AperFunction,ComponentPad*%
%ADD11O,1.700000X1.700000*%
%TD*%
%TA.AperFunction,SMDPad,CuDef*%
%ADD12R,2.000000X1.500000*%
%TD*%
%TA.AperFunction,SMDPad,CuDef*%
%ADD13R,2.000000X3.800000*%
%TD*%
%TA.AperFunction,SMDPad,CuDef*%
%ADD14RoundRect,0.250000X0.475000X-0.250000X0.475000X0.250000X-0.475000X0.250000X-0.475000X-0.250000X0*%
%TD*%
%TA.AperFunction,SMDPad,CuDef*%
%ADD15RoundRect,0.250000X-1.500000X-0.550000X1.500000X-0.550000X1.500000X0.550000X-1.500000X0.550000X0*%
%TD*%
%TA.AperFunction,ComponentPad*%
%ADD16R,3.500000X3.500000*%
%TD*%
%TA.AperFunction,ComponentPad*%
%ADD17RoundRect,0.750000X0.750000X1.000000X-0.750000X1.000000X-0.750000X-1.000000X0.750000X-1.000000X0*%
%TD*%
%TA.AperFunction,ComponentPad*%
%ADD18RoundRect,0.875000X0.875000X0.875000X-0.875000X0.875000X-0.875000X-0.875000X0.875000X-0.875000X0*%
%TD*%
%TA.AperFunction,SMDPad,CuDef*%
%ADD19R,1.200000X0.800000*%
%TD*%
%TA.AperFunction,ComponentPad*%
%ADD20C,1.500000*%
%TD*%
%TA.AperFunction,ComponentPad*%
%ADD21C,0.475000*%
%TD*%
%TA.AperFunction,ViaPad*%
%ADD22C,0.800000*%
%TD*%
%TA.AperFunction,Conductor*%
%ADD23C,0.800000*%
%TD*%
%TA.AperFunction,Conductor*%
%ADD24C,0.400000*%
%TD*%
%TA.AperFunction,Conductor*%
%ADD25C,1.400000*%
%TD*%
G04 APERTURE END LIST*
D10*
%TO.P,J8,1,Pin_1*%
%TO.N,Earth*%
X273558000Y-118628000D03*
D11*
%TO.P,J8,2,Pin_2*%
%TO.N,unconnected-(J8-Pad2)*%
X273558000Y-121168000D03*
%TO.P,J8,3,Pin_3*%
%TO.N,DATA*%
X273558000Y-123708000D03*
%TO.P,J8,4,Pin_4*%
%TO.N,+3.3V*%
X273558000Y-126248000D03*
%TD*%
D12*
%TO.P,U1,1,VI*%
%TO.N,12v*%
X342956000Y-125970000D03*
%TO.P,U1,2,GND*%
%TO.N,Earth*%
X342956000Y-128270000D03*
%TO.P,U1,3,VO*%
%TO.N,+5V*%
X342956000Y-130570000D03*
D13*
%TO.P,U1,4*%
%TO.N,N/C*%
X349256000Y-128270000D03*
%TD*%
D14*
%TO.P,C2,1*%
%TO.N,+3.3V*%
X339852000Y-120330000D03*
%TO.P,C2,2*%
%TO.N,Earth*%
X339852000Y-118430000D03*
%TD*%
D15*
%TO.P,C1,1*%
%TO.N,12v*%
X344164000Y-136144000D03*
%TO.P,C1,2*%
%TO.N,Earth*%
X349764000Y-136144000D03*
%TD*%
D12*
%TO.P,U2,1,GND*%
%TO.N,Earth*%
X342956000Y-117902000D03*
D13*
%TO.P,U2,2,VO*%
%TO.N,+3.3V*%
X349256000Y-120202000D03*
D12*
X342956000Y-120202000D03*
%TO.P,U2,3,VI*%
%TO.N,+5V*%
X342956000Y-122502000D03*
%TD*%
D10*
%TO.P,J3,1,Pin_1*%
%TO.N,SPI_CLK*%
X79248000Y-141219000D03*
D11*
%TO.P,J3,2,Pin_2*%
%TO.N,SPI_CS*%
X79248000Y-138679000D03*
%TO.P,J3,3,Pin_3*%
%TO.N,unconnected-(J3-Pad3)*%
X79248000Y-136139000D03*
%TO.P,J3,4,Pin_4*%
%TO.N,Earth*%
X79248000Y-133599000D03*
%TO.P,J3,5,Pin_5*%
%TO.N,+5V*%
X79248000Y-131059000D03*
%TD*%
D16*
%TO.P,J1,1*%
%TO.N,Net-(D1-Pad2)*%
X342800000Y-147600000D03*
D17*
%TO.P,J1,2*%
%TO.N,Earth*%
X348800000Y-147600000D03*
D18*
%TO.P,J1,3*%
%TO.N,N/C*%
X345800000Y-142900000D03*
%TD*%
D10*
%TO.P,J4,1,Pin_1*%
%TO.N,SPI_CLK*%
X206248000Y-141219000D03*
D11*
%TO.P,J4,2,Pin_2*%
%TO.N,SPI_CS*%
X206248000Y-138679000D03*
%TO.P,J4,3,Pin_3*%
%TO.N,Net-(J4-Pad3)*%
X206248000Y-136139000D03*
%TO.P,J4,4,Pin_4*%
%TO.N,Earth*%
X206248000Y-133599000D03*
%TO.P,J4,5,Pin_5*%
%TO.N,+5V*%
X206248000Y-131059000D03*
%TD*%
D10*
%TO.P,J7,1,Pin_1*%
%TO.N,12v*%
X334264000Y-150119000D03*
D11*
%TO.P,J7,2,Pin_2*%
%TO.N,Net-(J7-Pad2)*%
X334264000Y-147579000D03*
%TD*%
D10*
%TO.P,J6,1,Pin_1*%
%TO.N,SPI_CLK*%
X336360000Y-141219000D03*
D11*
%TO.P,J6,2,Pin_2*%
%TO.N,SPI_CS*%
X336360000Y-138679000D03*
%TO.P,J6,3,Pin_3*%
%TO.N,SPI_DO*%
X336360000Y-136139000D03*
%TO.P,J6,4,Pin_4*%
%TO.N,Earth*%
X336360000Y-133599000D03*
%TO.P,J6,5,Pin_5*%
%TO.N,+5V*%
X336360000Y-131059000D03*
%TD*%
D10*
%TO.P,J5,1,Pin_1*%
%TO.N,SPI_CLK*%
X209296000Y-141219000D03*
D11*
%TO.P,J5,2,Pin_2*%
%TO.N,SPI_CS*%
X209296000Y-138679000D03*
%TO.P,J5,3,Pin_3*%
%TO.N,Net-(J4-Pad3)*%
X209296000Y-136139000D03*
%TO.P,J5,4,Pin_4*%
%TO.N,Earth*%
X209296000Y-133599000D03*
%TO.P,J5,5,Pin_5*%
%TO.N,+5V*%
X209296000Y-131059000D03*
%TD*%
D19*
%TO.P,D1,1,K*%
%TO.N,12v*%
X340614000Y-142964000D03*
%TO.P,D1,2,A*%
%TO.N,Net-(D1-Pad2)*%
X340614000Y-144564000D03*
%TD*%
D20*
%TO.P,Y1,1,1*%
%TO.N,Net-(C4-Pad1)*%
X276352000Y-138520000D03*
%TO.P,Y1,2,2*%
%TO.N,Earth*%
X276352000Y-140960000D03*
%TO.P,Y1,3,3*%
%TO.N,Net-(C5-Pad1)*%
X276352000Y-143400000D03*
%TD*%
D10*
%TO.P,J2,1,Pin_1*%
%TO.N,Earth*%
X289972000Y-147574000D03*
D11*
%TO.P,J2,2,Pin_2*%
%TO.N,D+*%
X287432000Y-147574000D03*
%TO.P,J2,3,Pin_3*%
%TO.N,D-*%
X284892000Y-147574000D03*
%TO.P,J2,4,Pin_4*%
%TO.N,+5V*%
X282352000Y-147574000D03*
%TD*%
D21*
%TO.P,U3,39,GND*%
%TO.N,Earth*%
X303701000Y-137012500D03*
X304463500Y-134725000D03*
X305988500Y-137775000D03*
X305226000Y-135487500D03*
X305988500Y-136250000D03*
X306751000Y-137012500D03*
X305226000Y-137012500D03*
X303701000Y-135487500D03*
X306751000Y-135487500D03*
X305988500Y-134725000D03*
X304463500Y-137775000D03*
X304463500Y-136250000D03*
%TD*%
D22*
%TO.N,Earth*%
X310896000Y-128270000D03*
X305054000Y-129286000D03*
X252481000Y-133599000D03*
X272039000Y-133599000D03*
X309885000Y-133599000D03*
X324871000Y-133599000D03*
%TO.N,+3.3V*%
X331724000Y-135382000D03*
X287528000Y-139192000D03*
X346202000Y-120142000D03*
%TO.N,+5V*%
X268478000Y-136144000D03*
X268478000Y-131064000D03*
%TO.N,RX*%
X287528000Y-145034000D03*
X301498000Y-141478000D03*
%TO.N,TX*%
X299212000Y-141986000D03*
X289814000Y-144018000D03*
%TO.N,SPI_CS*%
X306070000Y-150622000D03*
%TO.N,SPI_CLK*%
X304038000Y-152146000D03*
%TO.N,SPI_DO*%
X302768000Y-149098000D03*
%TD*%
D23*
%TO.N,Earth*%
X309880000Y-129286000D02*
X310896000Y-128270000D01*
X305054000Y-129286000D02*
X309880000Y-129286000D01*
X252481000Y-133599000D02*
X272039000Y-133599000D01*
X272039000Y-133599000D02*
X309885000Y-133599000D01*
X309885000Y-133599000D02*
X324871000Y-133599000D01*
X324871000Y-133599000D02*
X336360000Y-133599000D01*
D24*
%TO.N,+3.3V*%
X287528000Y-139192000D02*
X327914000Y-139192000D01*
X342828000Y-120330000D02*
X342956000Y-120202000D01*
X339852000Y-120330000D02*
X342828000Y-120330000D01*
X342956000Y-120202000D02*
X349256000Y-120202000D01*
X327914000Y-139192000D02*
X331724000Y-135382000D01*
D25*
%TO.N,Earth*%
X349250000Y-133350000D02*
X349764000Y-133864000D01*
D24*
X348800000Y-147600000D02*
X349764000Y-146636000D01*
D25*
X342956000Y-128270000D02*
X341884000Y-128270000D01*
X341630000Y-133350000D02*
X349250000Y-133350000D01*
D24*
X349764000Y-146636000D02*
X349764000Y-136144000D01*
D23*
X209296000Y-133599000D02*
X252481000Y-133599000D01*
D24*
X343408000Y-115570000D02*
X350520000Y-115570000D01*
D25*
X340868000Y-129286000D02*
X340868000Y-132588000D01*
D24*
X350520000Y-115570000D02*
X351536000Y-116586000D01*
D23*
X206248000Y-133599000D02*
X79248000Y-133599000D01*
D24*
X342956000Y-116022000D02*
X343408000Y-115570000D01*
X340314000Y-117902000D02*
X342956000Y-117902000D01*
X339852000Y-118430000D02*
X339852000Y-118364000D01*
X351536000Y-134372000D02*
X349764000Y-136144000D01*
X351536000Y-116586000D02*
X351536000Y-134372000D01*
D25*
X340868000Y-132588000D02*
X341630000Y-133350000D01*
D24*
X342956000Y-117902000D02*
X342956000Y-116022000D01*
D25*
X341884000Y-128270000D02*
X340868000Y-129286000D01*
D23*
X209296000Y-133599000D02*
X206248000Y-133599000D01*
D25*
X349764000Y-133864000D02*
X349764000Y-136144000D01*
D24*
X339852000Y-118364000D02*
X340314000Y-117902000D01*
D25*
%TO.N,12v*%
X338874000Y-142964000D02*
X337312000Y-144526000D01*
X340614000Y-142964000D02*
X340614000Y-139694000D01*
X342956000Y-125970000D02*
X340628000Y-125970000D01*
X340628000Y-125970000D02*
X338836000Y-127762000D01*
X340614000Y-142964000D02*
X338874000Y-142964000D01*
X338836000Y-133858000D02*
X341122000Y-136144000D01*
X340614000Y-139694000D02*
X344164000Y-136144000D01*
X338836000Y-127762000D02*
X338836000Y-133858000D01*
X337312000Y-148336000D02*
X335529000Y-150119000D01*
X337312000Y-144526000D02*
X337312000Y-148336000D01*
X341122000Y-136144000D02*
X344164000Y-136144000D01*
X335529000Y-150119000D02*
X334264000Y-150119000D01*
%TO.N,+5V*%
X282352000Y-147574000D02*
X273304000Y-147574000D01*
X336360000Y-126428000D02*
X340286000Y-122502000D01*
D23*
X206248000Y-131059000D02*
X209296000Y-131059000D01*
D25*
X346456000Y-129286000D02*
X345172000Y-130570000D01*
X345006000Y-122502000D02*
X346456000Y-123952000D01*
X346456000Y-123952000D02*
X346456000Y-129286000D01*
X345172000Y-130570000D02*
X342956000Y-130570000D01*
D23*
X79248000Y-131059000D02*
X206248000Y-131059000D01*
D25*
X342956000Y-122502000D02*
X345006000Y-122502000D01*
X268478000Y-142748000D02*
X268478000Y-136144000D01*
X340286000Y-122502000D02*
X342956000Y-122502000D01*
D23*
X209296000Y-131059000D02*
X271775000Y-131059000D01*
X271775000Y-131059000D02*
X336360000Y-131059000D01*
D25*
X273304000Y-147574000D02*
X272542000Y-146812000D01*
X336360000Y-131059000D02*
X336360000Y-126428000D01*
X272542000Y-146812000D02*
X268478000Y-142748000D01*
%TO.N,Net-(D1-Pad2)*%
X340614000Y-144564000D02*
X340614000Y-145414000D01*
X340614000Y-145414000D02*
X342800000Y-147600000D01*
D24*
%TO.N,RX*%
X297942000Y-145034000D02*
X287528000Y-145034000D01*
X301498000Y-141478000D02*
X297942000Y-145034000D01*
%TO.N,TX*%
X297688000Y-143510000D02*
X297180000Y-144018000D01*
X297180000Y-144018000D02*
X289814000Y-144018000D01*
X299212000Y-141986000D02*
X297688000Y-143510000D01*
D23*
%TO.N,SPI_CS*%
X333507000Y-138679000D02*
X321564000Y-150622000D01*
X321564000Y-150622000D02*
X273304000Y-150622000D01*
X79248000Y-138679000D02*
X206248000Y-138679000D01*
X206248000Y-138679000D02*
X209296000Y-138679000D01*
X273304000Y-150622000D02*
X261361000Y-138679000D01*
X336360000Y-138679000D02*
X333507000Y-138679000D01*
X261361000Y-138679000D02*
X209296000Y-138679000D01*
%TO.N,SPI_CLK*%
X209296000Y-141219000D02*
X261615000Y-141219000D01*
X206248000Y-141219000D02*
X79248000Y-141219000D01*
X209296000Y-141219000D02*
X206248000Y-141219000D01*
X261615000Y-141219000D02*
X272542000Y-152146000D01*
X322072000Y-152146000D02*
X332999000Y-141219000D01*
X332999000Y-141219000D02*
X336360000Y-141219000D01*
X272542000Y-152146000D02*
X322072000Y-152146000D01*
%TO.N,SPI_DO*%
X320802000Y-149098000D02*
X302768000Y-149098000D01*
X336360000Y-136139000D02*
X333761000Y-136139000D01*
X333761000Y-136139000D02*
X320802000Y-149098000D01*
%TO.N,Net-(J4-Pad3)*%
X206248000Y-136139000D02*
X209296000Y-136139000D01*
%TD*%
M02*
