%TF.GenerationSoftware,KiCad,Pcbnew,(6.0.8)*%
%TF.CreationDate,2022-12-26T14:05:03+00:00*%
%TF.ProjectId,Display_LED,44697370-6c61-4795-9f4c-45442e6b6963,1*%
%TF.SameCoordinates,Original*%
%TF.FileFunction,Legend,Top*%
%TF.FilePolarity,Positive*%
%FSLAX46Y46*%
G04 Gerber Fmt 4.6, Leading zero omitted, Abs format (unit mm)*
G04 Created by KiCad (PCBNEW (6.0.8)) date 2022-12-26 14:05:03*
%MOMM*%
%LPD*%
G01*
G04 APERTURE LIST*
G04 Aperture macros list*
%AMRoundRect*
0 Rectangle with rounded corners*
0 $1 Rounding radius*
0 $2 $3 $4 $5 $6 $7 $8 $9 X,Y pos of 4 corners*
0 Add a 4 corners polygon primitive as box body*
4,1,4,$2,$3,$4,$5,$6,$7,$8,$9,$2,$3,0*
0 Add four circle primitives for the rounded corners*
1,1,$1+$1,$2,$3*
1,1,$1+$1,$4,$5*
1,1,$1+$1,$6,$7*
1,1,$1+$1,$8,$9*
0 Add four rect primitives between the rounded corners*
20,1,$1+$1,$2,$3,$4,$5,0*
20,1,$1+$1,$4,$5,$6,$7,0*
20,1,$1+$1,$6,$7,$8,$9,0*
20,1,$1+$1,$8,$9,$2,$3,0*%
G04 Aperture macros list end*
%ADD10C,0.150000*%
%ADD11C,0.120000*%
%ADD12R,1.700000X1.700000*%
%ADD13O,1.700000X1.700000*%
%ADD14R,2.000000X1.500000*%
%ADD15R,2.000000X3.800000*%
%ADD16RoundRect,0.250000X0.475000X-0.250000X0.475000X0.250000X-0.475000X0.250000X-0.475000X-0.250000X0*%
%ADD17RoundRect,0.250000X-1.500000X-0.550000X1.500000X-0.550000X1.500000X0.550000X-1.500000X0.550000X0*%
%ADD18R,3.500000X3.500000*%
%ADD19RoundRect,0.750000X0.750000X1.000000X-0.750000X1.000000X-0.750000X-1.000000X0.750000X-1.000000X0*%
%ADD20RoundRect,0.875000X0.875000X0.875000X-0.875000X0.875000X-0.875000X-0.875000X0.875000X-0.875000X0*%
%ADD21R,1.200000X0.800000*%
%ADD22C,1.500000*%
%ADD23C,0.800000*%
G04 APERTURE END LIST*
D10*
%TO.C,J8*%
X273224666Y-115750380D02*
X273224666Y-116464666D01*
X273177047Y-116607523D01*
X273081809Y-116702761D01*
X272938952Y-116750380D01*
X272843714Y-116750380D01*
X273843714Y-116178952D02*
X273748476Y-116131333D01*
X273700857Y-116083714D01*
X273653238Y-115988476D01*
X273653238Y-115940857D01*
X273700857Y-115845619D01*
X273748476Y-115798000D01*
X273843714Y-115750380D01*
X274034190Y-115750380D01*
X274129428Y-115798000D01*
X274177047Y-115845619D01*
X274224666Y-115940857D01*
X274224666Y-115988476D01*
X274177047Y-116083714D01*
X274129428Y-116131333D01*
X274034190Y-116178952D01*
X273843714Y-116178952D01*
X273748476Y-116226571D01*
X273700857Y-116274190D01*
X273653238Y-116369428D01*
X273653238Y-116559904D01*
X273700857Y-116655142D01*
X273748476Y-116702761D01*
X273843714Y-116750380D01*
X274034190Y-116750380D01*
X274129428Y-116702761D01*
X274177047Y-116655142D01*
X274224666Y-116559904D01*
X274224666Y-116369428D01*
X274177047Y-116274190D01*
X274129428Y-116226571D01*
X274034190Y-116178952D01*
%TO.C,U1*%
X350734380Y-129031904D02*
X351543904Y-129031904D01*
X351639142Y-128984285D01*
X351686761Y-128936666D01*
X351734380Y-128841428D01*
X351734380Y-128650952D01*
X351686761Y-128555714D01*
X351639142Y-128508095D01*
X351543904Y-128460476D01*
X350734380Y-128460476D01*
X351734380Y-127460476D02*
X351734380Y-128031904D01*
X351734380Y-127746190D02*
X350734380Y-127746190D01*
X350877238Y-127841428D01*
X350972476Y-127936666D01*
X351020095Y-128031904D01*
%TO.C,C2*%
X338359142Y-119566666D02*
X338406761Y-119614285D01*
X338454380Y-119757142D01*
X338454380Y-119852380D01*
X338406761Y-119995238D01*
X338311523Y-120090476D01*
X338216285Y-120138095D01*
X338025809Y-120185714D01*
X337882952Y-120185714D01*
X337692476Y-120138095D01*
X337597238Y-120090476D01*
X337502000Y-119995238D01*
X337454380Y-119852380D01*
X337454380Y-119757142D01*
X337502000Y-119614285D01*
X337549619Y-119566666D01*
X337549619Y-119185714D02*
X337502000Y-119138095D01*
X337454380Y-119042857D01*
X337454380Y-118804761D01*
X337502000Y-118709523D01*
X337549619Y-118661904D01*
X337644857Y-118614285D01*
X337740095Y-118614285D01*
X337882952Y-118661904D01*
X338454380Y-119233333D01*
X338454380Y-118614285D01*
%TO.C,C1*%
X342717333Y-140281142D02*
X342669714Y-140328761D01*
X342526857Y-140376380D01*
X342431619Y-140376380D01*
X342288761Y-140328761D01*
X342193523Y-140233523D01*
X342145904Y-140138285D01*
X342098285Y-139947809D01*
X342098285Y-139804952D01*
X342145904Y-139614476D01*
X342193523Y-139519238D01*
X342288761Y-139424000D01*
X342431619Y-139376380D01*
X342526857Y-139376380D01*
X342669714Y-139424000D01*
X342717333Y-139471619D01*
X343669714Y-140376380D02*
X343098285Y-140376380D01*
X343384000Y-140376380D02*
X343384000Y-139376380D01*
X343288761Y-139519238D01*
X343193523Y-139614476D01*
X343098285Y-139662095D01*
%TO.C,U2*%
X350734380Y-120903904D02*
X351543904Y-120903904D01*
X351639142Y-120856285D01*
X351686761Y-120808666D01*
X351734380Y-120713428D01*
X351734380Y-120522952D01*
X351686761Y-120427714D01*
X351639142Y-120380095D01*
X351543904Y-120332476D01*
X350734380Y-120332476D01*
X350829619Y-119903904D02*
X350782000Y-119856285D01*
X350734380Y-119761047D01*
X350734380Y-119522952D01*
X350782000Y-119427714D01*
X350829619Y-119380095D01*
X350924857Y-119332476D01*
X351020095Y-119332476D01*
X351162952Y-119380095D01*
X351734380Y-119951523D01*
X351734380Y-119332476D01*
%TO.C,J3*%
X78914666Y-143724380D02*
X78914666Y-144438666D01*
X78867047Y-144581523D01*
X78771809Y-144676761D01*
X78628952Y-144724380D01*
X78533714Y-144724380D01*
X79295619Y-143724380D02*
X79914666Y-143724380D01*
X79581333Y-144105333D01*
X79724190Y-144105333D01*
X79819428Y-144152952D01*
X79867047Y-144200571D01*
X79914666Y-144295809D01*
X79914666Y-144533904D01*
X79867047Y-144629142D01*
X79819428Y-144676761D01*
X79724190Y-144724380D01*
X79438476Y-144724380D01*
X79343238Y-144676761D01*
X79295619Y-144629142D01*
%TO.C,J1*%
X350916666Y-141302380D02*
X350916666Y-142016666D01*
X350869047Y-142159523D01*
X350773809Y-142254761D01*
X350630952Y-142302380D01*
X350535714Y-142302380D01*
X351916666Y-142302380D02*
X351345238Y-142302380D01*
X351630952Y-142302380D02*
X351630952Y-141302380D01*
X351535714Y-141445238D01*
X351440476Y-141540476D01*
X351345238Y-141588095D01*
%TO.C,J4*%
X205914666Y-143470380D02*
X205914666Y-144184666D01*
X205867047Y-144327523D01*
X205771809Y-144422761D01*
X205628952Y-144470380D01*
X205533714Y-144470380D01*
X206819428Y-143803714D02*
X206819428Y-144470380D01*
X206581333Y-143422761D02*
X206343238Y-144137047D01*
X206962285Y-144137047D01*
%TO.C,J7*%
X333930666Y-151901380D02*
X333930666Y-152615666D01*
X333883047Y-152758523D01*
X333787809Y-152853761D01*
X333644952Y-152901380D01*
X333549714Y-152901380D01*
X334311619Y-151901380D02*
X334978285Y-151901380D01*
X334549714Y-152901380D01*
%TO.C,J6*%
X336026666Y-143470380D02*
X336026666Y-144184666D01*
X335979047Y-144327523D01*
X335883809Y-144422761D01*
X335740952Y-144470380D01*
X335645714Y-144470380D01*
X336931428Y-143470380D02*
X336740952Y-143470380D01*
X336645714Y-143518000D01*
X336598095Y-143565619D01*
X336502857Y-143708476D01*
X336455238Y-143898952D01*
X336455238Y-144279904D01*
X336502857Y-144375142D01*
X336550476Y-144422761D01*
X336645714Y-144470380D01*
X336836190Y-144470380D01*
X336931428Y-144422761D01*
X336979047Y-144375142D01*
X337026666Y-144279904D01*
X337026666Y-144041809D01*
X336979047Y-143946571D01*
X336931428Y-143898952D01*
X336836190Y-143851333D01*
X336645714Y-143851333D01*
X336550476Y-143898952D01*
X336502857Y-143946571D01*
X336455238Y-144041809D01*
%TO.C,J5*%
X208962666Y-143470380D02*
X208962666Y-144184666D01*
X208915047Y-144327523D01*
X208819809Y-144422761D01*
X208676952Y-144470380D01*
X208581714Y-144470380D01*
X209915047Y-143470380D02*
X209438857Y-143470380D01*
X209391238Y-143946571D01*
X209438857Y-143898952D01*
X209534095Y-143851333D01*
X209772190Y-143851333D01*
X209867428Y-143898952D01*
X209915047Y-143946571D01*
X209962666Y-144041809D01*
X209962666Y-144279904D01*
X209915047Y-144375142D01*
X209867428Y-144422761D01*
X209772190Y-144470380D01*
X209534095Y-144470380D01*
X209438857Y-144422761D01*
X209391238Y-144375142D01*
%TO.C,D1*%
X340050380Y-148058095D02*
X339050380Y-148058095D01*
X339050380Y-147820000D01*
X339098000Y-147677142D01*
X339193238Y-147581904D01*
X339288476Y-147534285D01*
X339478952Y-147486666D01*
X339621809Y-147486666D01*
X339812285Y-147534285D01*
X339907523Y-147581904D01*
X340002761Y-147677142D01*
X340050380Y-147820000D01*
X340050380Y-148058095D01*
X340050380Y-146534285D02*
X340050380Y-147105714D01*
X340050380Y-146820000D02*
X339050380Y-146820000D01*
X339193238Y-146915238D01*
X339288476Y-147010476D01*
X339336095Y-147105714D01*
D11*
%TO.C,J8*%
X274888000Y-119898000D02*
X274888000Y-127578000D01*
X272228000Y-118628000D02*
X272228000Y-117298000D01*
X272228000Y-127578000D02*
X274888000Y-127578000D01*
X272228000Y-119898000D02*
X274888000Y-119898000D01*
X272228000Y-117298000D02*
X273558000Y-117298000D01*
X272228000Y-119898000D02*
X272228000Y-127578000D01*
%TO.C,U1*%
X348016000Y-131680000D02*
X348016000Y-130420000D01*
X348016000Y-124860000D02*
X348016000Y-126120000D01*
X344256000Y-131680000D02*
X348016000Y-131680000D01*
X342006000Y-124860000D02*
X348016000Y-124860000D01*
%TO.C,C2*%
X339117000Y-119641252D02*
X339117000Y-119118748D01*
X340587000Y-119641252D02*
X340587000Y-119118748D01*
%TO.C,C1*%
X343554000Y-138489563D02*
X343554000Y-137204000D01*
X343554000Y-138489563D02*
X344618437Y-139554000D01*
X344618437Y-132734000D02*
X350374000Y-132734000D01*
X342920250Y-133902750D02*
X342920250Y-134690250D01*
X343554000Y-133798437D02*
X344618437Y-132734000D01*
X343554000Y-133798437D02*
X343554000Y-135084000D01*
X342526500Y-134296500D02*
X343314000Y-134296500D01*
X350374000Y-132734000D02*
X350374000Y-135084000D01*
X350374000Y-139554000D02*
X350374000Y-137204000D01*
X344618437Y-139554000D02*
X350374000Y-139554000D01*
%TO.C,U2*%
X348016000Y-123612000D02*
X348016000Y-122352000D01*
X344256000Y-123612000D02*
X348016000Y-123612000D01*
X342006000Y-116792000D02*
X348016000Y-116792000D01*
X348016000Y-116792000D02*
X348016000Y-118052000D01*
%TO.C,J3*%
X80578000Y-142549000D02*
X79248000Y-142549000D01*
X80578000Y-129729000D02*
X77918000Y-129729000D01*
X77918000Y-139949000D02*
X77918000Y-129729000D01*
X80578000Y-141219000D02*
X80578000Y-142549000D01*
X80578000Y-139949000D02*
X80578000Y-129729000D01*
X80578000Y-139949000D02*
X77918000Y-139949000D01*
%TO.C,J1*%
X356600000Y-143000000D02*
X356600000Y-152200000D01*
X356600000Y-152200000D02*
X341900000Y-152200000D01*
X347800000Y-143000000D02*
X356600000Y-143000000D01*
X341900000Y-143000000D02*
X343800000Y-143000000D01*
X341900000Y-145700000D02*
X341900000Y-143000000D01*
X341900000Y-152200000D02*
X341900000Y-149600000D01*
X341700000Y-151350000D02*
X341700000Y-152400000D01*
X342750000Y-152400000D02*
X341700000Y-152400000D01*
%TO.C,J4*%
X207578000Y-139949000D02*
X204918000Y-139949000D01*
X207578000Y-142549000D02*
X206248000Y-142549000D01*
X207578000Y-141219000D02*
X207578000Y-142549000D01*
X207578000Y-129729000D02*
X204918000Y-129729000D01*
X204918000Y-139949000D02*
X204918000Y-129729000D01*
X207578000Y-139949000D02*
X207578000Y-129729000D01*
%TO.C,J7*%
X332934000Y-148849000D02*
X332934000Y-146249000D01*
X335594000Y-148849000D02*
X335594000Y-146249000D01*
X335594000Y-148849000D02*
X332934000Y-148849000D01*
X335594000Y-151449000D02*
X334264000Y-151449000D01*
X335594000Y-146249000D02*
X332934000Y-146249000D01*
X335594000Y-150119000D02*
X335594000Y-151449000D01*
%TO.C,J6*%
X335030000Y-139949000D02*
X335030000Y-129729000D01*
X337690000Y-141219000D02*
X337690000Y-142549000D01*
X337690000Y-142549000D02*
X336360000Y-142549000D01*
X337690000Y-139949000D02*
X337690000Y-129729000D01*
X337690000Y-139949000D02*
X335030000Y-139949000D01*
X337690000Y-129729000D02*
X335030000Y-129729000D01*
%TO.C,J5*%
X210626000Y-139949000D02*
X207966000Y-139949000D01*
X210626000Y-129729000D02*
X207966000Y-129729000D01*
X210626000Y-142549000D02*
X209296000Y-142549000D01*
X207966000Y-139949000D02*
X207966000Y-129729000D01*
X210626000Y-141219000D02*
X210626000Y-142549000D01*
X210626000Y-139949000D02*
X210626000Y-129729000D01*
%TO.C,D1*%
X341394000Y-142404000D02*
X339834000Y-142404000D01*
X341394000Y-144564000D02*
X341394000Y-142404000D01*
X339834000Y-142404000D02*
X339834000Y-144564000D01*
%TD*%
%LPC*%
D12*
%TO.C,J8*%
X273558000Y-118628000D03*
D13*
X273558000Y-121168000D03*
X273558000Y-123708000D03*
X273558000Y-126248000D03*
%TD*%
D14*
%TO.C,U1*%
X342956000Y-125970000D03*
X342956000Y-128270000D03*
X342956000Y-130570000D03*
D15*
X349256000Y-128270000D03*
%TD*%
D16*
%TO.C,C2*%
X339852000Y-120330000D03*
X339852000Y-118430000D03*
%TD*%
D17*
%TO.C,C1*%
X344164000Y-136144000D03*
X349764000Y-136144000D03*
%TD*%
D14*
%TO.C,U2*%
X342956000Y-117902000D03*
D15*
X349256000Y-120202000D03*
D14*
X342956000Y-120202000D03*
X342956000Y-122502000D03*
%TD*%
D12*
%TO.C,J3*%
X79248000Y-141219000D03*
D13*
X79248000Y-138679000D03*
X79248000Y-136139000D03*
X79248000Y-133599000D03*
X79248000Y-131059000D03*
%TD*%
D18*
%TO.C,J1*%
X342800000Y-147600000D03*
D19*
X348800000Y-147600000D03*
D20*
X345800000Y-142900000D03*
%TD*%
D12*
%TO.C,J4*%
X206248000Y-141219000D03*
D13*
X206248000Y-138679000D03*
X206248000Y-136139000D03*
X206248000Y-133599000D03*
X206248000Y-131059000D03*
%TD*%
D12*
%TO.C,J7*%
X334264000Y-150119000D03*
D13*
X334264000Y-147579000D03*
%TD*%
D12*
%TO.C,J6*%
X336360000Y-141219000D03*
D13*
X336360000Y-138679000D03*
X336360000Y-136139000D03*
X336360000Y-133599000D03*
X336360000Y-131059000D03*
%TD*%
D12*
%TO.C,J5*%
X209296000Y-141219000D03*
D13*
X209296000Y-138679000D03*
X209296000Y-136139000D03*
X209296000Y-133599000D03*
X209296000Y-131059000D03*
%TD*%
D21*
%TO.C,D1*%
X340614000Y-142964000D03*
X340614000Y-144564000D03*
%TD*%
D22*
%TO.C,Y1*%
X276352000Y-138520000D03*
X276352000Y-140960000D03*
X276352000Y-143400000D03*
%TD*%
D12*
%TO.C,J2*%
X289972000Y-147574000D03*
D13*
X287432000Y-147574000D03*
X284892000Y-147574000D03*
X282352000Y-147574000D03*
%TD*%
D23*
X310896000Y-128270000D03*
X305054000Y-129286000D03*
X252481000Y-133599000D03*
X272039000Y-133599000D03*
X309885000Y-133599000D03*
X324871000Y-133599000D03*
X331724000Y-135382000D03*
X287528000Y-139192000D03*
X346202000Y-120142000D03*
X268478000Y-136144000D03*
X268478000Y-131064000D03*
X287528000Y-145034000D03*
X301498000Y-141478000D03*
X299212000Y-141986000D03*
X289814000Y-144018000D03*
X306070000Y-150622000D03*
X304038000Y-152146000D03*
X302768000Y-149098000D03*
M02*
