%TF.GenerationSoftware,KiCad,Pcbnew,(6.0.8)*%
%TF.CreationDate,2022-12-26T14:05:03+00:00*%
%TF.ProjectId,Display_LED,44697370-6c61-4795-9f4c-45442e6b6963,1*%
%TF.SameCoordinates,Original*%
%TF.FileFunction,Other,Comment*%
%FSLAX46Y46*%
G04 Gerber Fmt 4.6, Leading zero omitted, Abs format (unit mm)*
G04 Created by KiCad (PCBNEW (6.0.8)) date 2022-12-26 14:05:03*
%MOMM*%
%LPD*%
G01*
G04 APERTURE LIST*
%ADD10C,0.150000*%
%ADD11C,0.100000*%
G04 APERTURE END LIST*
D10*
%TO.C,U3*%
X298474571Y-118612380D02*
X298474571Y-117612380D01*
X299046000Y-118612380D02*
X298617428Y-118040952D01*
X299046000Y-117612380D02*
X298474571Y-118183809D01*
X299474571Y-118088571D02*
X299807904Y-118088571D01*
X299950761Y-118612380D02*
X299474571Y-118612380D01*
X299474571Y-117612380D01*
X299950761Y-117612380D01*
X300379333Y-118088571D02*
X300712666Y-118088571D01*
X300855523Y-118612380D02*
X300379333Y-118612380D01*
X300379333Y-117612380D01*
X300855523Y-117612380D01*
X301284095Y-118612380D02*
X301284095Y-117612380D01*
X301665047Y-117612380D01*
X301760285Y-117660000D01*
X301807904Y-117707619D01*
X301855523Y-117802857D01*
X301855523Y-117945714D01*
X301807904Y-118040952D01*
X301760285Y-118088571D01*
X301665047Y-118136190D01*
X301284095Y-118136190D01*
X302284095Y-118231428D02*
X303046000Y-118231428D01*
X303712666Y-117612380D02*
X303903142Y-117612380D01*
X303998380Y-117660000D01*
X304093619Y-117755238D01*
X304141238Y-117945714D01*
X304141238Y-118279047D01*
X304093619Y-118469523D01*
X303998380Y-118564761D01*
X303903142Y-118612380D01*
X303712666Y-118612380D01*
X303617428Y-118564761D01*
X303522190Y-118469523D01*
X303474571Y-118279047D01*
X303474571Y-117945714D01*
X303522190Y-117755238D01*
X303617428Y-117660000D01*
X303712666Y-117612380D01*
X304569809Y-117612380D02*
X304569809Y-118421904D01*
X304617428Y-118517142D01*
X304665047Y-118564761D01*
X304760285Y-118612380D01*
X304950761Y-118612380D01*
X305046000Y-118564761D01*
X305093619Y-118517142D01*
X305141238Y-118421904D01*
X305141238Y-117612380D01*
X305474571Y-117612380D02*
X306046000Y-117612380D01*
X305760285Y-118612380D02*
X305760285Y-117612380D01*
X307046000Y-117612380D02*
X307712666Y-117612380D01*
X307046000Y-118612380D01*
X307712666Y-118612380D01*
X308284095Y-117612380D02*
X308474571Y-117612380D01*
X308569809Y-117660000D01*
X308665047Y-117755238D01*
X308712666Y-117945714D01*
X308712666Y-118279047D01*
X308665047Y-118469523D01*
X308569809Y-118564761D01*
X308474571Y-118612380D01*
X308284095Y-118612380D01*
X308188857Y-118564761D01*
X308093619Y-118469523D01*
X308046000Y-118279047D01*
X308046000Y-117945714D01*
X308093619Y-117755238D01*
X308188857Y-117660000D01*
X308284095Y-117612380D01*
X309141238Y-118612380D02*
X309141238Y-117612380D01*
X309712666Y-118612380D01*
X309712666Y-117612380D01*
X310188857Y-118088571D02*
X310522190Y-118088571D01*
X310665047Y-118612380D02*
X310188857Y-118612380D01*
X310188857Y-117612380D01*
X310665047Y-117612380D01*
D11*
X315007904Y-122511190D02*
X314769809Y-122511190D01*
X314746000Y-122749285D01*
X314769809Y-122725476D01*
X314817428Y-122701666D01*
X314936476Y-122701666D01*
X314984095Y-122725476D01*
X315007904Y-122749285D01*
X315031714Y-122796904D01*
X315031714Y-122915952D01*
X315007904Y-122963571D01*
X314984095Y-122987380D01*
X314936476Y-123011190D01*
X314817428Y-123011190D01*
X314769809Y-122987380D01*
X314746000Y-122963571D01*
X315626952Y-123011190D02*
X315626952Y-122677857D01*
X315626952Y-122725476D02*
X315650761Y-122701666D01*
X315698380Y-122677857D01*
X315769809Y-122677857D01*
X315817428Y-122701666D01*
X315841238Y-122749285D01*
X315841238Y-123011190D01*
X315841238Y-122749285D02*
X315865047Y-122701666D01*
X315912666Y-122677857D01*
X315984095Y-122677857D01*
X316031714Y-122701666D01*
X316055523Y-122749285D01*
X316055523Y-123011190D01*
X316293619Y-123011190D02*
X316293619Y-122677857D01*
X316293619Y-122725476D02*
X316317428Y-122701666D01*
X316365047Y-122677857D01*
X316436476Y-122677857D01*
X316484095Y-122701666D01*
X316507904Y-122749285D01*
X316507904Y-123011190D01*
X316507904Y-122749285D02*
X316531714Y-122701666D01*
X316579333Y-122677857D01*
X316650761Y-122677857D01*
X316698380Y-122701666D01*
X316722190Y-122749285D01*
X316722190Y-123011190D01*
X292007904Y-122511190D02*
X291769809Y-122511190D01*
X291746000Y-122749285D01*
X291769809Y-122725476D01*
X291817428Y-122701666D01*
X291936476Y-122701666D01*
X291984095Y-122725476D01*
X292007904Y-122749285D01*
X292031714Y-122796904D01*
X292031714Y-122915952D01*
X292007904Y-122963571D01*
X291984095Y-122987380D01*
X291936476Y-123011190D01*
X291817428Y-123011190D01*
X291769809Y-122987380D01*
X291746000Y-122963571D01*
X292626952Y-123011190D02*
X292626952Y-122677857D01*
X292626952Y-122725476D02*
X292650761Y-122701666D01*
X292698380Y-122677857D01*
X292769809Y-122677857D01*
X292817428Y-122701666D01*
X292841238Y-122749285D01*
X292841238Y-123011190D01*
X292841238Y-122749285D02*
X292865047Y-122701666D01*
X292912666Y-122677857D01*
X292984095Y-122677857D01*
X293031714Y-122701666D01*
X293055523Y-122749285D01*
X293055523Y-123011190D01*
X293293619Y-123011190D02*
X293293619Y-122677857D01*
X293293619Y-122725476D02*
X293317428Y-122701666D01*
X293365047Y-122677857D01*
X293436476Y-122677857D01*
X293484095Y-122701666D01*
X293507904Y-122749285D01*
X293507904Y-123011190D01*
X293507904Y-122749285D02*
X293531714Y-122701666D01*
X293579333Y-122677857D01*
X293650761Y-122677857D01*
X293698380Y-122701666D01*
X293722190Y-122749285D01*
X293722190Y-123011190D01*
X296472190Y-118823095D02*
X296472190Y-119061190D01*
X296710285Y-119085000D01*
X296686476Y-119061190D01*
X296662666Y-119013571D01*
X296662666Y-118894523D01*
X296686476Y-118846904D01*
X296710285Y-118823095D01*
X296757904Y-118799285D01*
X296876952Y-118799285D01*
X296924571Y-118823095D01*
X296948380Y-118846904D01*
X296972190Y-118894523D01*
X296972190Y-119013571D01*
X296948380Y-119061190D01*
X296924571Y-119085000D01*
X296972190Y-118204047D02*
X296638857Y-118204047D01*
X296686476Y-118204047D02*
X296662666Y-118180238D01*
X296638857Y-118132619D01*
X296638857Y-118061190D01*
X296662666Y-118013571D01*
X296710285Y-117989761D01*
X296972190Y-117989761D01*
X296710285Y-117989761D02*
X296662666Y-117965952D01*
X296638857Y-117918333D01*
X296638857Y-117846904D01*
X296662666Y-117799285D01*
X296710285Y-117775476D01*
X296972190Y-117775476D01*
X296972190Y-117537380D02*
X296638857Y-117537380D01*
X296686476Y-117537380D02*
X296662666Y-117513571D01*
X296638857Y-117465952D01*
X296638857Y-117394523D01*
X296662666Y-117346904D01*
X296710285Y-117323095D01*
X296972190Y-117323095D01*
X296710285Y-117323095D02*
X296662666Y-117299285D01*
X296638857Y-117251666D01*
X296638857Y-117180238D01*
X296662666Y-117132619D01*
X296710285Y-117108809D01*
X296972190Y-117108809D01*
D10*
X301784095Y-124326666D02*
X302260285Y-124326666D01*
X301688857Y-124612380D02*
X302022190Y-123612380D01*
X302355523Y-124612380D01*
X302688857Y-123945714D02*
X302688857Y-124612380D01*
X302688857Y-124040952D02*
X302736476Y-123993333D01*
X302831714Y-123945714D01*
X302974571Y-123945714D01*
X303069809Y-123993333D01*
X303117428Y-124088571D01*
X303117428Y-124612380D01*
X303450761Y-123945714D02*
X303831714Y-123945714D01*
X303593619Y-123612380D02*
X303593619Y-124469523D01*
X303641238Y-124564761D01*
X303736476Y-124612380D01*
X303831714Y-124612380D01*
X304546000Y-124564761D02*
X304450761Y-124612380D01*
X304260285Y-124612380D01*
X304165047Y-124564761D01*
X304117428Y-124469523D01*
X304117428Y-124088571D01*
X304165047Y-123993333D01*
X304260285Y-123945714D01*
X304450761Y-123945714D01*
X304546000Y-123993333D01*
X304593619Y-124088571D01*
X304593619Y-124183809D01*
X304117428Y-124279047D01*
X305022190Y-123945714D02*
X305022190Y-124612380D01*
X305022190Y-124040952D02*
X305069809Y-123993333D01*
X305165047Y-123945714D01*
X305307904Y-123945714D01*
X305403142Y-123993333D01*
X305450761Y-124088571D01*
X305450761Y-124612380D01*
X305926952Y-123945714D02*
X305926952Y-124612380D01*
X305926952Y-124040952D02*
X305974571Y-123993333D01*
X306069809Y-123945714D01*
X306212666Y-123945714D01*
X306307904Y-123993333D01*
X306355523Y-124088571D01*
X306355523Y-124612380D01*
X307260285Y-124612380D02*
X307260285Y-124088571D01*
X307212666Y-123993333D01*
X307117428Y-123945714D01*
X306926952Y-123945714D01*
X306831714Y-123993333D01*
X307260285Y-124564761D02*
X307165047Y-124612380D01*
X306926952Y-124612380D01*
X306831714Y-124564761D01*
X306784095Y-124469523D01*
X306784095Y-124374285D01*
X306831714Y-124279047D01*
X306926952Y-124231428D01*
X307165047Y-124231428D01*
X307260285Y-124183809D01*
D11*
X296146000Y-121160000D02*
X295946000Y-120960000D01*
X296146000Y-121160000D02*
X296146000Y-116560000D01*
X318346000Y-123285000D02*
X318146000Y-123485000D01*
X290746000Y-123285000D02*
X290946000Y-123085000D01*
X296146000Y-116560000D02*
X295946000Y-116760000D01*
X295346000Y-123285000D02*
X295146000Y-123485000D01*
X313746000Y-123285000D02*
X313946000Y-123485000D01*
X318346000Y-123285000D02*
X313746000Y-123285000D01*
X313746000Y-123285000D02*
X313946000Y-123085000D01*
X295346000Y-123285000D02*
X290746000Y-123285000D01*
X295346000Y-123285000D02*
X295146000Y-123085000D01*
X296146000Y-121160000D02*
X296346000Y-120960000D01*
X296146000Y-116560000D02*
X296346000Y-116760000D01*
X290746000Y-123285000D02*
X290946000Y-123485000D01*
X318346000Y-123285000D02*
X318146000Y-123085000D01*
%TD*%
M02*
