M48
; DRILL file {KiCad (6.0.8)} date Mon Dec 26 14:05:03 2022
; FORMAT={-:-/ absolute / inch / decimal}
; #@! TF.CreationDate,2022-12-26T14:05:03+00:00
; #@! TF.GenerationSoftware,Kicad,Pcbnew,(6.0.8)
; #@! TF.FileFunction,Plated,1,2,PTH
FMAT,2
INCH
; #@! TA.AperFunction,Plated,PTH,ComponentDrill
T1C0.0118
; #@! TA.AperFunction,Plated,PTH,ViaDrill
T2C0.0157
; #@! TA.AperFunction,Plated,PTH,ComponentDrill
T3C0.0315
; #@! TA.AperFunction,Plated,PTH,ComponentDrill
T4C0.0394
%
G90
G05
T1
X11.9567Y-5.3342
X11.9567Y-5.3942
X11.9868Y-5.3041
X11.9868Y-5.3642
X11.9868Y-5.4242
X12.0168Y-5.3342
X12.0168Y-5.3942
X12.0468Y-5.3041
X12.0468Y-5.3642
X12.0468Y-5.4242
X12.0768Y-5.3342
X12.0768Y-5.3942
T2
X9.9402Y-5.2598
X10.57Y-5.16
X10.57Y-5.36
X10.7102Y-5.2598
X11.32Y-5.48
X11.32Y-5.71
X11.41Y-5.67
X11.78Y-5.59
X11.87Y-5.57
X11.92Y-5.87
X11.97Y-5.99
X12.01Y-5.09
X12.05Y-5.93
X12.2002Y-5.2598
X12.24Y-5.05
X12.7902Y-5.2598
X13.06Y-5.33
X13.63Y-4.73
T3
X10.88Y-5.4535
X10.88Y-5.5496
X10.88Y-5.6457
T4
X3.12Y-5.1598
X3.12Y-5.2598
X3.12Y-5.3598
X3.12Y-5.4598
X3.12Y-5.5598
X8.12Y-5.1598
X8.12Y-5.2598
X8.12Y-5.3598
X8.12Y-5.4598
X8.12Y-5.5598
X8.24Y-5.1598
X8.24Y-5.2598
X8.24Y-5.3598
X8.24Y-5.4598
X8.24Y-5.5598
X10.77Y-4.6704
X10.77Y-4.7704
X10.77Y-4.8704
X10.77Y-4.9704
X11.1162Y-5.81
X11.2162Y-5.81
X11.3162Y-5.81
X11.4162Y-5.81
X13.16Y-5.8102
X13.16Y-5.9102
X13.2425Y-5.1598
X13.2425Y-5.2598
X13.2425Y-5.3598
X13.2425Y-5.4598
X13.2425Y-5.5598
T4
G00X13.4961Y-5.8504
M15
G01X13.4961Y-5.7717
M16
G05
G00X13.6535Y-5.626
M15
G01X13.5748Y-5.626
M16
G05
G00X13.7323Y-5.8504
M15
G01X13.7323Y-5.7717
M16
G05
T0
M30
