%TF.GenerationSoftware,KiCad,Pcbnew,(6.0.8)*%
%TF.CreationDate,2022-12-26T14:05:03+00:00*%
%TF.ProjectId,Display_LED,44697370-6c61-4795-9f4c-45442e6b6963,1*%
%TF.SameCoordinates,Original*%
%TF.FileFunction,Soldermask,Top*%
%TF.FilePolarity,Negative*%
%FSLAX46Y46*%
G04 Gerber Fmt 4.6, Leading zero omitted, Abs format (unit mm)*
G04 Created by KiCad (PCBNEW (6.0.8)) date 2022-12-26 14:05:03*
%MOMM*%
%LPD*%
G01*
G04 APERTURE LIST*
G04 Aperture macros list*
%AMRoundRect*
0 Rectangle with rounded corners*
0 $1 Rounding radius*
0 $2 $3 $4 $5 $6 $7 $8 $9 X,Y pos of 4 corners*
0 Add a 4 corners polygon primitive as box body*
4,1,4,$2,$3,$4,$5,$6,$7,$8,$9,$2,$3,0*
0 Add four circle primitives for the rounded corners*
1,1,$1+$1,$2,$3*
1,1,$1+$1,$4,$5*
1,1,$1+$1,$6,$7*
1,1,$1+$1,$8,$9*
0 Add four rect primitives between the rounded corners*
20,1,$1+$1,$2,$3,$4,$5,0*
20,1,$1+$1,$4,$5,$6,$7,0*
20,1,$1+$1,$6,$7,$8,$9,0*
20,1,$1+$1,$8,$9,$2,$3,0*%
G04 Aperture macros list end*
%ADD10R,1.700000X1.700000*%
%ADD11O,1.700000X1.700000*%
%ADD12R,2.000000X1.500000*%
%ADD13R,2.000000X3.800000*%
%ADD14RoundRect,0.250000X0.475000X-0.250000X0.475000X0.250000X-0.475000X0.250000X-0.475000X-0.250000X0*%
%ADD15RoundRect,0.250000X-1.500000X-0.550000X1.500000X-0.550000X1.500000X0.550000X-1.500000X0.550000X0*%
%ADD16R,3.500000X3.500000*%
%ADD17RoundRect,0.750000X0.750000X1.000000X-0.750000X1.000000X-0.750000X-1.000000X0.750000X-1.000000X0*%
%ADD18RoundRect,0.875000X0.875000X0.875000X-0.875000X0.875000X-0.875000X-0.875000X0.875000X-0.875000X0*%
%ADD19R,1.200000X0.800000*%
%ADD20C,1.500000*%
%ADD21C,0.800000*%
G04 APERTURE END LIST*
D10*
%TO.C,J8*%
X273558000Y-118628000D03*
D11*
X273558000Y-121168000D03*
X273558000Y-123708000D03*
X273558000Y-126248000D03*
%TD*%
D12*
%TO.C,U1*%
X342956000Y-125970000D03*
X342956000Y-128270000D03*
X342956000Y-130570000D03*
D13*
X349256000Y-128270000D03*
%TD*%
D14*
%TO.C,C2*%
X339852000Y-120330000D03*
X339852000Y-118430000D03*
%TD*%
D15*
%TO.C,C1*%
X344164000Y-136144000D03*
X349764000Y-136144000D03*
%TD*%
D12*
%TO.C,U2*%
X342956000Y-117902000D03*
D13*
X349256000Y-120202000D03*
D12*
X342956000Y-120202000D03*
X342956000Y-122502000D03*
%TD*%
D10*
%TO.C,J3*%
X79248000Y-141219000D03*
D11*
X79248000Y-138679000D03*
X79248000Y-136139000D03*
X79248000Y-133599000D03*
X79248000Y-131059000D03*
%TD*%
D16*
%TO.C,J1*%
X342800000Y-147600000D03*
D17*
X348800000Y-147600000D03*
D18*
X345800000Y-142900000D03*
%TD*%
D10*
%TO.C,J4*%
X206248000Y-141219000D03*
D11*
X206248000Y-138679000D03*
X206248000Y-136139000D03*
X206248000Y-133599000D03*
X206248000Y-131059000D03*
%TD*%
D10*
%TO.C,J7*%
X334264000Y-150119000D03*
D11*
X334264000Y-147579000D03*
%TD*%
D10*
%TO.C,J6*%
X336360000Y-141219000D03*
D11*
X336360000Y-138679000D03*
X336360000Y-136139000D03*
X336360000Y-133599000D03*
X336360000Y-131059000D03*
%TD*%
D10*
%TO.C,J5*%
X209296000Y-141219000D03*
D11*
X209296000Y-138679000D03*
X209296000Y-136139000D03*
X209296000Y-133599000D03*
X209296000Y-131059000D03*
%TD*%
D19*
%TO.C,D1*%
X340614000Y-142964000D03*
X340614000Y-144564000D03*
%TD*%
D20*
%TO.C,Y1*%
X276352000Y-138520000D03*
X276352000Y-140960000D03*
X276352000Y-143400000D03*
%TD*%
D10*
%TO.C,J2*%
X289972000Y-147574000D03*
D11*
X287432000Y-147574000D03*
X284892000Y-147574000D03*
X282352000Y-147574000D03*
%TD*%
D21*
X310896000Y-128270000D03*
X305054000Y-129286000D03*
X252481000Y-133599000D03*
X272039000Y-133599000D03*
X309885000Y-133599000D03*
X324871000Y-133599000D03*
X331724000Y-135382000D03*
X287528000Y-139192000D03*
X346202000Y-120142000D03*
X268478000Y-136144000D03*
X268478000Y-131064000D03*
X287528000Y-145034000D03*
X301498000Y-141478000D03*
X299212000Y-141986000D03*
X289814000Y-144018000D03*
X306070000Y-150622000D03*
X304038000Y-152146000D03*
X302768000Y-149098000D03*
M02*
