%TF.GenerationSoftware,KiCad,Pcbnew,(6.0.8)*%
%TF.CreationDate,2022-12-26T14:05:03+00:00*%
%TF.ProjectId,Display_LED,44697370-6c61-4795-9f4c-45442e6b6963,1*%
%TF.SameCoordinates,Original*%
%TF.FileFunction,Copper,L2,Bot*%
%TF.FilePolarity,Positive*%
%FSLAX46Y46*%
G04 Gerber Fmt 4.6, Leading zero omitted, Abs format (unit mm)*
G04 Created by KiCad (PCBNEW (6.0.8)) date 2022-12-26 14:05:03*
%MOMM*%
%LPD*%
G01*
G04 APERTURE LIST*
G04 Aperture macros list*
%AMRoundRect*
0 Rectangle with rounded corners*
0 $1 Rounding radius*
0 $2 $3 $4 $5 $6 $7 $8 $9 X,Y pos of 4 corners*
0 Add a 4 corners polygon primitive as box body*
4,1,4,$2,$3,$4,$5,$6,$7,$8,$9,$2,$3,0*
0 Add four circle primitives for the rounded corners*
1,1,$1+$1,$2,$3*
1,1,$1+$1,$4,$5*
1,1,$1+$1,$6,$7*
1,1,$1+$1,$8,$9*
0 Add four rect primitives between the rounded corners*
20,1,$1+$1,$2,$3,$4,$5,0*
20,1,$1+$1,$4,$5,$6,$7,0*
20,1,$1+$1,$6,$7,$8,$9,0*
20,1,$1+$1,$8,$9,$2,$3,0*%
G04 Aperture macros list end*
%TA.AperFunction,ComponentPad*%
%ADD10R,1.700000X1.700000*%
%TD*%
%TA.AperFunction,ComponentPad*%
%ADD11O,1.700000X1.700000*%
%TD*%
%TA.AperFunction,ComponentPad*%
%ADD12R,3.500000X3.500000*%
%TD*%
%TA.AperFunction,ComponentPad*%
%ADD13RoundRect,0.750000X0.750000X1.000000X-0.750000X1.000000X-0.750000X-1.000000X0.750000X-1.000000X0*%
%TD*%
%TA.AperFunction,ComponentPad*%
%ADD14RoundRect,0.875000X0.875000X0.875000X-0.875000X0.875000X-0.875000X-0.875000X0.875000X-0.875000X0*%
%TD*%
%TA.AperFunction,SMDPad,CuDef*%
%ADD15RoundRect,0.250000X0.450000X-0.262500X0.450000X0.262500X-0.450000X0.262500X-0.450000X-0.262500X0*%
%TD*%
%TA.AperFunction,SMDPad,CuDef*%
%ADD16RoundRect,0.250000X-0.250000X-0.475000X0.250000X-0.475000X0.250000X0.475000X-0.250000X0.475000X0*%
%TD*%
%TA.AperFunction,ComponentPad*%
%ADD17C,1.500000*%
%TD*%
%TA.AperFunction,SMDPad,CuDef*%
%ADD18RoundRect,0.150000X-0.587500X-0.150000X0.587500X-0.150000X0.587500X0.150000X-0.587500X0.150000X0*%
%TD*%
%TA.AperFunction,SMDPad,CuDef*%
%ADD19RoundRect,0.250000X-0.262500X-0.450000X0.262500X-0.450000X0.262500X0.450000X-0.262500X0.450000X0*%
%TD*%
%TA.AperFunction,SMDPad,CuDef*%
%ADD20R,0.700000X0.450000*%
%TD*%
%TA.AperFunction,SMDPad,CuDef*%
%ADD21RoundRect,0.150000X0.150000X-0.825000X0.150000X0.825000X-0.150000X0.825000X-0.150000X-0.825000X0*%
%TD*%
%TA.AperFunction,SMDPad,CuDef*%
%ADD22R,1.500000X0.900000*%
%TD*%
%TA.AperFunction,SMDPad,CuDef*%
%ADD23R,0.900000X1.500000*%
%TD*%
%TA.AperFunction,ComponentPad*%
%ADD24C,0.475000*%
%TD*%
%TA.AperFunction,SMDPad,CuDef*%
%ADD25R,1.050000X1.050000*%
%TD*%
%TA.AperFunction,SMDPad,CuDef*%
%ADD26R,4.200000X4.200000*%
%TD*%
%TA.AperFunction,SMDPad,CuDef*%
%ADD27RoundRect,0.250000X0.262500X0.450000X-0.262500X0.450000X-0.262500X-0.450000X0.262500X-0.450000X0*%
%TD*%
%TA.AperFunction,ViaPad*%
%ADD28C,0.800000*%
%TD*%
%TA.AperFunction,Conductor*%
%ADD29C,0.800000*%
%TD*%
%TA.AperFunction,Conductor*%
%ADD30C,0.400000*%
%TD*%
%TA.AperFunction,Conductor*%
%ADD31C,0.250000*%
%TD*%
%TA.AperFunction,Conductor*%
%ADD32C,1.400000*%
%TD*%
G04 APERTURE END LIST*
D10*
%TO.P,J8,1,Pin_1*%
%TO.N,Earth*%
X273558000Y-118628000D03*
D11*
%TO.P,J8,2,Pin_2*%
%TO.N,unconnected-(J8-Pad2)*%
X273558000Y-121168000D03*
%TO.P,J8,3,Pin_3*%
%TO.N,DATA*%
X273558000Y-123708000D03*
%TO.P,J8,4,Pin_4*%
%TO.N,+3.3V*%
X273558000Y-126248000D03*
%TD*%
D10*
%TO.P,J3,1,Pin_1*%
%TO.N,SPI_CLK*%
X79248000Y-141219000D03*
D11*
%TO.P,J3,2,Pin_2*%
%TO.N,SPI_CS*%
X79248000Y-138679000D03*
%TO.P,J3,3,Pin_3*%
%TO.N,unconnected-(J3-Pad3)*%
X79248000Y-136139000D03*
%TO.P,J3,4,Pin_4*%
%TO.N,Earth*%
X79248000Y-133599000D03*
%TO.P,J3,5,Pin_5*%
%TO.N,+5V*%
X79248000Y-131059000D03*
%TD*%
D12*
%TO.P,J1,1*%
%TO.N,Net-(D1-Pad2)*%
X342800000Y-147600000D03*
D13*
%TO.P,J1,2*%
%TO.N,Earth*%
X348800000Y-147600000D03*
D14*
%TO.P,J1,3*%
%TO.N,N/C*%
X345800000Y-142900000D03*
%TD*%
D10*
%TO.P,J4,1,Pin_1*%
%TO.N,SPI_CLK*%
X206248000Y-141219000D03*
D11*
%TO.P,J4,2,Pin_2*%
%TO.N,SPI_CS*%
X206248000Y-138679000D03*
%TO.P,J4,3,Pin_3*%
%TO.N,Net-(J4-Pad3)*%
X206248000Y-136139000D03*
%TO.P,J4,4,Pin_4*%
%TO.N,Earth*%
X206248000Y-133599000D03*
%TO.P,J4,5,Pin_5*%
%TO.N,+5V*%
X206248000Y-131059000D03*
%TD*%
D10*
%TO.P,J7,1,Pin_1*%
%TO.N,12v*%
X334264000Y-150119000D03*
D11*
%TO.P,J7,2,Pin_2*%
%TO.N,Net-(J7-Pad2)*%
X334264000Y-147579000D03*
%TD*%
D10*
%TO.P,J6,1,Pin_1*%
%TO.N,SPI_CLK*%
X336360000Y-141219000D03*
D11*
%TO.P,J6,2,Pin_2*%
%TO.N,SPI_CS*%
X336360000Y-138679000D03*
%TO.P,J6,3,Pin_3*%
%TO.N,SPI_DO*%
X336360000Y-136139000D03*
%TO.P,J6,4,Pin_4*%
%TO.N,Earth*%
X336360000Y-133599000D03*
%TO.P,J6,5,Pin_5*%
%TO.N,+5V*%
X336360000Y-131059000D03*
%TD*%
D10*
%TO.P,J5,1,Pin_1*%
%TO.N,SPI_CLK*%
X209296000Y-141219000D03*
D11*
%TO.P,J5,2,Pin_2*%
%TO.N,SPI_CS*%
X209296000Y-138679000D03*
%TO.P,J5,3,Pin_3*%
%TO.N,Net-(J4-Pad3)*%
X209296000Y-136139000D03*
%TO.P,J5,4,Pin_4*%
%TO.N,Earth*%
X209296000Y-133599000D03*
%TO.P,J5,5,Pin_5*%
%TO.N,+5V*%
X209296000Y-131059000D03*
%TD*%
D15*
%TO.P,R2,1*%
%TO.N,EN*%
X316748000Y-131530500D03*
%TO.P,R2,2*%
%TO.N,+3.3V*%
X316748000Y-129705500D03*
%TD*%
D16*
%TO.P,C4,1*%
%TO.N,Net-(C4-Pad1)*%
X275656000Y-133604000D03*
%TO.P,C4,2*%
%TO.N,Earth*%
X277556000Y-133604000D03*
%TD*%
D17*
%TO.P,Y1,1,1*%
%TO.N,Net-(C4-Pad1)*%
X276352000Y-138520000D03*
%TO.P,Y1,2,2*%
%TO.N,Earth*%
X276352000Y-140960000D03*
%TO.P,Y1,3,3*%
%TO.N,Net-(C5-Pad1)*%
X276352000Y-143400000D03*
%TD*%
D10*
%TO.P,J2,1,Pin_1*%
%TO.N,Earth*%
X289972000Y-147574000D03*
D11*
%TO.P,J2,2,Pin_2*%
%TO.N,D+*%
X287432000Y-147574000D03*
%TO.P,J2,3,Pin_3*%
%TO.N,D-*%
X284892000Y-147574000D03*
%TO.P,J2,4,Pin_4*%
%TO.N,+5V*%
X282352000Y-147574000D03*
%TD*%
D16*
%TO.P,C5,1*%
%TO.N,Net-(C5-Pad1)*%
X275316000Y-148624000D03*
%TO.P,C5,2*%
%TO.N,Earth*%
X277216000Y-148624000D03*
%TD*%
D18*
%TO.P,Q1,1,B*%
%TO.N,Net-(Q1-Pad1)*%
X317578500Y-141920000D03*
%TO.P,Q1,2,E*%
%TO.N,Earth*%
X317578500Y-140020000D03*
%TO.P,Q1,3,C*%
%TO.N,Net-(J7-Pad2)*%
X319453500Y-140970000D03*
%TD*%
D19*
%TO.P,R3,1*%
%TO.N,RST*%
X285545500Y-133530000D03*
%TO.P,R3,2*%
%TO.N,Net-(Q2-Pad1)*%
X287370500Y-133530000D03*
%TD*%
D20*
%TO.P,Q3,1,B*%
%TO.N,Net-(Q3-Pad1)*%
X285298000Y-130466000D03*
%TO.P,Q3,2,E*%
%TO.N,RST*%
X285298000Y-131766000D03*
%TO.P,Q3,3,C*%
%TO.N,EN*%
X283298000Y-131116000D03*
%TD*%
D16*
%TO.P,C6,1*%
%TO.N,+3.3V*%
X319090000Y-129286000D03*
%TO.P,C6,2*%
%TO.N,Earth*%
X320990000Y-129286000D03*
%TD*%
D21*
%TO.P,U4,1,GND*%
%TO.N,Earth*%
X290957000Y-141921000D03*
%TO.P,U4,2,TXD*%
%TO.N,TX*%
X289687000Y-141921000D03*
%TO.P,U4,3,RXD*%
%TO.N,RX*%
X288417000Y-141921000D03*
%TO.P,U4,4,V3*%
%TO.N,+3.3V*%
X287147000Y-141921000D03*
%TO.P,U4,5,UD+*%
%TO.N,D+*%
X285877000Y-141921000D03*
%TO.P,U4,6,UD-*%
%TO.N,D-*%
X284607000Y-141921000D03*
%TO.P,U4,7,XI*%
%TO.N,Net-(C4-Pad1)*%
X283337000Y-141921000D03*
%TO.P,U4,8,XO*%
%TO.N,Net-(C5-Pad1)*%
X282067000Y-141921000D03*
%TO.P,U4,9,~{CTS}*%
%TO.N,unconnected-(U4-Pad9)*%
X282067000Y-136971000D03*
%TO.P,U4,10,~{DSR}*%
%TO.N,unconnected-(U4-Pad10)*%
X283337000Y-136971000D03*
%TO.P,U4,11,~{RI}*%
%TO.N,unconnected-(U4-Pad11)*%
X284607000Y-136971000D03*
%TO.P,U4,12,~{DCD}*%
%TO.N,unconnected-(U4-Pad12)*%
X285877000Y-136971000D03*
%TO.P,U4,13,~{DTR}*%
%TO.N,DTR*%
X287147000Y-136971000D03*
%TO.P,U4,14,~{RTS}*%
%TO.N,RST*%
X288417000Y-136971000D03*
%TO.P,U4,15,R232*%
%TO.N,unconnected-(U4-Pad15)*%
X289687000Y-136971000D03*
%TO.P,U4,16,VCC*%
%TO.N,+3.3V*%
X290957000Y-136971000D03*
%TD*%
D22*
%TO.P,U3,1,GND*%
%TO.N,Earth*%
X313296000Y-128910000D03*
%TO.P,U3,2,VDD*%
%TO.N,+3.3V*%
X313296000Y-130180000D03*
%TO.P,U3,3,EN*%
%TO.N,EN*%
X313296000Y-131450000D03*
%TO.P,U3,4,SENSOR_VP*%
%TO.N,unconnected-(U3-Pad4)*%
X313296000Y-132720000D03*
%TO.P,U3,5,SENSOR_VN*%
%TO.N,unconnected-(U3-Pad5)*%
X313296000Y-133990000D03*
%TO.P,U3,6,IO34*%
%TO.N,unconnected-(U3-Pad6)*%
X313296000Y-135260000D03*
%TO.P,U3,7,IO35*%
%TO.N,unconnected-(U3-Pad7)*%
X313296000Y-136530000D03*
%TO.P,U3,8,IO32*%
%TO.N,unconnected-(U3-Pad8)*%
X313296000Y-137800000D03*
%TO.P,U3,9,IO33*%
%TO.N,unconnected-(U3-Pad9)*%
X313296000Y-139070000D03*
%TO.P,U3,10,IO25*%
%TO.N,unconnected-(U3-Pad10)*%
X313296000Y-140340000D03*
%TO.P,U3,11,IO26*%
%TO.N,unconnected-(U3-Pad11)*%
X313296000Y-141610000D03*
%TO.P,U3,12,IO27*%
%TO.N,unconnected-(U3-Pad12)*%
X313296000Y-142880000D03*
%TO.P,U3,13,IO14*%
%TO.N,unconnected-(U3-Pad13)*%
X313296000Y-144150000D03*
%TO.P,U3,14,IO12*%
%TO.N,Net-(R1-Pad1)*%
X313296000Y-145420000D03*
D23*
%TO.P,U3,15,GND*%
%TO.N,Earth*%
X310256000Y-146670000D03*
%TO.P,U3,16,IO13*%
%TO.N,unconnected-(U3-Pad16)*%
X308986000Y-146670000D03*
%TO.P,U3,17,SHD/SD2*%
%TO.N,unconnected-(U3-Pad17)*%
X307716000Y-146670000D03*
%TO.P,U3,18,SWP/SD3*%
%TO.N,unconnected-(U3-Pad18)*%
X306446000Y-146670000D03*
%TO.P,U3,19,SCS/CMD*%
%TO.N,SPI_CS*%
X305176000Y-146670000D03*
%TO.P,U3,20,SCK/CLK*%
%TO.N,SPI_CLK*%
X303906000Y-146670000D03*
%TO.P,U3,21,SDO/SD0*%
%TO.N,SPI_DO*%
X302636000Y-146670000D03*
%TO.P,U3,22,SDI/SD1*%
%TO.N,unconnected-(U3-Pad22)*%
X301366000Y-146670000D03*
%TO.P,U3,23,IO15*%
%TO.N,unconnected-(U3-Pad23)*%
X300096000Y-146670000D03*
%TO.P,U3,24,IO2*%
%TO.N,DATA*%
X298826000Y-146670000D03*
D22*
%TO.P,U3,25,IO0*%
%TO.N,100*%
X295796000Y-145420000D03*
%TO.P,U3,26,IO4*%
%TO.N,unconnected-(U3-Pad26)*%
X295796000Y-144150000D03*
%TO.P,U3,27,IO16*%
%TO.N,unconnected-(U3-Pad27)*%
X295796000Y-142880000D03*
%TO.P,U3,28,IO17*%
%TO.N,unconnected-(U3-Pad28)*%
X295796000Y-141610000D03*
%TO.P,U3,29,IO5*%
%TO.N,unconnected-(U3-Pad29)*%
X295796000Y-140340000D03*
%TO.P,U3,30,IO18*%
%TO.N,unconnected-(U3-Pad30)*%
X295796000Y-139070000D03*
%TO.P,U3,31,IO19*%
%TO.N,unconnected-(U3-Pad31)*%
X295796000Y-137800000D03*
%TO.P,U3,32,NC*%
%TO.N,unconnected-(U3-Pad32)*%
X295796000Y-136530000D03*
%TO.P,U3,33,IO21*%
%TO.N,unconnected-(U3-Pad33)*%
X295796000Y-135260000D03*
%TO.P,U3,34,RXD0/IO3*%
%TO.N,TX*%
X295796000Y-133990000D03*
%TO.P,U3,35,TXD0/IO1*%
%TO.N,RX*%
X295796000Y-132720000D03*
%TO.P,U3,36,IO22*%
%TO.N,unconnected-(U3-Pad36)*%
X295796000Y-131450000D03*
%TO.P,U3,37,IO23*%
%TO.N,unconnected-(U3-Pad37)*%
X295796000Y-130180000D03*
%TO.P,U3,38,GND*%
%TO.N,Earth*%
X295796000Y-128910000D03*
D24*
%TO.P,U3,39,GND*%
X303701000Y-137012500D03*
X304463500Y-134725000D03*
D25*
X305226000Y-134725000D03*
X306751000Y-136250000D03*
D26*
X305226000Y-136250000D03*
D24*
X305988500Y-137775000D03*
D25*
X305226000Y-137775000D03*
X303701000Y-137775000D03*
X306751000Y-134725000D03*
D24*
X305226000Y-135487500D03*
X305988500Y-136250000D03*
X306751000Y-137012500D03*
X305226000Y-137012500D03*
X303701000Y-135487500D03*
D25*
X303701000Y-134725000D03*
X305226000Y-136250000D03*
D24*
X306751000Y-135487500D03*
X305988500Y-134725000D03*
D25*
X303701000Y-136250000D03*
D24*
X304463500Y-137775000D03*
X304463500Y-136250000D03*
D25*
X306751000Y-137775000D03*
%TD*%
D27*
%TO.P,R4,1*%
%TO.N,DTR*%
X288004500Y-128704000D03*
%TO.P,R4,2*%
%TO.N,Net-(Q3-Pad1)*%
X286179500Y-128704000D03*
%TD*%
D16*
%TO.P,C3,1*%
%TO.N,EN*%
X319080000Y-132010000D03*
%TO.P,C3,2*%
%TO.N,Earth*%
X320980000Y-132010000D03*
%TD*%
D20*
%TO.P,Q2,1,B*%
%TO.N,Net-(Q2-Pad1)*%
X287616000Y-131856000D03*
%TO.P,Q2,2,E*%
%TO.N,DTR*%
X287616000Y-130556000D03*
%TO.P,Q2,3,C*%
%TO.N,100*%
X289616000Y-131206000D03*
%TD*%
D15*
%TO.P,R1,1*%
%TO.N,Net-(R1-Pad1)*%
X317500000Y-145438500D03*
%TO.P,R1,2*%
%TO.N,Net-(Q1-Pad1)*%
X317500000Y-143613500D03*
%TD*%
D28*
%TO.N,Earth*%
X310896000Y-128270000D03*
X305054000Y-129286000D03*
X252481000Y-133599000D03*
X272039000Y-133599000D03*
X309885000Y-133599000D03*
X324871000Y-133599000D03*
%TO.N,+3.3V*%
X331724000Y-135382000D03*
X287528000Y-139192000D03*
X346202000Y-120142000D03*
%TO.N,+5V*%
X268478000Y-136144000D03*
X268478000Y-131064000D03*
%TO.N,RX*%
X287528000Y-145034000D03*
X301498000Y-141478000D03*
%TO.N,TX*%
X299212000Y-141986000D03*
X289814000Y-144018000D03*
%TO.N,SPI_CS*%
X306070000Y-150622000D03*
%TO.N,SPI_CLK*%
X304038000Y-152146000D03*
%TO.N,SPI_DO*%
X302768000Y-149098000D03*
%TD*%
D29*
%TO.N,Earth*%
X309367000Y-133599000D02*
X305054000Y-129286000D01*
X309885000Y-133599000D02*
X309367000Y-133599000D01*
D30*
%TO.N,+3.3V*%
X279136000Y-126248000D02*
X273558000Y-126248000D01*
X289814000Y-115570000D02*
X279136000Y-126248000D01*
X328168000Y-115570000D02*
X289814000Y-115570000D01*
X332740000Y-120142000D02*
X328168000Y-115570000D01*
D31*
%TO.N,DATA*%
X261366000Y-150622000D02*
X261366000Y-127508000D01*
X261366000Y-127508000D02*
X265166000Y-123708000D01*
X263398000Y-152654000D02*
X261366000Y-150622000D01*
X265166000Y-123708000D02*
X273558000Y-123708000D01*
X296418000Y-152654000D02*
X263398000Y-152654000D01*
X298826000Y-150246000D02*
X296418000Y-152654000D01*
X298826000Y-146670000D02*
X298826000Y-150246000D01*
D30*
%TO.N,Net-(Q1-Pad1)*%
X317500000Y-143613500D02*
X317500000Y-141998500D01*
X317500000Y-141998500D02*
X317578500Y-141920000D01*
%TO.N,+3.3V*%
X315214000Y-129540000D02*
X316582500Y-129540000D01*
X290576000Y-138938000D02*
X290957000Y-138557000D01*
X332740000Y-120142000D02*
X346202000Y-120142000D01*
X287147000Y-141921000D02*
X287147000Y-139573000D01*
X314574000Y-130180000D02*
X315214000Y-129540000D01*
X331724000Y-135382000D02*
X331724000Y-121158000D01*
X316748000Y-129705500D02*
X318924500Y-129705500D01*
X318924500Y-129705500D02*
X319090000Y-129540000D01*
X287782000Y-138938000D02*
X290576000Y-138938000D01*
X313296000Y-130180000D02*
X314574000Y-130180000D01*
X320294000Y-127254000D02*
X327406000Y-120142000D01*
X319090000Y-128458000D02*
X320294000Y-127254000D01*
X316582500Y-129540000D02*
X316748000Y-129705500D01*
X319090000Y-129540000D02*
X319090000Y-128458000D01*
X331724000Y-121158000D02*
X332740000Y-120142000D01*
X290957000Y-138557000D02*
X290957000Y-136971000D01*
X327406000Y-120142000D02*
X332740000Y-120142000D01*
X287528000Y-139192000D02*
X287782000Y-138938000D01*
X287147000Y-139573000D02*
X287528000Y-139192000D01*
D32*
%TO.N,+5V*%
X268478000Y-136144000D02*
X268478000Y-131064000D01*
D30*
%TO.N,RST*%
X285545500Y-133370000D02*
X285545500Y-133507500D01*
X285545500Y-133530000D02*
X285545500Y-134161500D01*
X285298000Y-131766000D02*
X285298000Y-133122500D01*
X287964000Y-134802000D02*
X288417000Y-135255000D01*
X285545500Y-134161500D02*
X286186000Y-134802000D01*
X288417000Y-135255000D02*
X288417000Y-136971000D01*
X285298000Y-133122500D02*
X285545500Y-133370000D01*
X286186000Y-134802000D02*
X287964000Y-134802000D01*
%TO.N,RX*%
X298582000Y-132720000D02*
X301498000Y-135636000D01*
X301498000Y-135636000D02*
X301498000Y-141478000D01*
X288417000Y-144145000D02*
X288417000Y-141921000D01*
X287528000Y-145034000D02*
X288417000Y-144145000D01*
X295796000Y-132720000D02*
X298582000Y-132720000D01*
%TO.N,TX*%
X289814000Y-144018000D02*
X289814000Y-142048000D01*
X299212000Y-135636000D02*
X297566000Y-133990000D01*
X299212000Y-141986000D02*
X299212000Y-135636000D01*
X297566000Y-133990000D02*
X295796000Y-133990000D01*
X289814000Y-142048000D02*
X289687000Y-141921000D01*
%TO.N,Net-(R1-Pad1)*%
X317481500Y-145420000D02*
X317500000Y-145438500D01*
X313296000Y-145420000D02*
X317481500Y-145420000D01*
%TO.N,EN*%
X316667500Y-131450000D02*
X316748000Y-131530500D01*
X318600500Y-131530500D02*
X319080000Y-132010000D01*
X307340000Y-127508000D02*
X285242000Y-127508000D01*
X313296000Y-131450000D02*
X311282000Y-131450000D01*
X313296000Y-131450000D02*
X316667500Y-131450000D01*
X316748000Y-131530500D02*
X318600500Y-131530500D01*
X285242000Y-127508000D02*
X283298000Y-129452000D01*
X311282000Y-131450000D02*
X307340000Y-127508000D01*
X283298000Y-129452000D02*
X283298000Y-131116000D01*
%TO.N,Net-(Q2-Pad1)*%
X287528000Y-131856000D02*
X287528000Y-133212500D01*
X287528000Y-133212500D02*
X287370500Y-133370000D01*
%TO.N,DTR*%
X286766000Y-135382000D02*
X284734000Y-135382000D01*
X283972000Y-134620000D02*
X283972000Y-131757000D01*
X287147000Y-135763000D02*
X286766000Y-135382000D01*
X287018000Y-130556000D02*
X287528000Y-130556000D01*
X287528000Y-130556000D02*
X287528000Y-129180500D01*
X284658000Y-131071000D02*
X286503000Y-131071000D01*
X284734000Y-135382000D02*
X283972000Y-134620000D01*
X287147000Y-136971000D02*
X287147000Y-135763000D01*
X287528000Y-129180500D02*
X288004500Y-128704000D01*
X286503000Y-131071000D02*
X287018000Y-130556000D01*
X283972000Y-131757000D02*
X284658000Y-131071000D01*
%TO.N,Net-(Q3-Pad1)*%
X285298000Y-130146000D02*
X286138000Y-129306000D01*
X285298000Y-130466000D02*
X285298000Y-130146000D01*
%TO.N,SPI_CS*%
X305176000Y-146670000D02*
X305176000Y-149728000D01*
X305176000Y-149728000D02*
X306070000Y-150622000D01*
%TO.N,SPI_CLK*%
X303906000Y-152014000D02*
X304038000Y-152146000D01*
X303906000Y-146670000D02*
X303906000Y-152014000D01*
%TO.N,SPI_DO*%
X302636000Y-146670000D02*
X302636000Y-148966000D01*
X302636000Y-148966000D02*
X302768000Y-149098000D01*
%TO.N,100*%
X291734000Y-131206000D02*
X289616000Y-131206000D01*
X294010000Y-145420000D02*
X292862000Y-144272000D01*
X292862000Y-144272000D02*
X292862000Y-132334000D01*
X295796000Y-145420000D02*
X294010000Y-145420000D01*
X292862000Y-132334000D02*
X291734000Y-131206000D01*
%TO.N,D+*%
X285877000Y-146019000D02*
X287432000Y-147574000D01*
X285877000Y-141921000D02*
X285877000Y-146019000D01*
%TO.N,D-*%
X284607000Y-147289000D02*
X284892000Y-147574000D01*
X284607000Y-141921000D02*
X284607000Y-147289000D01*
%TO.N,Net-(C4-Pad1)*%
X276352000Y-138176000D02*
X276352000Y-138520000D01*
X282448000Y-139446000D02*
X283337000Y-140335000D01*
X275656000Y-133604000D02*
X275656000Y-137480000D01*
X277278000Y-139446000D02*
X282448000Y-139446000D01*
X283337000Y-140335000D02*
X283337000Y-141921000D01*
X275656000Y-137480000D02*
X276352000Y-138176000D01*
X276352000Y-138520000D02*
X277278000Y-139446000D01*
%TO.N,Net-(C5-Pad1)*%
X281703000Y-143400000D02*
X282067000Y-143036000D01*
X275316000Y-144436000D02*
X276352000Y-143400000D01*
X276352000Y-143400000D02*
X281703000Y-143400000D01*
X282067000Y-143036000D02*
X282067000Y-141921000D01*
X275316000Y-148624000D02*
X275316000Y-144436000D01*
D29*
%TO.N,Net-(J7-Pad2)*%
X327655000Y-140970000D02*
X334264000Y-147579000D01*
X319453500Y-140970000D02*
X327655000Y-140970000D01*
%TD*%
%TA.AperFunction,Conductor*%
%TO.N,Earth*%
G36*
X352293621Y-114468502D02*
G01*
X352340114Y-114522158D01*
X352351500Y-114574500D01*
X352351500Y-154215500D01*
X352331498Y-154283621D01*
X352277842Y-154330114D01*
X352225500Y-154341500D01*
X63464500Y-154341500D01*
X63396379Y-154321498D01*
X63349886Y-154267842D01*
X63338500Y-154215500D01*
X63338500Y-138645695D01*
X77885251Y-138645695D01*
X77885548Y-138650848D01*
X77885548Y-138650851D01*
X77895689Y-138826729D01*
X77898110Y-138868715D01*
X77899247Y-138873761D01*
X77899248Y-138873767D01*
X77916896Y-138952076D01*
X77947222Y-139086639D01*
X78031266Y-139293616D01*
X78067441Y-139352648D01*
X78144049Y-139477661D01*
X78147987Y-139484088D01*
X78294250Y-139652938D01*
X78298230Y-139656242D01*
X78302981Y-139660187D01*
X78342616Y-139719090D01*
X78344113Y-139790071D01*
X78306997Y-139850593D01*
X78266725Y-139875112D01*
X78176631Y-139908887D01*
X78151295Y-139918385D01*
X78034739Y-140005739D01*
X77947385Y-140122295D01*
X77896255Y-140258684D01*
X77889500Y-140320866D01*
X77889500Y-142117134D01*
X77896255Y-142179316D01*
X77947385Y-142315705D01*
X78034739Y-142432261D01*
X78151295Y-142519615D01*
X78287684Y-142570745D01*
X78349866Y-142577500D01*
X80146134Y-142577500D01*
X80208316Y-142570745D01*
X80344705Y-142519615D01*
X80461261Y-142432261D01*
X80548615Y-142315705D01*
X80599745Y-142179316D01*
X80606500Y-142117134D01*
X80606500Y-140320866D01*
X80599745Y-140258684D01*
X80548615Y-140122295D01*
X80461261Y-140005739D01*
X80344705Y-139918385D01*
X80319369Y-139908887D01*
X80226203Y-139873960D01*
X80169439Y-139831318D01*
X80144739Y-139764756D01*
X80159947Y-139695408D01*
X80181493Y-139666727D01*
X80201791Y-139646500D01*
X80286096Y-139562489D01*
X80345594Y-139479689D01*
X80413435Y-139385277D01*
X80416453Y-139381077D01*
X80430504Y-139352648D01*
X80513136Y-139185453D01*
X80513137Y-139185451D01*
X80515430Y-139180811D01*
X80571643Y-138995793D01*
X80578865Y-138972023D01*
X80578865Y-138972021D01*
X80580370Y-138967069D01*
X80609529Y-138745590D01*
X80609815Y-138733894D01*
X80611074Y-138682365D01*
X80611074Y-138682361D01*
X80611156Y-138679000D01*
X80608418Y-138645695D01*
X204885251Y-138645695D01*
X204885548Y-138650848D01*
X204885548Y-138650851D01*
X204895689Y-138826729D01*
X204898110Y-138868715D01*
X204899247Y-138873761D01*
X204899248Y-138873767D01*
X204916896Y-138952076D01*
X204947222Y-139086639D01*
X205031266Y-139293616D01*
X205067441Y-139352648D01*
X205144049Y-139477661D01*
X205147987Y-139484088D01*
X205294250Y-139652938D01*
X205298230Y-139656242D01*
X205302981Y-139660187D01*
X205342616Y-139719090D01*
X205344113Y-139790071D01*
X205306997Y-139850593D01*
X205266725Y-139875112D01*
X205176631Y-139908887D01*
X205151295Y-139918385D01*
X205034739Y-140005739D01*
X204947385Y-140122295D01*
X204896255Y-140258684D01*
X204889500Y-140320866D01*
X204889500Y-142117134D01*
X204896255Y-142179316D01*
X204947385Y-142315705D01*
X205034739Y-142432261D01*
X205151295Y-142519615D01*
X205287684Y-142570745D01*
X205349866Y-142577500D01*
X207146134Y-142577500D01*
X207208316Y-142570745D01*
X207344705Y-142519615D01*
X207461261Y-142432261D01*
X207548615Y-142315705D01*
X207599745Y-142179316D01*
X207606500Y-142117134D01*
X207606500Y-140320866D01*
X207599745Y-140258684D01*
X207548615Y-140122295D01*
X207461261Y-140005739D01*
X207344705Y-139918385D01*
X207319369Y-139908887D01*
X207226203Y-139873960D01*
X207169439Y-139831318D01*
X207144739Y-139764756D01*
X207159947Y-139695408D01*
X207181493Y-139666727D01*
X207201791Y-139646500D01*
X207286096Y-139562489D01*
X207345594Y-139479689D01*
X207413435Y-139385277D01*
X207416453Y-139381077D01*
X207430504Y-139352648D01*
X207513136Y-139185453D01*
X207513137Y-139185451D01*
X207515430Y-139180811D01*
X207571643Y-138995793D01*
X207578865Y-138972023D01*
X207578865Y-138972021D01*
X207580370Y-138967069D01*
X207609529Y-138745590D01*
X207609815Y-138733894D01*
X207611074Y-138682365D01*
X207611074Y-138682361D01*
X207611156Y-138679000D01*
X207608418Y-138645695D01*
X207933251Y-138645695D01*
X207933548Y-138650848D01*
X207933548Y-138650851D01*
X207943689Y-138826729D01*
X207946110Y-138868715D01*
X207947247Y-138873761D01*
X207947248Y-138873767D01*
X207964896Y-138952076D01*
X207995222Y-139086639D01*
X208079266Y-139293616D01*
X208115441Y-139352648D01*
X208192049Y-139477661D01*
X208195987Y-139484088D01*
X208342250Y-139652938D01*
X208346230Y-139656242D01*
X208350981Y-139660187D01*
X208390616Y-139719090D01*
X208392113Y-139790071D01*
X208354997Y-139850593D01*
X208314725Y-139875112D01*
X208224631Y-139908887D01*
X208199295Y-139918385D01*
X208082739Y-140005739D01*
X207995385Y-140122295D01*
X207944255Y-140258684D01*
X207937500Y-140320866D01*
X207937500Y-142117134D01*
X207944255Y-142179316D01*
X207995385Y-142315705D01*
X208082739Y-142432261D01*
X208199295Y-142519615D01*
X208335684Y-142570745D01*
X208397866Y-142577500D01*
X210194134Y-142577500D01*
X210256316Y-142570745D01*
X210392705Y-142519615D01*
X210509261Y-142432261D01*
X210596615Y-142315705D01*
X210647745Y-142179316D01*
X210654500Y-142117134D01*
X210654500Y-140320866D01*
X210647745Y-140258684D01*
X210596615Y-140122295D01*
X210509261Y-140005739D01*
X210392705Y-139918385D01*
X210367369Y-139908887D01*
X210274203Y-139873960D01*
X210217439Y-139831318D01*
X210192739Y-139764756D01*
X210207947Y-139695408D01*
X210229493Y-139666727D01*
X210249791Y-139646500D01*
X210334096Y-139562489D01*
X210393594Y-139479689D01*
X210461435Y-139385277D01*
X210464453Y-139381077D01*
X210478504Y-139352648D01*
X210561136Y-139185453D01*
X210561137Y-139185451D01*
X210563430Y-139180811D01*
X210619643Y-138995793D01*
X210626865Y-138972023D01*
X210626865Y-138972021D01*
X210628370Y-138967069D01*
X210657529Y-138745590D01*
X210657815Y-138733894D01*
X210659074Y-138682365D01*
X210659074Y-138682361D01*
X210659156Y-138679000D01*
X210640852Y-138456361D01*
X210586431Y-138239702D01*
X210497354Y-138034840D01*
X210405810Y-137893334D01*
X210378822Y-137851617D01*
X210378820Y-137851614D01*
X210376014Y-137847277D01*
X210225670Y-137682051D01*
X210221619Y-137678852D01*
X210221615Y-137678848D01*
X210054414Y-137546800D01*
X210054410Y-137546798D01*
X210050359Y-137543598D01*
X210009053Y-137520796D01*
X209959084Y-137470364D01*
X209944312Y-137400921D01*
X209969428Y-137334516D01*
X209996780Y-137307909D01*
X210057472Y-137264618D01*
X210175860Y-137180173D01*
X210221855Y-137134339D01*
X210304855Y-137051628D01*
X210334096Y-137022489D01*
X210369392Y-136973370D01*
X210461435Y-136845277D01*
X210464453Y-136841077D01*
X210501452Y-136766216D01*
X210561136Y-136645453D01*
X210561137Y-136645451D01*
X210563430Y-136640811D01*
X210604489Y-136505671D01*
X210626865Y-136432023D01*
X210626865Y-136432021D01*
X210628370Y-136427069D01*
X210657529Y-136205590D01*
X210657628Y-136201528D01*
X210659074Y-136142365D01*
X210659074Y-136142361D01*
X210659156Y-136139000D01*
X210640852Y-135916361D01*
X210586431Y-135699702D01*
X210497354Y-135494840D01*
X210428602Y-135388565D01*
X210378822Y-135311617D01*
X210378820Y-135311614D01*
X210376014Y-135307277D01*
X210225670Y-135142051D01*
X210221619Y-135138852D01*
X210221615Y-135138848D01*
X210054414Y-135006800D01*
X210054410Y-135006798D01*
X210050359Y-135003598D01*
X210008569Y-134980529D01*
X209958598Y-134930097D01*
X209943826Y-134860654D01*
X209968942Y-134794248D01*
X209996294Y-134767641D01*
X210171328Y-134642792D01*
X210179200Y-134636139D01*
X210330052Y-134485812D01*
X210336730Y-134477965D01*
X210461003Y-134305020D01*
X210466313Y-134296183D01*
X210560670Y-134105267D01*
X210564469Y-134095672D01*
X210626377Y-133891910D01*
X210628555Y-133881837D01*
X210629986Y-133870962D01*
X210627775Y-133856778D01*
X210614617Y-133853000D01*
X207979225Y-133853000D01*
X207965694Y-133856973D01*
X207964257Y-133866966D01*
X207994565Y-134001446D01*
X207997645Y-134011275D01*
X208077770Y-134208603D01*
X208082413Y-134217794D01*
X208193694Y-134399388D01*
X208199777Y-134407699D01*
X208339213Y-134568667D01*
X208346580Y-134575883D01*
X208510434Y-134711916D01*
X208518881Y-134717831D01*
X208587969Y-134758203D01*
X208636693Y-134809842D01*
X208649764Y-134879625D01*
X208623033Y-134945396D01*
X208582584Y-134978752D01*
X208569607Y-134985507D01*
X208565474Y-134988610D01*
X208565471Y-134988612D01*
X208395100Y-135116530D01*
X208390965Y-135119635D01*
X208338783Y-135174240D01*
X208242153Y-135275358D01*
X208236629Y-135281138D01*
X208233715Y-135285410D01*
X208233714Y-135285411D01*
X208175190Y-135371204D01*
X208110743Y-135465680D01*
X208094669Y-135500309D01*
X208022234Y-135656358D01*
X208016688Y-135668305D01*
X207956989Y-135883570D01*
X207956440Y-135888707D01*
X207955456Y-135897913D01*
X207933251Y-136105695D01*
X207933548Y-136110848D01*
X207933548Y-136110851D01*
X207940345Y-136228725D01*
X207946110Y-136328715D01*
X207947247Y-136333761D01*
X207947248Y-136333767D01*
X207967119Y-136421939D01*
X207995222Y-136546639D01*
X208079266Y-136753616D01*
X208195987Y-136944088D01*
X208342250Y-137112938D01*
X208452134Y-137204165D01*
X208494917Y-137239684D01*
X208514126Y-137255632D01*
X208548785Y-137275885D01*
X208587445Y-137298476D01*
X208636169Y-137350114D01*
X208649240Y-137419897D01*
X208622509Y-137485669D01*
X208582055Y-137519027D01*
X208569607Y-137525507D01*
X208565474Y-137528610D01*
X208565471Y-137528612D01*
X208403475Y-137650242D01*
X208390965Y-137659635D01*
X208236629Y-137821138D01*
X208233715Y-137825410D01*
X208233714Y-137825411D01*
X208178735Y-137906008D01*
X208110743Y-138005680D01*
X208016688Y-138208305D01*
X207956989Y-138423570D01*
X207956440Y-138428707D01*
X207955456Y-138437913D01*
X207933251Y-138645695D01*
X207608418Y-138645695D01*
X207592852Y-138456361D01*
X207538431Y-138239702D01*
X207449354Y-138034840D01*
X207357810Y-137893334D01*
X207330822Y-137851617D01*
X207330820Y-137851614D01*
X207328014Y-137847277D01*
X207177670Y-137682051D01*
X207173619Y-137678852D01*
X207173615Y-137678848D01*
X207006414Y-137546800D01*
X207006410Y-137546798D01*
X207002359Y-137543598D01*
X206961053Y-137520796D01*
X206911084Y-137470364D01*
X206896312Y-137400921D01*
X206921428Y-137334516D01*
X206948780Y-137307909D01*
X207009472Y-137264618D01*
X207127860Y-137180173D01*
X207173855Y-137134339D01*
X207256855Y-137051628D01*
X207286096Y-137022489D01*
X207321392Y-136973370D01*
X207413435Y-136845277D01*
X207416453Y-136841077D01*
X207453452Y-136766216D01*
X207513136Y-136645453D01*
X207513137Y-136645451D01*
X207515430Y-136640811D01*
X207556489Y-136505671D01*
X207578865Y-136432023D01*
X207578865Y-136432021D01*
X207580370Y-136427069D01*
X207609529Y-136205590D01*
X207609628Y-136201528D01*
X207611074Y-136142365D01*
X207611074Y-136142361D01*
X207611156Y-136139000D01*
X207592852Y-135916361D01*
X207538431Y-135699702D01*
X207449354Y-135494840D01*
X207380602Y-135388565D01*
X207330822Y-135311617D01*
X207330820Y-135311614D01*
X207328014Y-135307277D01*
X207177670Y-135142051D01*
X207173619Y-135138852D01*
X207173615Y-135138848D01*
X207006414Y-135006800D01*
X207006410Y-135006798D01*
X207002359Y-135003598D01*
X206960569Y-134980529D01*
X206910598Y-134930097D01*
X206895826Y-134860654D01*
X206920942Y-134794248D01*
X206948294Y-134767641D01*
X207123328Y-134642792D01*
X207131200Y-134636139D01*
X207282052Y-134485812D01*
X207288730Y-134477965D01*
X207413003Y-134305020D01*
X207418313Y-134296183D01*
X207512670Y-134105267D01*
X207516469Y-134095672D01*
X207578377Y-133891910D01*
X207580555Y-133881837D01*
X207581986Y-133870962D01*
X207579775Y-133856778D01*
X207566617Y-133853000D01*
X204931225Y-133853000D01*
X204917694Y-133856973D01*
X204916257Y-133866966D01*
X204946565Y-134001446D01*
X204949645Y-134011275D01*
X205029770Y-134208603D01*
X205034413Y-134217794D01*
X205145694Y-134399388D01*
X205151777Y-134407699D01*
X205291213Y-134568667D01*
X205298580Y-134575883D01*
X205462434Y-134711916D01*
X205470881Y-134717831D01*
X205539969Y-134758203D01*
X205588693Y-134809842D01*
X205601764Y-134879625D01*
X205575033Y-134945396D01*
X205534584Y-134978752D01*
X205521607Y-134985507D01*
X205517474Y-134988610D01*
X205517471Y-134988612D01*
X205347100Y-135116530D01*
X205342965Y-135119635D01*
X205290783Y-135174240D01*
X205194153Y-135275358D01*
X205188629Y-135281138D01*
X205185715Y-135285410D01*
X205185714Y-135285411D01*
X205127190Y-135371204D01*
X205062743Y-135465680D01*
X205046669Y-135500309D01*
X204974234Y-135656358D01*
X204968688Y-135668305D01*
X204908989Y-135883570D01*
X204908440Y-135888707D01*
X204907456Y-135897913D01*
X204885251Y-136105695D01*
X204885548Y-136110848D01*
X204885548Y-136110851D01*
X204892345Y-136228725D01*
X204898110Y-136328715D01*
X204899247Y-136333761D01*
X204899248Y-136333767D01*
X204919119Y-136421939D01*
X204947222Y-136546639D01*
X205031266Y-136753616D01*
X205147987Y-136944088D01*
X205294250Y-137112938D01*
X205404134Y-137204165D01*
X205446917Y-137239684D01*
X205466126Y-137255632D01*
X205500785Y-137275885D01*
X205539445Y-137298476D01*
X205588169Y-137350114D01*
X205601240Y-137419897D01*
X205574509Y-137485669D01*
X205534055Y-137519027D01*
X205521607Y-137525507D01*
X205517474Y-137528610D01*
X205517471Y-137528612D01*
X205355475Y-137650242D01*
X205342965Y-137659635D01*
X205188629Y-137821138D01*
X205185715Y-137825410D01*
X205185714Y-137825411D01*
X205130735Y-137906008D01*
X205062743Y-138005680D01*
X204968688Y-138208305D01*
X204908989Y-138423570D01*
X204908440Y-138428707D01*
X204907456Y-138437913D01*
X204885251Y-138645695D01*
X80608418Y-138645695D01*
X80592852Y-138456361D01*
X80538431Y-138239702D01*
X80449354Y-138034840D01*
X80357810Y-137893334D01*
X80330822Y-137851617D01*
X80330820Y-137851614D01*
X80328014Y-137847277D01*
X80177670Y-137682051D01*
X80173619Y-137678852D01*
X80173615Y-137678848D01*
X80006414Y-137546800D01*
X80006410Y-137546798D01*
X80002359Y-137543598D01*
X79961053Y-137520796D01*
X79911084Y-137470364D01*
X79896312Y-137400921D01*
X79921428Y-137334516D01*
X79948780Y-137307909D01*
X80009472Y-137264618D01*
X80127860Y-137180173D01*
X80173855Y-137134339D01*
X80256855Y-137051628D01*
X80286096Y-137022489D01*
X80321392Y-136973370D01*
X80413435Y-136845277D01*
X80416453Y-136841077D01*
X80453452Y-136766216D01*
X80513136Y-136645453D01*
X80513137Y-136645451D01*
X80515430Y-136640811D01*
X80556489Y-136505671D01*
X80578865Y-136432023D01*
X80578865Y-136432021D01*
X80580370Y-136427069D01*
X80609529Y-136205590D01*
X80609628Y-136201528D01*
X80611074Y-136142365D01*
X80611074Y-136142361D01*
X80611156Y-136139000D01*
X80592852Y-135916361D01*
X80538431Y-135699702D01*
X80449354Y-135494840D01*
X80380602Y-135388565D01*
X80330822Y-135311617D01*
X80330820Y-135311614D01*
X80328014Y-135307277D01*
X80177670Y-135142051D01*
X80173619Y-135138852D01*
X80173615Y-135138848D01*
X80006414Y-135006800D01*
X80006410Y-135006798D01*
X80002359Y-135003598D01*
X79960569Y-134980529D01*
X79910598Y-134930097D01*
X79895826Y-134860654D01*
X79920942Y-134794248D01*
X79948294Y-134767641D01*
X80123328Y-134642792D01*
X80131200Y-134636139D01*
X80282052Y-134485812D01*
X80288730Y-134477965D01*
X80413003Y-134305020D01*
X80418313Y-134296183D01*
X80512670Y-134105267D01*
X80516469Y-134095672D01*
X80578377Y-133891910D01*
X80580555Y-133881837D01*
X80581986Y-133870962D01*
X80579775Y-133856778D01*
X80566617Y-133853000D01*
X77931225Y-133853000D01*
X77917694Y-133856973D01*
X77916257Y-133866966D01*
X77946565Y-134001446D01*
X77949645Y-134011275D01*
X78029770Y-134208603D01*
X78034413Y-134217794D01*
X78145694Y-134399388D01*
X78151777Y-134407699D01*
X78291213Y-134568667D01*
X78298580Y-134575883D01*
X78462434Y-134711916D01*
X78470881Y-134717831D01*
X78539969Y-134758203D01*
X78588693Y-134809842D01*
X78601764Y-134879625D01*
X78575033Y-134945396D01*
X78534584Y-134978752D01*
X78521607Y-134985507D01*
X78517474Y-134988610D01*
X78517471Y-134988612D01*
X78347100Y-135116530D01*
X78342965Y-135119635D01*
X78290783Y-135174240D01*
X78194153Y-135275358D01*
X78188629Y-135281138D01*
X78185715Y-135285410D01*
X78185714Y-135285411D01*
X78127190Y-135371204D01*
X78062743Y-135465680D01*
X78046669Y-135500309D01*
X77974234Y-135656358D01*
X77968688Y-135668305D01*
X77908989Y-135883570D01*
X77908440Y-135888707D01*
X77907456Y-135897913D01*
X77885251Y-136105695D01*
X77885548Y-136110848D01*
X77885548Y-136110851D01*
X77892345Y-136228725D01*
X77898110Y-136328715D01*
X77899247Y-136333761D01*
X77899248Y-136333767D01*
X77919119Y-136421939D01*
X77947222Y-136546639D01*
X78031266Y-136753616D01*
X78147987Y-136944088D01*
X78294250Y-137112938D01*
X78404134Y-137204165D01*
X78446917Y-137239684D01*
X78466126Y-137255632D01*
X78500785Y-137275885D01*
X78539445Y-137298476D01*
X78588169Y-137350114D01*
X78601240Y-137419897D01*
X78574509Y-137485669D01*
X78534055Y-137519027D01*
X78521607Y-137525507D01*
X78517474Y-137528610D01*
X78517471Y-137528612D01*
X78355475Y-137650242D01*
X78342965Y-137659635D01*
X78188629Y-137821138D01*
X78185715Y-137825410D01*
X78185714Y-137825411D01*
X78130735Y-137906008D01*
X78062743Y-138005680D01*
X77968688Y-138208305D01*
X77908989Y-138423570D01*
X77908440Y-138428707D01*
X77907456Y-138437913D01*
X77885251Y-138645695D01*
X63338500Y-138645695D01*
X63338500Y-131025695D01*
X77885251Y-131025695D01*
X77885548Y-131030848D01*
X77885548Y-131030851D01*
X77896169Y-131215059D01*
X77898110Y-131248715D01*
X77899247Y-131253761D01*
X77899248Y-131253767D01*
X77902397Y-131267739D01*
X77947222Y-131466639D01*
X78031266Y-131673616D01*
X78050045Y-131704261D01*
X78143623Y-131856966D01*
X78147987Y-131864088D01*
X78294250Y-132032938D01*
X78438008Y-132152288D01*
X78446917Y-132159684D01*
X78466126Y-132175632D01*
X78482582Y-132185248D01*
X78539955Y-132218774D01*
X78588679Y-132270412D01*
X78601750Y-132340195D01*
X78575019Y-132405967D01*
X78534562Y-132439327D01*
X78526457Y-132443546D01*
X78517738Y-132449036D01*
X78347433Y-132576905D01*
X78339726Y-132583748D01*
X78192590Y-132737717D01*
X78186104Y-132745727D01*
X78066098Y-132921649D01*
X78061000Y-132930623D01*
X77971338Y-133123783D01*
X77967775Y-133133470D01*
X77912389Y-133333183D01*
X77913912Y-133341607D01*
X77926292Y-133345000D01*
X80566344Y-133345000D01*
X80579875Y-133341027D01*
X80581180Y-133331947D01*
X80539214Y-133164875D01*
X80535894Y-133155124D01*
X80450972Y-132959814D01*
X80446105Y-132950739D01*
X80330426Y-132771926D01*
X80324136Y-132763757D01*
X80180806Y-132606240D01*
X80173273Y-132599215D01*
X80006139Y-132467222D01*
X79997556Y-132461520D01*
X79960602Y-132441120D01*
X79910631Y-132390687D01*
X79895859Y-132321245D01*
X79920975Y-132254839D01*
X79948327Y-132228232D01*
X80002466Y-132189615D01*
X80127860Y-132100173D01*
X80146347Y-132081751D01*
X80282435Y-131946137D01*
X80286096Y-131942489D01*
X80302250Y-131920009D01*
X80413435Y-131765277D01*
X80416453Y-131761077D01*
X80430292Y-131733077D01*
X80513136Y-131565453D01*
X80513137Y-131565451D01*
X80515430Y-131560811D01*
X80567590Y-131389134D01*
X80578865Y-131352023D01*
X80578865Y-131352021D01*
X80580370Y-131347069D01*
X80609529Y-131125590D01*
X80611156Y-131059000D01*
X80608418Y-131025695D01*
X204885251Y-131025695D01*
X204885548Y-131030848D01*
X204885548Y-131030851D01*
X204896169Y-131215059D01*
X204898110Y-131248715D01*
X204899247Y-131253761D01*
X204899248Y-131253767D01*
X204902397Y-131267739D01*
X204947222Y-131466639D01*
X205031266Y-131673616D01*
X205050045Y-131704261D01*
X205143623Y-131856966D01*
X205147987Y-131864088D01*
X205294250Y-132032938D01*
X205438008Y-132152288D01*
X205446917Y-132159684D01*
X205466126Y-132175632D01*
X205482582Y-132185248D01*
X205539955Y-132218774D01*
X205588679Y-132270412D01*
X205601750Y-132340195D01*
X205575019Y-132405967D01*
X205534562Y-132439327D01*
X205526457Y-132443546D01*
X205517738Y-132449036D01*
X205347433Y-132576905D01*
X205339726Y-132583748D01*
X205192590Y-132737717D01*
X205186104Y-132745727D01*
X205066098Y-132921649D01*
X205061000Y-132930623D01*
X204971338Y-133123783D01*
X204967775Y-133133470D01*
X204912389Y-133333183D01*
X204913912Y-133341607D01*
X204926292Y-133345000D01*
X207566344Y-133345000D01*
X207579875Y-133341027D01*
X207581180Y-133331947D01*
X207539214Y-133164875D01*
X207535894Y-133155124D01*
X207450972Y-132959814D01*
X207446105Y-132950739D01*
X207330426Y-132771926D01*
X207324136Y-132763757D01*
X207180806Y-132606240D01*
X207173273Y-132599215D01*
X207006139Y-132467222D01*
X206997556Y-132461520D01*
X206960602Y-132441120D01*
X206910631Y-132390687D01*
X206895859Y-132321245D01*
X206920975Y-132254839D01*
X206948327Y-132228232D01*
X207002466Y-132189615D01*
X207127860Y-132100173D01*
X207146347Y-132081751D01*
X207282435Y-131946137D01*
X207286096Y-131942489D01*
X207302250Y-131920009D01*
X207413435Y-131765277D01*
X207416453Y-131761077D01*
X207430292Y-131733077D01*
X207513136Y-131565453D01*
X207513137Y-131565451D01*
X207515430Y-131560811D01*
X207567590Y-131389134D01*
X207578865Y-131352023D01*
X207578865Y-131352021D01*
X207580370Y-131347069D01*
X207609529Y-131125590D01*
X207611156Y-131059000D01*
X207608418Y-131025695D01*
X207933251Y-131025695D01*
X207933548Y-131030848D01*
X207933548Y-131030851D01*
X207944169Y-131215059D01*
X207946110Y-131248715D01*
X207947247Y-131253761D01*
X207947248Y-131253767D01*
X207950397Y-131267739D01*
X207995222Y-131466639D01*
X208079266Y-131673616D01*
X208098045Y-131704261D01*
X208191623Y-131856966D01*
X208195987Y-131864088D01*
X208342250Y-132032938D01*
X208486008Y-132152288D01*
X208494917Y-132159684D01*
X208514126Y-132175632D01*
X208530582Y-132185248D01*
X208587955Y-132218774D01*
X208636679Y-132270412D01*
X208649750Y-132340195D01*
X208623019Y-132405967D01*
X208582562Y-132439327D01*
X208574457Y-132443546D01*
X208565738Y-132449036D01*
X208395433Y-132576905D01*
X208387726Y-132583748D01*
X208240590Y-132737717D01*
X208234104Y-132745727D01*
X208114098Y-132921649D01*
X208109000Y-132930623D01*
X208019338Y-133123783D01*
X208015775Y-133133470D01*
X207960389Y-133333183D01*
X207961912Y-133341607D01*
X207974292Y-133345000D01*
X210614344Y-133345000D01*
X210627875Y-133341027D01*
X210629180Y-133331947D01*
X210587214Y-133164875D01*
X210583894Y-133155124D01*
X210498972Y-132959814D01*
X210494105Y-132950739D01*
X210378426Y-132771926D01*
X210372136Y-132763757D01*
X210228806Y-132606240D01*
X210221273Y-132599215D01*
X210054139Y-132467222D01*
X210045556Y-132461520D01*
X210008602Y-132441120D01*
X209958631Y-132390687D01*
X209943859Y-132321245D01*
X209968975Y-132254839D01*
X209996327Y-132228232D01*
X210050466Y-132189615D01*
X210175860Y-132100173D01*
X210194347Y-132081751D01*
X210330435Y-131946137D01*
X210334096Y-131942489D01*
X210350250Y-131920009D01*
X210461435Y-131765277D01*
X210464453Y-131761077D01*
X210478292Y-131733077D01*
X210561136Y-131565453D01*
X210561137Y-131565451D01*
X210563430Y-131560811D01*
X210615590Y-131389134D01*
X210626865Y-131352023D01*
X210626865Y-131352021D01*
X210628370Y-131347069D01*
X210657529Y-131125590D01*
X210659156Y-131059000D01*
X210640852Y-130836361D01*
X210586431Y-130619702D01*
X210497354Y-130414840D01*
X210417850Y-130291946D01*
X210378822Y-130231617D01*
X210378820Y-130231614D01*
X210376014Y-130227277D01*
X210225670Y-130062051D01*
X210221619Y-130058852D01*
X210221615Y-130058848D01*
X210054414Y-129926800D01*
X210054410Y-129926798D01*
X210050359Y-129923598D01*
X210037047Y-129916249D01*
X209941145Y-129863309D01*
X209854789Y-129815638D01*
X209849920Y-129813914D01*
X209849916Y-129813912D01*
X209649087Y-129742795D01*
X209649083Y-129742794D01*
X209644212Y-129741069D01*
X209639119Y-129740162D01*
X209639116Y-129740161D01*
X209429373Y-129702800D01*
X209429367Y-129702799D01*
X209424284Y-129701894D01*
X209350452Y-129700992D01*
X209206081Y-129699228D01*
X209206079Y-129699228D01*
X209200911Y-129699165D01*
X208980091Y-129732955D01*
X208767756Y-129802357D01*
X208739641Y-129816993D01*
X208647532Y-129864942D01*
X208569607Y-129905507D01*
X208565474Y-129908610D01*
X208565471Y-129908612D01*
X208438646Y-130003835D01*
X208390965Y-130039635D01*
X208387393Y-130043373D01*
X208241269Y-130196283D01*
X208236629Y-130201138D01*
X208233715Y-130205410D01*
X208233714Y-130205411D01*
X208216894Y-130230068D01*
X208110743Y-130385680D01*
X208081223Y-130449275D01*
X208023213Y-130574249D01*
X208016688Y-130588305D01*
X207956989Y-130803570D01*
X207956440Y-130808707D01*
X207955456Y-130817913D01*
X207933251Y-131025695D01*
X207608418Y-131025695D01*
X207592852Y-130836361D01*
X207538431Y-130619702D01*
X207449354Y-130414840D01*
X207369850Y-130291946D01*
X207330822Y-130231617D01*
X207330820Y-130231614D01*
X207328014Y-130227277D01*
X207177670Y-130062051D01*
X207173619Y-130058852D01*
X207173615Y-130058848D01*
X207006414Y-129926800D01*
X207006410Y-129926798D01*
X207002359Y-129923598D01*
X206989047Y-129916249D01*
X206893145Y-129863309D01*
X206806789Y-129815638D01*
X206801920Y-129813914D01*
X206801916Y-129813912D01*
X206601087Y-129742795D01*
X206601083Y-129742794D01*
X206596212Y-129741069D01*
X206591119Y-129740162D01*
X206591116Y-129740161D01*
X206381373Y-129702800D01*
X206381367Y-129702799D01*
X206376284Y-129701894D01*
X206302452Y-129700992D01*
X206158081Y-129699228D01*
X206158079Y-129699228D01*
X206152911Y-129699165D01*
X205932091Y-129732955D01*
X205719756Y-129802357D01*
X205691641Y-129816993D01*
X205599532Y-129864942D01*
X205521607Y-129905507D01*
X205517474Y-129908610D01*
X205517471Y-129908612D01*
X205390646Y-130003835D01*
X205342965Y-130039635D01*
X205339393Y-130043373D01*
X205193269Y-130196283D01*
X205188629Y-130201138D01*
X205185715Y-130205410D01*
X205185714Y-130205411D01*
X205168894Y-130230068D01*
X205062743Y-130385680D01*
X205033223Y-130449275D01*
X204975213Y-130574249D01*
X204968688Y-130588305D01*
X204908989Y-130803570D01*
X204908440Y-130808707D01*
X204907456Y-130817913D01*
X204885251Y-131025695D01*
X80608418Y-131025695D01*
X80592852Y-130836361D01*
X80538431Y-130619702D01*
X80449354Y-130414840D01*
X80369850Y-130291946D01*
X80330822Y-130231617D01*
X80330820Y-130231614D01*
X80328014Y-130227277D01*
X80177670Y-130062051D01*
X80173619Y-130058852D01*
X80173615Y-130058848D01*
X80006414Y-129926800D01*
X80006410Y-129926798D01*
X80002359Y-129923598D01*
X79989047Y-129916249D01*
X79893145Y-129863309D01*
X79806789Y-129815638D01*
X79801920Y-129813914D01*
X79801916Y-129813912D01*
X79601087Y-129742795D01*
X79601083Y-129742794D01*
X79596212Y-129741069D01*
X79591119Y-129740162D01*
X79591116Y-129740161D01*
X79381373Y-129702800D01*
X79381367Y-129702799D01*
X79376284Y-129701894D01*
X79302452Y-129700992D01*
X79158081Y-129699228D01*
X79158079Y-129699228D01*
X79152911Y-129699165D01*
X78932091Y-129732955D01*
X78719756Y-129802357D01*
X78691641Y-129816993D01*
X78599532Y-129864942D01*
X78521607Y-129905507D01*
X78517474Y-129908610D01*
X78517471Y-129908612D01*
X78390646Y-130003835D01*
X78342965Y-130039635D01*
X78339393Y-130043373D01*
X78193269Y-130196283D01*
X78188629Y-130201138D01*
X78185715Y-130205410D01*
X78185714Y-130205411D01*
X78168894Y-130230068D01*
X78062743Y-130385680D01*
X78033223Y-130449275D01*
X77975213Y-130574249D01*
X77968688Y-130588305D01*
X77908989Y-130803570D01*
X77908440Y-130808707D01*
X77907456Y-130817913D01*
X77885251Y-131025695D01*
X63338500Y-131025695D01*
X63338500Y-127487943D01*
X260727780Y-127487943D01*
X260728526Y-127495835D01*
X260731941Y-127531961D01*
X260732500Y-127543819D01*
X260732500Y-150543233D01*
X260731973Y-150554416D01*
X260730298Y-150561909D01*
X260730547Y-150569835D01*
X260730547Y-150569836D01*
X260732438Y-150629986D01*
X260732500Y-150633945D01*
X260732500Y-150661856D01*
X260732997Y-150665790D01*
X260732997Y-150665791D01*
X260733005Y-150665856D01*
X260733938Y-150677693D01*
X260735327Y-150721889D01*
X260740008Y-150738000D01*
X260740978Y-150741339D01*
X260744987Y-150760700D01*
X260747526Y-150780797D01*
X260750445Y-150788168D01*
X260750445Y-150788170D01*
X260763804Y-150821912D01*
X260767649Y-150833142D01*
X260779982Y-150875593D01*
X260784015Y-150882412D01*
X260784017Y-150882417D01*
X260790293Y-150893028D01*
X260798988Y-150910776D01*
X260806448Y-150929617D01*
X260811110Y-150936033D01*
X260811110Y-150936034D01*
X260832436Y-150965387D01*
X260838952Y-150975307D01*
X260849745Y-150993556D01*
X260861458Y-151013362D01*
X260875779Y-151027683D01*
X260888619Y-151042716D01*
X260900528Y-151059107D01*
X260933900Y-151086715D01*
X260934605Y-151087298D01*
X260943384Y-151095288D01*
X262894348Y-153046253D01*
X262901888Y-153054539D01*
X262906000Y-153061018D01*
X262911777Y-153066443D01*
X262955651Y-153107643D01*
X262958493Y-153110398D01*
X262978230Y-153130135D01*
X262981427Y-153132615D01*
X262990447Y-153140318D01*
X263022679Y-153170586D01*
X263029625Y-153174405D01*
X263029628Y-153174407D01*
X263040434Y-153180348D01*
X263056953Y-153191199D01*
X263072959Y-153203614D01*
X263080228Y-153206759D01*
X263080232Y-153206762D01*
X263113537Y-153221174D01*
X263124187Y-153226391D01*
X263162940Y-153247695D01*
X263170615Y-153249666D01*
X263170616Y-153249666D01*
X263182562Y-153252733D01*
X263201267Y-153259137D01*
X263219855Y-153267181D01*
X263227678Y-153268420D01*
X263227688Y-153268423D01*
X263263524Y-153274099D01*
X263275144Y-153276505D01*
X263306959Y-153284673D01*
X263317970Y-153287500D01*
X263338224Y-153287500D01*
X263357934Y-153289051D01*
X263377943Y-153292220D01*
X263385835Y-153291474D01*
X263404580Y-153289702D01*
X263421962Y-153288059D01*
X263433819Y-153287500D01*
X296339233Y-153287500D01*
X296350416Y-153288027D01*
X296357909Y-153289702D01*
X296365835Y-153289453D01*
X296365836Y-153289453D01*
X296425986Y-153287562D01*
X296429945Y-153287500D01*
X296457856Y-153287500D01*
X296461791Y-153287003D01*
X296461856Y-153286995D01*
X296473693Y-153286062D01*
X296505951Y-153285048D01*
X296509970Y-153284922D01*
X296517889Y-153284673D01*
X296537343Y-153279021D01*
X296556700Y-153275013D01*
X296568930Y-153273468D01*
X296568931Y-153273468D01*
X296576797Y-153272474D01*
X296584168Y-153269555D01*
X296584170Y-153269555D01*
X296617912Y-153256196D01*
X296629142Y-153252351D01*
X296663983Y-153242229D01*
X296663984Y-153242229D01*
X296671593Y-153240018D01*
X296678412Y-153235985D01*
X296678417Y-153235983D01*
X296689028Y-153229707D01*
X296706776Y-153221012D01*
X296725617Y-153213552D01*
X296761387Y-153187564D01*
X296771307Y-153181048D01*
X296802535Y-153162580D01*
X296802538Y-153162578D01*
X296809362Y-153158542D01*
X296823683Y-153144221D01*
X296838717Y-153131380D01*
X296848694Y-153124131D01*
X296855107Y-153119472D01*
X296883298Y-153085395D01*
X296891288Y-153076616D01*
X299218247Y-150749657D01*
X299226537Y-150742113D01*
X299233018Y-150738000D01*
X299255584Y-150713970D01*
X299279658Y-150688333D01*
X299282413Y-150685491D01*
X299302134Y-150665770D01*
X299304612Y-150662575D01*
X299312318Y-150653553D01*
X299337158Y-150627101D01*
X299342586Y-150621321D01*
X299352346Y-150603568D01*
X299363199Y-150587045D01*
X299370753Y-150577306D01*
X299375613Y-150571041D01*
X299393176Y-150530457D01*
X299398383Y-150519827D01*
X299419695Y-150481060D01*
X299421666Y-150473383D01*
X299421668Y-150473378D01*
X299424732Y-150461442D01*
X299431138Y-150442730D01*
X299435751Y-150432072D01*
X299439181Y-150424145D01*
X299440421Y-150416317D01*
X299440423Y-150416310D01*
X299446099Y-150380476D01*
X299448505Y-150368856D01*
X299457528Y-150333711D01*
X299457528Y-150333710D01*
X299459500Y-150326030D01*
X299459500Y-150305776D01*
X299461051Y-150286065D01*
X299462980Y-150273886D01*
X299464220Y-150266057D01*
X299460059Y-150222038D01*
X299459500Y-150210181D01*
X299459500Y-148053830D01*
X299479502Y-147985709D01*
X299533158Y-147939216D01*
X299592317Y-147928015D01*
X299594480Y-147928132D01*
X299597866Y-147928500D01*
X300594134Y-147928500D01*
X300656316Y-147921745D01*
X300686771Y-147910328D01*
X300757577Y-147905145D01*
X300775224Y-147910326D01*
X300805684Y-147921745D01*
X300867866Y-147928500D01*
X301801500Y-147928500D01*
X301869621Y-147948502D01*
X301916114Y-148002158D01*
X301927500Y-148054500D01*
X301927500Y-148724871D01*
X301921333Y-148763807D01*
X301874458Y-148908072D01*
X301873768Y-148914633D01*
X301873768Y-148914635D01*
X301863208Y-149015109D01*
X301854496Y-149098000D01*
X301855186Y-149104565D01*
X301871015Y-149255166D01*
X301874458Y-149287928D01*
X301933473Y-149469556D01*
X302028960Y-149634944D01*
X302156747Y-149776866D01*
X302248394Y-149843452D01*
X302268417Y-149857999D01*
X302311248Y-149889118D01*
X302317276Y-149891802D01*
X302317278Y-149891803D01*
X302479681Y-149964109D01*
X302485712Y-149966794D01*
X302564754Y-149983595D01*
X302666056Y-150005128D01*
X302666061Y-150005128D01*
X302672513Y-150006500D01*
X302863487Y-150006500D01*
X302869939Y-150005128D01*
X302869944Y-150005128D01*
X303045303Y-149967854D01*
X303116094Y-149973256D01*
X303172727Y-150016073D01*
X303197220Y-150082711D01*
X303197500Y-150091101D01*
X303197500Y-151772871D01*
X303191333Y-151811807D01*
X303144458Y-151956072D01*
X303124496Y-152146000D01*
X303144458Y-152335928D01*
X303203473Y-152517556D01*
X303298960Y-152682944D01*
X303426747Y-152824866D01*
X303581248Y-152937118D01*
X303587276Y-152939802D01*
X303587278Y-152939803D01*
X303749681Y-153012109D01*
X303755712Y-153014794D01*
X303849112Y-153034647D01*
X303936056Y-153053128D01*
X303936061Y-153053128D01*
X303942513Y-153054500D01*
X304133487Y-153054500D01*
X304139939Y-153053128D01*
X304139944Y-153053128D01*
X304226888Y-153034647D01*
X304320288Y-153014794D01*
X304326319Y-153012109D01*
X304488722Y-152939803D01*
X304488724Y-152939802D01*
X304494752Y-152937118D01*
X304649253Y-152824866D01*
X304777040Y-152682944D01*
X304872527Y-152517556D01*
X304931542Y-152335928D01*
X304951504Y-152146000D01*
X304931542Y-151956072D01*
X304872527Y-151774444D01*
X304777040Y-151609056D01*
X304649253Y-151467134D01*
X304650871Y-151465677D01*
X304618950Y-151413865D01*
X304614500Y-151380673D01*
X304614500Y-150472660D01*
X304634502Y-150404539D01*
X304688158Y-150358046D01*
X304758432Y-150347942D01*
X304823012Y-150377436D01*
X304829595Y-150383565D01*
X305135335Y-150689305D01*
X305169361Y-150751617D01*
X305171550Y-150765228D01*
X305176458Y-150811928D01*
X305178498Y-150818205D01*
X305178498Y-150818207D01*
X305210234Y-150915880D01*
X305235473Y-150993556D01*
X305238776Y-150999278D01*
X305238777Y-150999279D01*
X305251047Y-151020531D01*
X305330960Y-151158944D01*
X305458747Y-151300866D01*
X305613248Y-151413118D01*
X305619276Y-151415802D01*
X305619278Y-151415803D01*
X305757024Y-151477131D01*
X305787712Y-151490794D01*
X305881113Y-151510647D01*
X305968056Y-151529128D01*
X305968061Y-151529128D01*
X305974513Y-151530500D01*
X306165487Y-151530500D01*
X306171939Y-151529128D01*
X306171944Y-151529128D01*
X306258887Y-151510647D01*
X306352288Y-151490794D01*
X306382976Y-151477131D01*
X306520722Y-151415803D01*
X306520724Y-151415802D01*
X306526752Y-151413118D01*
X306681253Y-151300866D01*
X306809040Y-151158944D01*
X306888953Y-151020531D01*
X306901223Y-150999279D01*
X306901224Y-150999278D01*
X306904527Y-150993556D01*
X306963542Y-150811928D01*
X306983504Y-150622000D01*
X306968691Y-150481060D01*
X306964232Y-150438635D01*
X306964232Y-150438633D01*
X306963542Y-150432072D01*
X306904527Y-150250444D01*
X306809040Y-150085056D01*
X306746928Y-150016073D01*
X306685675Y-149948045D01*
X306685674Y-149948044D01*
X306681253Y-149943134D01*
X306557917Y-149853525D01*
X306532094Y-149834763D01*
X306532093Y-149834762D01*
X306526752Y-149830882D01*
X306520724Y-149828198D01*
X306520722Y-149828197D01*
X306358319Y-149755891D01*
X306358318Y-149755891D01*
X306352288Y-149753206D01*
X306199431Y-149720715D01*
X306136533Y-149686563D01*
X305921405Y-149471435D01*
X305887379Y-149409123D01*
X305884500Y-149382340D01*
X305884500Y-148054500D01*
X305904502Y-147986379D01*
X305958158Y-147939886D01*
X306010500Y-147928500D01*
X306944134Y-147928500D01*
X307006316Y-147921745D01*
X307036771Y-147910328D01*
X307107577Y-147905145D01*
X307125224Y-147910326D01*
X307155684Y-147921745D01*
X307217866Y-147928500D01*
X308214134Y-147928500D01*
X308276316Y-147921745D01*
X308306771Y-147910328D01*
X308377577Y-147905145D01*
X308395224Y-147910326D01*
X308425684Y-147921745D01*
X308487866Y-147928500D01*
X309484134Y-147928500D01*
X309546316Y-147921745D01*
X309577483Y-147910061D01*
X309648288Y-147904878D01*
X309665943Y-147910061D01*
X309688398Y-147918479D01*
X309703649Y-147922105D01*
X309754514Y-147927631D01*
X309761328Y-147928000D01*
X309983885Y-147928000D01*
X309999124Y-147923525D01*
X310000329Y-147922135D01*
X310002000Y-147914452D01*
X310002000Y-147909884D01*
X310510000Y-147909884D01*
X310514475Y-147925123D01*
X310515865Y-147926328D01*
X310523548Y-147927999D01*
X310750669Y-147927999D01*
X310757490Y-147927629D01*
X310808352Y-147922105D01*
X310823604Y-147918479D01*
X310944054Y-147873324D01*
X310959649Y-147864786D01*
X311061724Y-147788285D01*
X311074285Y-147775724D01*
X311150786Y-147673649D01*
X311159324Y-147658054D01*
X311204478Y-147537606D01*
X311208105Y-147522351D01*
X311213631Y-147471486D01*
X311214000Y-147464672D01*
X311214000Y-146942115D01*
X311209525Y-146926876D01*
X311208135Y-146925671D01*
X311200452Y-146924000D01*
X310528115Y-146924000D01*
X310512876Y-146928475D01*
X310511671Y-146929865D01*
X310510000Y-146937548D01*
X310510000Y-147909884D01*
X310002000Y-147909884D01*
X310002000Y-146397885D01*
X310510000Y-146397885D01*
X310514475Y-146413124D01*
X310515865Y-146414329D01*
X310523548Y-146416000D01*
X311195884Y-146416000D01*
X311211123Y-146411525D01*
X311212328Y-146410135D01*
X311213999Y-146402452D01*
X311213999Y-145875331D01*
X311213629Y-145868510D01*
X311208105Y-145817648D01*
X311204479Y-145802396D01*
X311159324Y-145681946D01*
X311150786Y-145666351D01*
X311074285Y-145564276D01*
X311061724Y-145551715D01*
X310959649Y-145475214D01*
X310944054Y-145466676D01*
X310823606Y-145421522D01*
X310808351Y-145417895D01*
X310757486Y-145412369D01*
X310750672Y-145412000D01*
X310528115Y-145412000D01*
X310512876Y-145416475D01*
X310511671Y-145417865D01*
X310510000Y-145425548D01*
X310510000Y-146397885D01*
X310002000Y-146397885D01*
X310002000Y-145430116D01*
X309997525Y-145414877D01*
X309996135Y-145413672D01*
X309988452Y-145412001D01*
X309761331Y-145412001D01*
X309754510Y-145412371D01*
X309703648Y-145417895D01*
X309688400Y-145421520D01*
X309665943Y-145429939D01*
X309595136Y-145435122D01*
X309577490Y-145429942D01*
X309546316Y-145418255D01*
X309484134Y-145411500D01*
X308487866Y-145411500D01*
X308425684Y-145418255D01*
X308395229Y-145429672D01*
X308324423Y-145434855D01*
X308306776Y-145429674D01*
X308276316Y-145418255D01*
X308214134Y-145411500D01*
X307217866Y-145411500D01*
X307155684Y-145418255D01*
X307125229Y-145429672D01*
X307054423Y-145434855D01*
X307036776Y-145429674D01*
X307006316Y-145418255D01*
X306944134Y-145411500D01*
X305947866Y-145411500D01*
X305885684Y-145418255D01*
X305855229Y-145429672D01*
X305784423Y-145434855D01*
X305766776Y-145429674D01*
X305736316Y-145418255D01*
X305674134Y-145411500D01*
X304677866Y-145411500D01*
X304615684Y-145418255D01*
X304585229Y-145429672D01*
X304514423Y-145434855D01*
X304496776Y-145429674D01*
X304466316Y-145418255D01*
X304404134Y-145411500D01*
X303407866Y-145411500D01*
X303345684Y-145418255D01*
X303315229Y-145429672D01*
X303244423Y-145434855D01*
X303226776Y-145429674D01*
X303196316Y-145418255D01*
X303134134Y-145411500D01*
X302137866Y-145411500D01*
X302075684Y-145418255D01*
X302045229Y-145429672D01*
X301974423Y-145434855D01*
X301956776Y-145429674D01*
X301926316Y-145418255D01*
X301864134Y-145411500D01*
X300867866Y-145411500D01*
X300805684Y-145418255D01*
X300775229Y-145429672D01*
X300704423Y-145434855D01*
X300686776Y-145429674D01*
X300656316Y-145418255D01*
X300594134Y-145411500D01*
X299597866Y-145411500D01*
X299535684Y-145418255D01*
X299505229Y-145429672D01*
X299434423Y-145434855D01*
X299416776Y-145429674D01*
X299386316Y-145418255D01*
X299324134Y-145411500D01*
X298327866Y-145411500D01*
X298265684Y-145418255D01*
X298129295Y-145469385D01*
X298012739Y-145556739D01*
X297925385Y-145673295D01*
X297874255Y-145809684D01*
X297867500Y-145871866D01*
X297867500Y-147468134D01*
X297874255Y-147530316D01*
X297925385Y-147666705D01*
X298012739Y-147783261D01*
X298129295Y-147870615D01*
X298129951Y-147870861D01*
X298177157Y-147918175D01*
X298192500Y-147978433D01*
X298192500Y-149931405D01*
X298172498Y-149999526D01*
X298155595Y-150020500D01*
X296192500Y-151983595D01*
X296130188Y-152017621D01*
X296103405Y-152020500D01*
X263712594Y-152020500D01*
X263644473Y-152000498D01*
X263623499Y-151983595D01*
X262036405Y-150396500D01*
X262002379Y-150334188D01*
X261999500Y-150307405D01*
X261999500Y-140965475D01*
X275089674Y-140965475D01*
X275107901Y-141173804D01*
X275109804Y-141184599D01*
X275163928Y-141386595D01*
X275167674Y-141396887D01*
X275256054Y-141586417D01*
X275261534Y-141595907D01*
X275290411Y-141637149D01*
X275300887Y-141645523D01*
X275314334Y-141638455D01*
X275979979Y-140972811D01*
X275987592Y-140958868D01*
X275987461Y-140957034D01*
X275983210Y-140950420D01*
X275313609Y-140280820D01*
X275301839Y-140274393D01*
X275289824Y-140283689D01*
X275261534Y-140324093D01*
X275256054Y-140333583D01*
X275167674Y-140523113D01*
X275163928Y-140533405D01*
X275109804Y-140735401D01*
X275107901Y-140746196D01*
X275089674Y-140954525D01*
X275089674Y-140965475D01*
X261999500Y-140965475D01*
X261999500Y-136198735D01*
X267269500Y-136198735D01*
X267269749Y-136201522D01*
X267269749Y-136201528D01*
X267274146Y-136250794D01*
X267283792Y-136358872D01*
X267301045Y-136421939D01*
X267327201Y-136517548D01*
X267340716Y-136566952D01*
X267433589Y-136761663D01*
X267559474Y-136936851D01*
X267563506Y-136940758D01*
X267709731Y-137082460D01*
X267714392Y-137086977D01*
X267893447Y-137207297D01*
X267898593Y-137209556D01*
X267898595Y-137209557D01*
X267950378Y-137232288D01*
X268090980Y-137294008D01*
X268300745Y-137344368D01*
X268383788Y-137349156D01*
X268510506Y-137356463D01*
X268510509Y-137356463D01*
X268516113Y-137356786D01*
X268571249Y-137350114D01*
X268724708Y-137331544D01*
X268724709Y-137331544D01*
X268730277Y-137330870D01*
X268735631Y-137329223D01*
X268735635Y-137329222D01*
X268931109Y-137269085D01*
X268931108Y-137269085D01*
X268936466Y-137267437D01*
X269105538Y-137180173D01*
X269123183Y-137171066D01*
X269123184Y-137171065D01*
X269128164Y-137168495D01*
X269280464Y-137051631D01*
X269294860Y-137040585D01*
X269294864Y-137040581D01*
X269299311Y-137037169D01*
X269390593Y-136936851D01*
X269440724Y-136881758D01*
X269440726Y-136881755D01*
X269444497Y-136877611D01*
X269470325Y-136836438D01*
X269556151Y-136699621D01*
X269556153Y-136699617D01*
X269559134Y-136694865D01*
X269639597Y-136494707D01*
X269683344Y-136283463D01*
X269683610Y-136278851D01*
X269686395Y-136230548D01*
X269686395Y-136230544D01*
X269686500Y-136228725D01*
X269686500Y-131009265D01*
X269683824Y-130979275D01*
X269678534Y-130920013D01*
X269672208Y-130849128D01*
X269633622Y-130708079D01*
X269616766Y-130646464D01*
X269616765Y-130646460D01*
X269615284Y-130641048D01*
X269522411Y-130446337D01*
X269407401Y-130286283D01*
X269399802Y-130275708D01*
X269396526Y-130271149D01*
X269312239Y-130189469D01*
X269245636Y-130124926D01*
X269245633Y-130124924D01*
X269241608Y-130121023D01*
X269062553Y-130000703D01*
X269047956Y-129994295D01*
X268979241Y-129964131D01*
X268865020Y-129913992D01*
X268703723Y-129875268D01*
X268660712Y-129864942D01*
X268660711Y-129864942D01*
X268655255Y-129863632D01*
X268572212Y-129858844D01*
X268445494Y-129851537D01*
X268445491Y-129851537D01*
X268439887Y-129851214D01*
X268434309Y-129851889D01*
X268231292Y-129876456D01*
X268231291Y-129876456D01*
X268225723Y-129877130D01*
X268220369Y-129878777D01*
X268220365Y-129878778D01*
X268082795Y-129921101D01*
X268019534Y-129940563D01*
X267827836Y-130039505D01*
X267802628Y-130058848D01*
X267661140Y-130167415D01*
X267661136Y-130167419D01*
X267656689Y-130170831D01*
X267610518Y-130221572D01*
X267524164Y-130316475D01*
X267511503Y-130330389D01*
X267508522Y-130335141D01*
X267401686Y-130505452D01*
X267396866Y-130513135D01*
X267316403Y-130713293D01*
X267272656Y-130924537D01*
X267272390Y-130929148D01*
X267272390Y-130929149D01*
X267271715Y-130940866D01*
X267269500Y-130979275D01*
X267269500Y-136198735D01*
X261999500Y-136198735D01*
X261999500Y-127822594D01*
X262019502Y-127754473D01*
X262036405Y-127733499D01*
X265391499Y-124378405D01*
X265453811Y-124344379D01*
X265480594Y-124341500D01*
X272282274Y-124341500D01*
X272350395Y-124361502D01*
X272389707Y-124401665D01*
X272457987Y-124513088D01*
X272604250Y-124681938D01*
X272776126Y-124824632D01*
X272846595Y-124865811D01*
X272849445Y-124867476D01*
X272898169Y-124919114D01*
X272911240Y-124988897D01*
X272884509Y-125054669D01*
X272844055Y-125088027D01*
X272831607Y-125094507D01*
X272827474Y-125097610D01*
X272827471Y-125097612D01*
X272803247Y-125115800D01*
X272652965Y-125228635D01*
X272498629Y-125390138D01*
X272372743Y-125574680D01*
X272278688Y-125777305D01*
X272218989Y-125992570D01*
X272195251Y-126214695D01*
X272208110Y-126437715D01*
X272209247Y-126442761D01*
X272209248Y-126442767D01*
X272233304Y-126549508D01*
X272257222Y-126655639D01*
X272306780Y-126777686D01*
X272324535Y-126821411D01*
X272341266Y-126862616D01*
X272366053Y-126903065D01*
X272438800Y-127021777D01*
X272457987Y-127053088D01*
X272604250Y-127221938D01*
X272776126Y-127364632D01*
X272969000Y-127477338D01*
X272973825Y-127479180D01*
X272973826Y-127479181D01*
X273017439Y-127495835D01*
X273177692Y-127557030D01*
X273182760Y-127558061D01*
X273182763Y-127558062D01*
X273290017Y-127579883D01*
X273396597Y-127601567D01*
X273401772Y-127601757D01*
X273401774Y-127601757D01*
X273614673Y-127609564D01*
X273614677Y-127609564D01*
X273619837Y-127609753D01*
X273624957Y-127609097D01*
X273624959Y-127609097D01*
X273836288Y-127582025D01*
X273836289Y-127582025D01*
X273841416Y-127581368D01*
X273846366Y-127579883D01*
X274050429Y-127518661D01*
X274050434Y-127518659D01*
X274055384Y-127517174D01*
X274255994Y-127418896D01*
X274437860Y-127289173D01*
X274493028Y-127234198D01*
X274550728Y-127176699D01*
X274596096Y-127131489D01*
X274599394Y-127126900D01*
X274684132Y-127008974D01*
X274740127Y-126965326D01*
X274786455Y-126956500D01*
X279107088Y-126956500D01*
X279115658Y-126956792D01*
X279165776Y-126960209D01*
X279165780Y-126960209D01*
X279173352Y-126960725D01*
X279180829Y-126959420D01*
X279180830Y-126959420D01*
X279207308Y-126954799D01*
X279236303Y-126949738D01*
X279242821Y-126948777D01*
X279306242Y-126941102D01*
X279313343Y-126938419D01*
X279315952Y-126937778D01*
X279332262Y-126933315D01*
X279334798Y-126932550D01*
X279342284Y-126931243D01*
X279400800Y-126905556D01*
X279406904Y-126903065D01*
X279459548Y-126883173D01*
X279459549Y-126883172D01*
X279466656Y-126880487D01*
X279472919Y-126876183D01*
X279475285Y-126874946D01*
X279490097Y-126866701D01*
X279492351Y-126865368D01*
X279499305Y-126862315D01*
X279550002Y-126823413D01*
X279555332Y-126819541D01*
X279601720Y-126787661D01*
X279601725Y-126787656D01*
X279607981Y-126783357D01*
X279649436Y-126736829D01*
X279654416Y-126731554D01*
X290070566Y-116315405D01*
X290132878Y-116281379D01*
X290159661Y-116278500D01*
X290421196Y-116278500D01*
X290489317Y-116298502D01*
X290535810Y-116352158D01*
X290544127Y-116410000D01*
X290546000Y-116410000D01*
X290546000Y-126673500D01*
X290525998Y-126741621D01*
X290472342Y-126788114D01*
X290420000Y-126799500D01*
X285270912Y-126799500D01*
X285262342Y-126799208D01*
X285212224Y-126795791D01*
X285212220Y-126795791D01*
X285204648Y-126795275D01*
X285197171Y-126796580D01*
X285197170Y-126796580D01*
X285170692Y-126801201D01*
X285141697Y-126806262D01*
X285135179Y-126807223D01*
X285071758Y-126814898D01*
X285064657Y-126817581D01*
X285062048Y-126818222D01*
X285045738Y-126822685D01*
X285043202Y-126823450D01*
X285035716Y-126824757D01*
X285028759Y-126827811D01*
X284977205Y-126850442D01*
X284971096Y-126852935D01*
X284934665Y-126866701D01*
X284911344Y-126875513D01*
X284905081Y-126879817D01*
X284902715Y-126881054D01*
X284887903Y-126889299D01*
X284885649Y-126890632D01*
X284878695Y-126893685D01*
X284827998Y-126932587D01*
X284822668Y-126936459D01*
X284776280Y-126968339D01*
X284776275Y-126968344D01*
X284770019Y-126972643D01*
X284764968Y-126978313D01*
X284764966Y-126978314D01*
X284728565Y-127019170D01*
X284723584Y-127024446D01*
X282817480Y-128930550D01*
X282811215Y-128936404D01*
X282767615Y-128974439D01*
X282763248Y-128980653D01*
X282730872Y-129026719D01*
X282726939Y-129032014D01*
X282687524Y-129082282D01*
X282684401Y-129089198D01*
X282683017Y-129091484D01*
X282674643Y-129106165D01*
X282673378Y-129108525D01*
X282669010Y-129114739D01*
X282666250Y-129121818D01*
X282666249Y-129121820D01*
X282650926Y-129161121D01*
X282649153Y-129165671D01*
X282645798Y-129174275D01*
X282643247Y-129180344D01*
X282616955Y-129238573D01*
X282615571Y-129246040D01*
X282614770Y-129248595D01*
X282610141Y-129264848D01*
X282609478Y-129267428D01*
X282606718Y-129274509D01*
X282605727Y-129282040D01*
X282605726Y-129282042D01*
X282598379Y-129337852D01*
X282597348Y-129344359D01*
X282585704Y-129407186D01*
X282586141Y-129414766D01*
X282586141Y-129414767D01*
X282589291Y-129469392D01*
X282589500Y-129476646D01*
X282589500Y-130479411D01*
X282569498Y-130547532D01*
X282564326Y-130554975D01*
X282497385Y-130644295D01*
X282446255Y-130780684D01*
X282439500Y-130842866D01*
X282439500Y-131389134D01*
X282446255Y-131451316D01*
X282497385Y-131587705D01*
X282584739Y-131704261D01*
X282701295Y-131791615D01*
X282837684Y-131842745D01*
X282899866Y-131849500D01*
X283137500Y-131849500D01*
X283205621Y-131869502D01*
X283252114Y-131923158D01*
X283263500Y-131975500D01*
X283263500Y-134591088D01*
X283263208Y-134599658D01*
X283260268Y-134642792D01*
X283259275Y-134657352D01*
X283260580Y-134664829D01*
X283260580Y-134664830D01*
X283270261Y-134720299D01*
X283271223Y-134726821D01*
X283278898Y-134790242D01*
X283281581Y-134797343D01*
X283282222Y-134799952D01*
X283286685Y-134816262D01*
X283287450Y-134818798D01*
X283288757Y-134826284D01*
X283300584Y-134853225D01*
X283314442Y-134884795D01*
X283316933Y-134890899D01*
X283339513Y-134950656D01*
X283343817Y-134956919D01*
X283345054Y-134959285D01*
X283353299Y-134974097D01*
X283354632Y-134976351D01*
X283357685Y-134983305D01*
X283374119Y-135004721D01*
X283396579Y-135033991D01*
X283400459Y-135039332D01*
X283432339Y-135085720D01*
X283432344Y-135085725D01*
X283436643Y-135091981D01*
X283442313Y-135097032D01*
X283442314Y-135097034D01*
X283483170Y-135133435D01*
X283488446Y-135138416D01*
X283622435Y-135272405D01*
X283656461Y-135334717D01*
X283651396Y-135405532D01*
X283608849Y-135462368D01*
X283542329Y-135487179D01*
X283533340Y-135487500D01*
X283120498Y-135487500D01*
X283118050Y-135487693D01*
X283118042Y-135487693D01*
X283089579Y-135489933D01*
X283089574Y-135489934D01*
X283083169Y-135490438D01*
X282983231Y-135519472D01*
X282931012Y-135534643D01*
X282931010Y-135534644D01*
X282923399Y-135536855D01*
X282780193Y-135621547D01*
X282777511Y-135624229D01*
X282713139Y-135649502D01*
X282643516Y-135635600D01*
X282627688Y-135625428D01*
X282623807Y-135621547D01*
X282480601Y-135536855D01*
X282472990Y-135534644D01*
X282472988Y-135534643D01*
X282420769Y-135519472D01*
X282320831Y-135490438D01*
X282314426Y-135489934D01*
X282314421Y-135489933D01*
X282285958Y-135487693D01*
X282285950Y-135487693D01*
X282283502Y-135487500D01*
X281850498Y-135487500D01*
X281848050Y-135487693D01*
X281848042Y-135487693D01*
X281819579Y-135489933D01*
X281819574Y-135489934D01*
X281813169Y-135490438D01*
X281713231Y-135519472D01*
X281661012Y-135534643D01*
X281661010Y-135534644D01*
X281653399Y-135536855D01*
X281646572Y-135540892D01*
X281646573Y-135540892D01*
X281517020Y-135617509D01*
X281517017Y-135617511D01*
X281510193Y-135621547D01*
X281392547Y-135739193D01*
X281388511Y-135746017D01*
X281388509Y-135746020D01*
X281383366Y-135754717D01*
X281307855Y-135882399D01*
X281305644Y-135890010D01*
X281305643Y-135890012D01*
X281304194Y-135895000D01*
X281261438Y-136042169D01*
X281260934Y-136048574D01*
X281260933Y-136048579D01*
X281258693Y-136077042D01*
X281258500Y-136079498D01*
X281258500Y-137862502D01*
X281258693Y-137864950D01*
X281258693Y-137864958D01*
X281260927Y-137893334D01*
X281261438Y-137899831D01*
X281307855Y-138059601D01*
X281311892Y-138066427D01*
X281388509Y-138195980D01*
X281388511Y-138195983D01*
X281392547Y-138202807D01*
X281510193Y-138320453D01*
X281517017Y-138324489D01*
X281517020Y-138324491D01*
X281618771Y-138384666D01*
X281653399Y-138405145D01*
X281661010Y-138407356D01*
X281661012Y-138407357D01*
X281713231Y-138422528D01*
X281813169Y-138451562D01*
X281819574Y-138452066D01*
X281819579Y-138452067D01*
X281848042Y-138454307D01*
X281848050Y-138454307D01*
X281850498Y-138454500D01*
X282283502Y-138454500D01*
X282285950Y-138454307D01*
X282285958Y-138454307D01*
X282314421Y-138452067D01*
X282314426Y-138452066D01*
X282320831Y-138451562D01*
X282420769Y-138422528D01*
X282472988Y-138407357D01*
X282472990Y-138407356D01*
X282480601Y-138405145D01*
X282623807Y-138320453D01*
X282626489Y-138317771D01*
X282690861Y-138292498D01*
X282760484Y-138306400D01*
X282776312Y-138316572D01*
X282780193Y-138320453D01*
X282923399Y-138405145D01*
X282931010Y-138407356D01*
X282931012Y-138407357D01*
X282983231Y-138422528D01*
X283083169Y-138451562D01*
X283089574Y-138452066D01*
X283089579Y-138452067D01*
X283118042Y-138454307D01*
X283118050Y-138454307D01*
X283120498Y-138454500D01*
X283553502Y-138454500D01*
X283555950Y-138454307D01*
X283555958Y-138454307D01*
X283584421Y-138452067D01*
X283584426Y-138452066D01*
X283590831Y-138451562D01*
X283690769Y-138422528D01*
X283742988Y-138407357D01*
X283742990Y-138407356D01*
X283750601Y-138405145D01*
X283893807Y-138320453D01*
X283896489Y-138317771D01*
X283960861Y-138292498D01*
X284030484Y-138306400D01*
X284046312Y-138316572D01*
X284050193Y-138320453D01*
X284193399Y-138405145D01*
X284201010Y-138407356D01*
X284201012Y-138407357D01*
X284253231Y-138422528D01*
X284353169Y-138451562D01*
X284359574Y-138452066D01*
X284359579Y-138452067D01*
X284388042Y-138454307D01*
X284388050Y-138454307D01*
X284390498Y-138454500D01*
X284823502Y-138454500D01*
X284825950Y-138454307D01*
X284825958Y-138454307D01*
X284854421Y-138452067D01*
X284854426Y-138452066D01*
X284860831Y-138451562D01*
X284960769Y-138422528D01*
X285012988Y-138407357D01*
X285012990Y-138407356D01*
X285020601Y-138405145D01*
X285163807Y-138320453D01*
X285166489Y-138317771D01*
X285230861Y-138292498D01*
X285300484Y-138306400D01*
X285316312Y-138316572D01*
X285320193Y-138320453D01*
X285463399Y-138405145D01*
X285471010Y-138407356D01*
X285471012Y-138407357D01*
X285523231Y-138422528D01*
X285623169Y-138451562D01*
X285629574Y-138452066D01*
X285629579Y-138452067D01*
X285658042Y-138454307D01*
X285658050Y-138454307D01*
X285660498Y-138454500D01*
X286093502Y-138454500D01*
X286095950Y-138454307D01*
X286095958Y-138454307D01*
X286124421Y-138452067D01*
X286124426Y-138452066D01*
X286130831Y-138451562D01*
X286230769Y-138422528D01*
X286282988Y-138407357D01*
X286282990Y-138407356D01*
X286290601Y-138405145D01*
X286433807Y-138320453D01*
X286436489Y-138317771D01*
X286500861Y-138292498D01*
X286570484Y-138306400D01*
X286586312Y-138316572D01*
X286590193Y-138320453D01*
X286733399Y-138405145D01*
X286747615Y-138409275D01*
X286762918Y-138413721D01*
X286822753Y-138451935D01*
X286852430Y-138516431D01*
X286842526Y-138586734D01*
X286821403Y-138619024D01*
X286788960Y-138655056D01*
X286693473Y-138820444D01*
X286681391Y-138857629D01*
X286641762Y-138979594D01*
X286634458Y-139002072D01*
X286633768Y-139008635D01*
X286633768Y-139008636D01*
X286629475Y-139049481D01*
X286607252Y-139108760D01*
X286579872Y-139147718D01*
X286575939Y-139153014D01*
X286536524Y-139203282D01*
X286533401Y-139210198D01*
X286532017Y-139212484D01*
X286523643Y-139227165D01*
X286522378Y-139229525D01*
X286518010Y-139235739D01*
X286515250Y-139242818D01*
X286515249Y-139242820D01*
X286494798Y-139295275D01*
X286492247Y-139301344D01*
X286465955Y-139359573D01*
X286464571Y-139367040D01*
X286463770Y-139369595D01*
X286459141Y-139385848D01*
X286458478Y-139388428D01*
X286455718Y-139395509D01*
X286454727Y-139403040D01*
X286454726Y-139403042D01*
X286447379Y-139458852D01*
X286446348Y-139465359D01*
X286434704Y-139528186D01*
X286435141Y-139535766D01*
X286435141Y-139535767D01*
X286438291Y-139590392D01*
X286438500Y-139597646D01*
X286438500Y-140362007D01*
X286418498Y-140430128D01*
X286364842Y-140476621D01*
X286294568Y-140486725D01*
X286277348Y-140483004D01*
X286137011Y-140442233D01*
X286137007Y-140442232D01*
X286130831Y-140440438D01*
X286124426Y-140439934D01*
X286124421Y-140439933D01*
X286095958Y-140437693D01*
X286095950Y-140437693D01*
X286093502Y-140437500D01*
X285660498Y-140437500D01*
X285658050Y-140437693D01*
X285658042Y-140437693D01*
X285629579Y-140439933D01*
X285629574Y-140439934D01*
X285623169Y-140440438D01*
X285558858Y-140459122D01*
X285471012Y-140484643D01*
X285471010Y-140484644D01*
X285463399Y-140486855D01*
X285320193Y-140571547D01*
X285317511Y-140574229D01*
X285253139Y-140599502D01*
X285183516Y-140585600D01*
X285167688Y-140575428D01*
X285163807Y-140571547D01*
X285020601Y-140486855D01*
X285012990Y-140484644D01*
X285012988Y-140484643D01*
X284925142Y-140459122D01*
X284860831Y-140440438D01*
X284854426Y-140439934D01*
X284854421Y-140439933D01*
X284825958Y-140437693D01*
X284825950Y-140437693D01*
X284823502Y-140437500D01*
X284390498Y-140437500D01*
X284388050Y-140437693D01*
X284388042Y-140437693D01*
X284359579Y-140439933D01*
X284359574Y-140439934D01*
X284353169Y-140440438D01*
X284206785Y-140482966D01*
X284135789Y-140482763D01*
X284076173Y-140444209D01*
X284046865Y-140379544D01*
X284045925Y-140353403D01*
X284049726Y-140297648D01*
X284038736Y-140234681D01*
X284037775Y-140228165D01*
X284035680Y-140210855D01*
X284030102Y-140164758D01*
X284027419Y-140157657D01*
X284026778Y-140155048D01*
X284022309Y-140138715D01*
X284021548Y-140136195D01*
X284020243Y-140128717D01*
X284014270Y-140115109D01*
X283994559Y-140070204D01*
X283992068Y-140064099D01*
X283972175Y-140011456D01*
X283972173Y-140011452D01*
X283969487Y-140004344D01*
X283965184Y-139998083D01*
X283963947Y-139995717D01*
X283955726Y-139980947D01*
X283954369Y-139978652D01*
X283951315Y-139971695D01*
X283946690Y-139965668D01*
X283946688Y-139965664D01*
X283912413Y-139920996D01*
X283908535Y-139915659D01*
X283872357Y-139863019D01*
X283858411Y-139850593D01*
X283825830Y-139821565D01*
X283820554Y-139816584D01*
X282969450Y-138965480D01*
X282963596Y-138959215D01*
X282952735Y-138946765D01*
X282925561Y-138915615D01*
X282873280Y-138878871D01*
X282867986Y-138874939D01*
X282823693Y-138840209D01*
X282817718Y-138835524D01*
X282810802Y-138832401D01*
X282808516Y-138831017D01*
X282793835Y-138822643D01*
X282791475Y-138821378D01*
X282785261Y-138817010D01*
X282778182Y-138814250D01*
X282778180Y-138814249D01*
X282725725Y-138793798D01*
X282719656Y-138791247D01*
X282661427Y-138764955D01*
X282653960Y-138763571D01*
X282651405Y-138762770D01*
X282635152Y-138758141D01*
X282632572Y-138757478D01*
X282625491Y-138754718D01*
X282617960Y-138753727D01*
X282617958Y-138753726D01*
X282588339Y-138749827D01*
X282562139Y-138746378D01*
X282555641Y-138745348D01*
X282492814Y-138733704D01*
X282485234Y-138734141D01*
X282485233Y-138734141D01*
X282430608Y-138737291D01*
X282423354Y-138737500D01*
X277733784Y-138737500D01*
X277665663Y-138717498D01*
X277619170Y-138663842D01*
X277608263Y-138600519D01*
X277614828Y-138525475D01*
X277615307Y-138520000D01*
X277596115Y-138300629D01*
X277539120Y-138087924D01*
X277478778Y-137958519D01*
X277448382Y-137893334D01*
X277448379Y-137893329D01*
X277446056Y-137888347D01*
X277427959Y-137862502D01*
X277322908Y-137712473D01*
X277322906Y-137712470D01*
X277319749Y-137707962D01*
X277164038Y-137552251D01*
X277156254Y-137546800D01*
X277031802Y-137459658D01*
X276983654Y-137425944D01*
X276784076Y-137332880D01*
X276668332Y-137301866D01*
X276576682Y-137277308D01*
X276576681Y-137277308D01*
X276571371Y-137275885D01*
X276488274Y-137268615D01*
X276422155Y-137242752D01*
X276410160Y-137232189D01*
X276401405Y-137223434D01*
X276367379Y-137161122D01*
X276364500Y-137134339D01*
X276364500Y-134745480D01*
X276384502Y-134677359D01*
X276401327Y-134656462D01*
X276401624Y-134656165D01*
X276505305Y-134552303D01*
X276508102Y-134547765D01*
X276565353Y-134507176D01*
X276636276Y-134503946D01*
X276697687Y-134539572D01*
X276705062Y-134548068D01*
X276713098Y-134558207D01*
X276827829Y-134672739D01*
X276839240Y-134681751D01*
X276977243Y-134766816D01*
X276990424Y-134772963D01*
X277144710Y-134824138D01*
X277158086Y-134827005D01*
X277252438Y-134836672D01*
X277258854Y-134837000D01*
X277283885Y-134837000D01*
X277299124Y-134832525D01*
X277300329Y-134831135D01*
X277302000Y-134823452D01*
X277302000Y-134818884D01*
X277810000Y-134818884D01*
X277814475Y-134834123D01*
X277815865Y-134835328D01*
X277823548Y-134836999D01*
X277853095Y-134836999D01*
X277859614Y-134836662D01*
X277955206Y-134826743D01*
X277968600Y-134823851D01*
X278122784Y-134772412D01*
X278135962Y-134766239D01*
X278273807Y-134680937D01*
X278285208Y-134671901D01*
X278399739Y-134557171D01*
X278408751Y-134545760D01*
X278493816Y-134407757D01*
X278499963Y-134394576D01*
X278551138Y-134240290D01*
X278554005Y-134226914D01*
X278563672Y-134132562D01*
X278564000Y-134126146D01*
X278564000Y-133876115D01*
X278559525Y-133860876D01*
X278558135Y-133859671D01*
X278550452Y-133858000D01*
X277828115Y-133858000D01*
X277812876Y-133862475D01*
X277811671Y-133863865D01*
X277810000Y-133871548D01*
X277810000Y-134818884D01*
X277302000Y-134818884D01*
X277302000Y-133331885D01*
X277810000Y-133331885D01*
X277814475Y-133347124D01*
X277815865Y-133348329D01*
X277823548Y-133350000D01*
X278545884Y-133350000D01*
X278561123Y-133345525D01*
X278562328Y-133344135D01*
X278563999Y-133336452D01*
X278563999Y-133081905D01*
X278563662Y-133075386D01*
X278553743Y-132979794D01*
X278550851Y-132966400D01*
X278499412Y-132812216D01*
X278493239Y-132799038D01*
X278407937Y-132661193D01*
X278398901Y-132649792D01*
X278284171Y-132535261D01*
X278272760Y-132526249D01*
X278134757Y-132441184D01*
X278121576Y-132435037D01*
X277967290Y-132383862D01*
X277953914Y-132380995D01*
X277859562Y-132371328D01*
X277853145Y-132371000D01*
X277828115Y-132371000D01*
X277812876Y-132375475D01*
X277811671Y-132376865D01*
X277810000Y-132384548D01*
X277810000Y-133331885D01*
X277302000Y-133331885D01*
X277302000Y-132389116D01*
X277297525Y-132373877D01*
X277296135Y-132372672D01*
X277288452Y-132371001D01*
X277258905Y-132371001D01*
X277252386Y-132371338D01*
X277156794Y-132381257D01*
X277143400Y-132384149D01*
X276989216Y-132435588D01*
X276976038Y-132441761D01*
X276838193Y-132527063D01*
X276826792Y-132536099D01*
X276712262Y-132650828D01*
X276705206Y-132659762D01*
X276647288Y-132700823D01*
X276576365Y-132704053D01*
X276514954Y-132668426D01*
X276508154Y-132660593D01*
X276504478Y-132654652D01*
X276379303Y-132529695D01*
X276373072Y-132525854D01*
X276234968Y-132440725D01*
X276234966Y-132440724D01*
X276228738Y-132436885D01*
X276110110Y-132397538D01*
X276067389Y-132383368D01*
X276067387Y-132383368D01*
X276060861Y-132381203D01*
X276054025Y-132380503D01*
X276054022Y-132380502D01*
X276010969Y-132376091D01*
X275956400Y-132370500D01*
X275355600Y-132370500D01*
X275352354Y-132370837D01*
X275352350Y-132370837D01*
X275256692Y-132380762D01*
X275256688Y-132380763D01*
X275249834Y-132381474D01*
X275243298Y-132383655D01*
X275243296Y-132383655D01*
X275132101Y-132420753D01*
X275082054Y-132437450D01*
X274931652Y-132530522D01*
X274806695Y-132655697D01*
X274802855Y-132661927D01*
X274802854Y-132661928D01*
X274740086Y-132763757D01*
X274713885Y-132806262D01*
X274687436Y-132886005D01*
X274663456Y-132958303D01*
X274658203Y-132974139D01*
X274647500Y-133078600D01*
X274647500Y-134129400D01*
X274647837Y-134132646D01*
X274647837Y-134132650D01*
X274657618Y-134226914D01*
X274658474Y-134235166D01*
X274660655Y-134241702D01*
X274660655Y-134241704D01*
X274686255Y-134318435D01*
X274714450Y-134402946D01*
X274807522Y-134553348D01*
X274812704Y-134558521D01*
X274910518Y-134656165D01*
X274944597Y-134718448D01*
X274947500Y-134745338D01*
X274947500Y-137451088D01*
X274947208Y-137459658D01*
X274945202Y-137489091D01*
X274943275Y-137517352D01*
X274944580Y-137524829D01*
X274944580Y-137524830D01*
X274954261Y-137580299D01*
X274955223Y-137586821D01*
X274962898Y-137650242D01*
X274965581Y-137657343D01*
X274966222Y-137659952D01*
X274970685Y-137676262D01*
X274971450Y-137678798D01*
X274972757Y-137686284D01*
X274975811Y-137693241D01*
X274998442Y-137744795D01*
X275000933Y-137750899D01*
X275023513Y-137810656D01*
X275027817Y-137816919D01*
X275029054Y-137819285D01*
X275037299Y-137834097D01*
X275038632Y-137836351D01*
X275041685Y-137843305D01*
X275080142Y-137893421D01*
X275080579Y-137893991D01*
X275084459Y-137899332D01*
X275116339Y-137945720D01*
X275116344Y-137945725D01*
X275120643Y-137951981D01*
X275127983Y-137958521D01*
X275128847Y-137959907D01*
X275131337Y-137962731D01*
X275130866Y-137963146D01*
X275165537Y-138018770D01*
X275162883Y-138087389D01*
X275164880Y-138087924D01*
X275107885Y-138300629D01*
X275088693Y-138520000D01*
X275107885Y-138739371D01*
X275164880Y-138952076D01*
X275191254Y-139008636D01*
X275255618Y-139146666D01*
X275255621Y-139146671D01*
X275257944Y-139151653D01*
X275261100Y-139156160D01*
X275261101Y-139156162D01*
X275362769Y-139301358D01*
X275384251Y-139332038D01*
X275539962Y-139487749D01*
X275544471Y-139490906D01*
X275544473Y-139490908D01*
X275576625Y-139513421D01*
X275720346Y-139614056D01*
X275725331Y-139616380D01*
X275725337Y-139616384D01*
X275746133Y-139626081D01*
X275799419Y-139672998D01*
X275818880Y-139741275D01*
X275798339Y-139809235D01*
X275746135Y-139854470D01*
X275725588Y-139864051D01*
X275716093Y-139869534D01*
X275674851Y-139898411D01*
X275666477Y-139908887D01*
X275673545Y-139922334D01*
X276352000Y-140600790D01*
X277390388Y-141639177D01*
X277402162Y-141645606D01*
X277414176Y-141636310D01*
X277442466Y-141595907D01*
X277447946Y-141586417D01*
X277536326Y-141396887D01*
X277540072Y-141386595D01*
X277594196Y-141184599D01*
X277596099Y-141173804D01*
X277614326Y-140965475D01*
X277614326Y-140954525D01*
X277596099Y-140746196D01*
X277594196Y-140735401D01*
X277540072Y-140533405D01*
X277536324Y-140523108D01*
X277448024Y-140333751D01*
X277437362Y-140263559D01*
X277466341Y-140198746D01*
X277525761Y-140159890D01*
X277562218Y-140154500D01*
X282102340Y-140154500D01*
X282170461Y-140174502D01*
X282191435Y-140191405D01*
X282222435Y-140222405D01*
X282256461Y-140284717D01*
X282251396Y-140355532D01*
X282208849Y-140412368D01*
X282142329Y-140437179D01*
X282133340Y-140437500D01*
X281850498Y-140437500D01*
X281848050Y-140437693D01*
X281848042Y-140437693D01*
X281819579Y-140439933D01*
X281819574Y-140439934D01*
X281813169Y-140440438D01*
X281748858Y-140459122D01*
X281661012Y-140484643D01*
X281661010Y-140484644D01*
X281653399Y-140486855D01*
X281646572Y-140490892D01*
X281646573Y-140490892D01*
X281517020Y-140567509D01*
X281517017Y-140567511D01*
X281510193Y-140571547D01*
X281392547Y-140689193D01*
X281388511Y-140696017D01*
X281388509Y-140696020D01*
X281343099Y-140772804D01*
X281307855Y-140832399D01*
X281305644Y-140840010D01*
X281305643Y-140840012D01*
X281305202Y-140841531D01*
X281261438Y-140992169D01*
X281260934Y-140998574D01*
X281260933Y-140998579D01*
X281259308Y-141019231D01*
X281258500Y-141029498D01*
X281258500Y-142565500D01*
X281238498Y-142633621D01*
X281184842Y-142680114D01*
X281132500Y-142691500D01*
X277457839Y-142691500D01*
X277389718Y-142671498D01*
X277354626Y-142637771D01*
X277322908Y-142592473D01*
X277322906Y-142592470D01*
X277319749Y-142587962D01*
X277164038Y-142432251D01*
X277153799Y-142425081D01*
X277038159Y-142344109D01*
X276983654Y-142305944D01*
X276978669Y-142303620D01*
X276978663Y-142303616D01*
X276957867Y-142293919D01*
X276904581Y-142247002D01*
X276885120Y-142178725D01*
X276905661Y-142110765D01*
X276957866Y-142065529D01*
X276978416Y-142055946D01*
X276987912Y-142050464D01*
X277029148Y-142021590D01*
X277037523Y-142011112D01*
X277030457Y-141997668D01*
X276364811Y-141332021D01*
X276350868Y-141324408D01*
X276349034Y-141324539D01*
X276342420Y-141328790D01*
X275672820Y-141998391D01*
X275666393Y-142010161D01*
X275675687Y-142022175D01*
X275716088Y-142050464D01*
X275725584Y-142055946D01*
X275746134Y-142065529D01*
X275799419Y-142112446D01*
X275818880Y-142180723D01*
X275798338Y-142248683D01*
X275746135Y-142293918D01*
X275725340Y-142303615D01*
X275725333Y-142303619D01*
X275720347Y-142305944D01*
X275715840Y-142309100D01*
X275715838Y-142309101D01*
X275544473Y-142429092D01*
X275544470Y-142429094D01*
X275539962Y-142432251D01*
X275384251Y-142587962D01*
X275381094Y-142592470D01*
X275381092Y-142592473D01*
X275311753Y-142691500D01*
X275257944Y-142768347D01*
X275255621Y-142773329D01*
X275255618Y-142773334D01*
X275218885Y-142852109D01*
X275164880Y-142967924D01*
X275107885Y-143180629D01*
X275088693Y-143400000D01*
X275104597Y-143581784D01*
X275090608Y-143651387D01*
X275068171Y-143681859D01*
X274835480Y-143914550D01*
X274829215Y-143920404D01*
X274785615Y-143958439D01*
X274773680Y-143975421D01*
X274748872Y-144010719D01*
X274744939Y-144016014D01*
X274705524Y-144066282D01*
X274702401Y-144073198D01*
X274701017Y-144075484D01*
X274692643Y-144090165D01*
X274691378Y-144092525D01*
X274687010Y-144098739D01*
X274684250Y-144105818D01*
X274684249Y-144105820D01*
X274663798Y-144158275D01*
X274661247Y-144164344D01*
X274634955Y-144222573D01*
X274633571Y-144230040D01*
X274632770Y-144232595D01*
X274628141Y-144248848D01*
X274627478Y-144251428D01*
X274624718Y-144258509D01*
X274618025Y-144309352D01*
X274616379Y-144321852D01*
X274615348Y-144328359D01*
X274603704Y-144391186D01*
X274604141Y-144398766D01*
X274604141Y-144398767D01*
X274607291Y-144453392D01*
X274607500Y-144460646D01*
X274607500Y-147482520D01*
X274587498Y-147550641D01*
X274570675Y-147571536D01*
X274466695Y-147675697D01*
X274462855Y-147681927D01*
X274462854Y-147681928D01*
X274406244Y-147773767D01*
X274373885Y-147826262D01*
X274359174Y-147870615D01*
X274320691Y-147986639D01*
X274318203Y-147994139D01*
X274307500Y-148098600D01*
X274307500Y-149149400D01*
X274307837Y-149152646D01*
X274307837Y-149152650D01*
X274317618Y-149246914D01*
X274318474Y-149255166D01*
X274320655Y-149261702D01*
X274320655Y-149261704D01*
X274329404Y-149287928D01*
X274374450Y-149422946D01*
X274467522Y-149573348D01*
X274592697Y-149698305D01*
X274598927Y-149702145D01*
X274598928Y-149702146D01*
X274736288Y-149786816D01*
X274743262Y-149791115D01*
X274771904Y-149800615D01*
X274904611Y-149844632D01*
X274904613Y-149844632D01*
X274911139Y-149846797D01*
X274917975Y-149847497D01*
X274917978Y-149847498D01*
X274959431Y-149851745D01*
X275015600Y-149857500D01*
X275616400Y-149857500D01*
X275619646Y-149857163D01*
X275619650Y-149857163D01*
X275715308Y-149847238D01*
X275715312Y-149847237D01*
X275722166Y-149846526D01*
X275728702Y-149844345D01*
X275728704Y-149844345D01*
X275875921Y-149795229D01*
X275889946Y-149790550D01*
X276040348Y-149697478D01*
X276165305Y-149572303D01*
X276168102Y-149567765D01*
X276225353Y-149527176D01*
X276296276Y-149523946D01*
X276357687Y-149559572D01*
X276365062Y-149568068D01*
X276373098Y-149578207D01*
X276487829Y-149692739D01*
X276499240Y-149701751D01*
X276637243Y-149786816D01*
X276650424Y-149792963D01*
X276804710Y-149844138D01*
X276818086Y-149847005D01*
X276912438Y-149856672D01*
X276918854Y-149857000D01*
X276943885Y-149857000D01*
X276959124Y-149852525D01*
X276960329Y-149851135D01*
X276962000Y-149843452D01*
X276962000Y-149838884D01*
X277470000Y-149838884D01*
X277474475Y-149854123D01*
X277475865Y-149855328D01*
X277483548Y-149856999D01*
X277513095Y-149856999D01*
X277519614Y-149856662D01*
X277615206Y-149846743D01*
X277628600Y-149843851D01*
X277782784Y-149792412D01*
X277795962Y-149786239D01*
X277933807Y-149700937D01*
X277945208Y-149691901D01*
X278059739Y-149577171D01*
X278068751Y-149565760D01*
X278153816Y-149427757D01*
X278159963Y-149414576D01*
X278211138Y-149260290D01*
X278214005Y-149246914D01*
X278223672Y-149152562D01*
X278224000Y-149146146D01*
X278224000Y-148896115D01*
X278219525Y-148880876D01*
X278218135Y-148879671D01*
X278210452Y-148878000D01*
X277488115Y-148878000D01*
X277472876Y-148882475D01*
X277471671Y-148883865D01*
X277470000Y-148891548D01*
X277470000Y-149838884D01*
X276962000Y-149838884D01*
X276962000Y-148351885D01*
X277470000Y-148351885D01*
X277474475Y-148367124D01*
X277475865Y-148368329D01*
X277483548Y-148370000D01*
X278205884Y-148370000D01*
X278221123Y-148365525D01*
X278222328Y-148364135D01*
X278223999Y-148356452D01*
X278223999Y-148101905D01*
X278223662Y-148095386D01*
X278213743Y-147999794D01*
X278210851Y-147986400D01*
X278159412Y-147832216D01*
X278153239Y-147819038D01*
X278067937Y-147681193D01*
X278058901Y-147669792D01*
X277944171Y-147555261D01*
X277932760Y-147546249D01*
X277794757Y-147461184D01*
X277781576Y-147455037D01*
X277627290Y-147403862D01*
X277613914Y-147400995D01*
X277519562Y-147391328D01*
X277513145Y-147391000D01*
X277488115Y-147391000D01*
X277472876Y-147395475D01*
X277471671Y-147396865D01*
X277470000Y-147404548D01*
X277470000Y-148351885D01*
X276962000Y-148351885D01*
X276962000Y-147409116D01*
X276957525Y-147393877D01*
X276956135Y-147392672D01*
X276948452Y-147391001D01*
X276918905Y-147391001D01*
X276912386Y-147391338D01*
X276816794Y-147401257D01*
X276803400Y-147404149D01*
X276649216Y-147455588D01*
X276636038Y-147461761D01*
X276498193Y-147547063D01*
X276486792Y-147556099D01*
X276372262Y-147670828D01*
X276365206Y-147679762D01*
X276307288Y-147720823D01*
X276236365Y-147724053D01*
X276174954Y-147688426D01*
X276168154Y-147680593D01*
X276164478Y-147674652D01*
X276156517Y-147666705D01*
X276061482Y-147571835D01*
X276027403Y-147509552D01*
X276024500Y-147482662D01*
X276024500Y-144781660D01*
X276044502Y-144713539D01*
X276061405Y-144692565D01*
X276070141Y-144683829D01*
X276132453Y-144649803D01*
X276170214Y-144647403D01*
X276352000Y-144663307D01*
X276571371Y-144644115D01*
X276784076Y-144587120D01*
X276983654Y-144494056D01*
X277119740Y-144398767D01*
X277159527Y-144370908D01*
X277159529Y-144370906D01*
X277164038Y-144367749D01*
X277319749Y-144212038D01*
X277323854Y-144206176D01*
X277354626Y-144162229D01*
X277410084Y-144117901D01*
X277457839Y-144108500D01*
X281674088Y-144108500D01*
X281682658Y-144108792D01*
X281732776Y-144112209D01*
X281732780Y-144112209D01*
X281740352Y-144112725D01*
X281747829Y-144111420D01*
X281747830Y-144111420D01*
X281779916Y-144105820D01*
X281803303Y-144101738D01*
X281809821Y-144100777D01*
X281873242Y-144093102D01*
X281880343Y-144090419D01*
X281882952Y-144089778D01*
X281899262Y-144085315D01*
X281901798Y-144084550D01*
X281909284Y-144083243D01*
X281967800Y-144057556D01*
X281973904Y-144055065D01*
X282026548Y-144035173D01*
X282026549Y-144035172D01*
X282033656Y-144032487D01*
X282039919Y-144028183D01*
X282042285Y-144026946D01*
X282057097Y-144018701D01*
X282059351Y-144017368D01*
X282066305Y-144014315D01*
X282117002Y-143975413D01*
X282122332Y-143971541D01*
X282168720Y-143939661D01*
X282168725Y-143939656D01*
X282174981Y-143935357D01*
X282180429Y-143929243D01*
X282216435Y-143888830D01*
X282221416Y-143883554D01*
X282547520Y-143557450D01*
X282553785Y-143551596D01*
X282591660Y-143518555D01*
X282597385Y-143513561D01*
X282634114Y-143461300D01*
X282638046Y-143456005D01*
X282656508Y-143432460D01*
X282677477Y-143405718D01*
X282680602Y-143398796D01*
X282681964Y-143396548D01*
X282690385Y-143381785D01*
X282691626Y-143379471D01*
X282695990Y-143373261D01*
X282696825Y-143371120D01*
X282745059Y-143322145D01*
X282814316Y-143306525D01*
X282870422Y-143323814D01*
X282923399Y-143355145D01*
X282931010Y-143357356D01*
X282931012Y-143357357D01*
X282958625Y-143365379D01*
X283083169Y-143401562D01*
X283089574Y-143402066D01*
X283089579Y-143402067D01*
X283118042Y-143404307D01*
X283118050Y-143404307D01*
X283120498Y-143404500D01*
X283553502Y-143404500D01*
X283555950Y-143404307D01*
X283555958Y-143404307D01*
X283584421Y-143402067D01*
X283584426Y-143402066D01*
X283590831Y-143401562D01*
X283597007Y-143399768D01*
X283597011Y-143399767D01*
X283737348Y-143358996D01*
X283808344Y-143359199D01*
X283867960Y-143397753D01*
X283897268Y-143462418D01*
X283898500Y-143479993D01*
X283898500Y-146596684D01*
X283878498Y-146664805D01*
X283863594Y-146683735D01*
X283832629Y-146716138D01*
X283725201Y-146873621D01*
X283670293Y-146918621D01*
X283599768Y-146926792D01*
X283536021Y-146895538D01*
X283515324Y-146871054D01*
X283434822Y-146746617D01*
X283434820Y-146746614D01*
X283432014Y-146742277D01*
X283281670Y-146577051D01*
X283277619Y-146573852D01*
X283277615Y-146573848D01*
X283110414Y-146441800D01*
X283110410Y-146441798D01*
X283106359Y-146438598D01*
X282910789Y-146330638D01*
X282905920Y-146328914D01*
X282905916Y-146328912D01*
X282705087Y-146257795D01*
X282705083Y-146257794D01*
X282700212Y-146256069D01*
X282695119Y-146255162D01*
X282695116Y-146255161D01*
X282485373Y-146217800D01*
X282485367Y-146217799D01*
X282480284Y-146216894D01*
X282406452Y-146215992D01*
X282262081Y-146214228D01*
X282262079Y-146214228D01*
X282256911Y-146214165D01*
X282036091Y-146247955D01*
X281823756Y-146317357D01*
X281793443Y-146333137D01*
X281639790Y-146413124D01*
X281625607Y-146420507D01*
X281621474Y-146423610D01*
X281621471Y-146423612D01*
X281466409Y-146540036D01*
X281446965Y-146554635D01*
X281292629Y-146716138D01*
X281166743Y-146900680D01*
X281072688Y-147103305D01*
X281012989Y-147318570D01*
X280989251Y-147540695D01*
X280989548Y-147545848D01*
X280989548Y-147545851D01*
X280996736Y-147670517D01*
X281002110Y-147763715D01*
X281003247Y-147768761D01*
X281003248Y-147768767D01*
X281017606Y-147832475D01*
X281051222Y-147981639D01*
X281135266Y-148188616D01*
X281186942Y-148272944D01*
X281249291Y-148374688D01*
X281251987Y-148379088D01*
X281398250Y-148547938D01*
X281570126Y-148690632D01*
X281763000Y-148803338D01*
X281767825Y-148805180D01*
X281767826Y-148805181D01*
X281840612Y-148832975D01*
X281971692Y-148883030D01*
X281976760Y-148884061D01*
X281976763Y-148884062D01*
X282036006Y-148896115D01*
X282190597Y-148927567D01*
X282195772Y-148927757D01*
X282195774Y-148927757D01*
X282408673Y-148935564D01*
X282408677Y-148935564D01*
X282413837Y-148935753D01*
X282418957Y-148935097D01*
X282418959Y-148935097D01*
X282630288Y-148908025D01*
X282630289Y-148908025D01*
X282635416Y-148907368D01*
X282653995Y-148901794D01*
X282844429Y-148844661D01*
X282844434Y-148844659D01*
X282849384Y-148843174D01*
X283049994Y-148744896D01*
X283231860Y-148615173D01*
X283287039Y-148560187D01*
X283372036Y-148475486D01*
X283390096Y-148457489D01*
X283449594Y-148374689D01*
X283520453Y-148276077D01*
X283521776Y-148277028D01*
X283568645Y-148233857D01*
X283638580Y-148221625D01*
X283704026Y-148249144D01*
X283731875Y-148280994D01*
X283791987Y-148379088D01*
X283938250Y-148547938D01*
X284110126Y-148690632D01*
X284303000Y-148803338D01*
X284307825Y-148805180D01*
X284307826Y-148805181D01*
X284380612Y-148832975D01*
X284511692Y-148883030D01*
X284516760Y-148884061D01*
X284516763Y-148884062D01*
X284576006Y-148896115D01*
X284730597Y-148927567D01*
X284735772Y-148927757D01*
X284735774Y-148927757D01*
X284948673Y-148935564D01*
X284948677Y-148935564D01*
X284953837Y-148935753D01*
X284958957Y-148935097D01*
X284958959Y-148935097D01*
X285170288Y-148908025D01*
X285170289Y-148908025D01*
X285175416Y-148907368D01*
X285193995Y-148901794D01*
X285384429Y-148844661D01*
X285384434Y-148844659D01*
X285389384Y-148843174D01*
X285589994Y-148744896D01*
X285771860Y-148615173D01*
X285827039Y-148560187D01*
X285912036Y-148475486D01*
X285930096Y-148457489D01*
X285989594Y-148374689D01*
X286060453Y-148276077D01*
X286061776Y-148277028D01*
X286108645Y-148233857D01*
X286178580Y-148221625D01*
X286244026Y-148249144D01*
X286271875Y-148280994D01*
X286331987Y-148379088D01*
X286478250Y-148547938D01*
X286650126Y-148690632D01*
X286843000Y-148803338D01*
X286847825Y-148805180D01*
X286847826Y-148805181D01*
X286920612Y-148832975D01*
X287051692Y-148883030D01*
X287056760Y-148884061D01*
X287056763Y-148884062D01*
X287116006Y-148896115D01*
X287270597Y-148927567D01*
X287275772Y-148927757D01*
X287275774Y-148927757D01*
X287488673Y-148935564D01*
X287488677Y-148935564D01*
X287493837Y-148935753D01*
X287498957Y-148935097D01*
X287498959Y-148935097D01*
X287710288Y-148908025D01*
X287710289Y-148908025D01*
X287715416Y-148907368D01*
X287733995Y-148901794D01*
X287924429Y-148844661D01*
X287924434Y-148844659D01*
X287929384Y-148843174D01*
X288129994Y-148744896D01*
X288311860Y-148615173D01*
X288367039Y-148560187D01*
X288420479Y-148506933D01*
X288482851Y-148473017D01*
X288553658Y-148478205D01*
X288610419Y-148520851D01*
X288627401Y-148551954D01*
X288668676Y-148662054D01*
X288677214Y-148677649D01*
X288753715Y-148779724D01*
X288766276Y-148792285D01*
X288868351Y-148868786D01*
X288883946Y-148877324D01*
X289004394Y-148922478D01*
X289019649Y-148926105D01*
X289070514Y-148931631D01*
X289077328Y-148932000D01*
X289699885Y-148932000D01*
X289715124Y-148927525D01*
X289716329Y-148926135D01*
X289718000Y-148918452D01*
X289718000Y-148913884D01*
X290226000Y-148913884D01*
X290230475Y-148929123D01*
X290231865Y-148930328D01*
X290239548Y-148931999D01*
X290866669Y-148931999D01*
X290873490Y-148931629D01*
X290924352Y-148926105D01*
X290939604Y-148922479D01*
X291060054Y-148877324D01*
X291075649Y-148868786D01*
X291177724Y-148792285D01*
X291190285Y-148779724D01*
X291266786Y-148677649D01*
X291275324Y-148662054D01*
X291320478Y-148541606D01*
X291324105Y-148526351D01*
X291329631Y-148475486D01*
X291330000Y-148468672D01*
X291330000Y-147846115D01*
X291325525Y-147830876D01*
X291324135Y-147829671D01*
X291316452Y-147828000D01*
X290244115Y-147828000D01*
X290228876Y-147832475D01*
X290227671Y-147833865D01*
X290226000Y-147841548D01*
X290226000Y-148913884D01*
X289718000Y-148913884D01*
X289718000Y-147301885D01*
X290226000Y-147301885D01*
X290230475Y-147317124D01*
X290231865Y-147318329D01*
X290239548Y-147320000D01*
X291311884Y-147320000D01*
X291327123Y-147315525D01*
X291328328Y-147314135D01*
X291329999Y-147306452D01*
X291329999Y-146679331D01*
X291329629Y-146672510D01*
X291324105Y-146621648D01*
X291320479Y-146606396D01*
X291275324Y-146485946D01*
X291266786Y-146470351D01*
X291190285Y-146368276D01*
X291177724Y-146355715D01*
X291075649Y-146279214D01*
X291060054Y-146270676D01*
X290939606Y-146225522D01*
X290924351Y-146221895D01*
X290873486Y-146216369D01*
X290866672Y-146216000D01*
X290244115Y-146216000D01*
X290228876Y-146220475D01*
X290227671Y-146221865D01*
X290226000Y-146229548D01*
X290226000Y-147301885D01*
X289718000Y-147301885D01*
X289718000Y-146234116D01*
X289713525Y-146218877D01*
X289712135Y-146217672D01*
X289704452Y-146216001D01*
X289077331Y-146216001D01*
X289070510Y-146216371D01*
X289019648Y-146221895D01*
X289004396Y-146225521D01*
X288883946Y-146270676D01*
X288868351Y-146279214D01*
X288766276Y-146355715D01*
X288753715Y-146368276D01*
X288677214Y-146470351D01*
X288668676Y-146485946D01*
X288627297Y-146596322D01*
X288584655Y-146653087D01*
X288518093Y-146677786D01*
X288448744Y-146662578D01*
X288416121Y-146636891D01*
X288365151Y-146580876D01*
X288365145Y-146580870D01*
X288361670Y-146577051D01*
X288357619Y-146573852D01*
X288357615Y-146573848D01*
X288190414Y-146441800D01*
X288190410Y-146441798D01*
X288186359Y-146438598D01*
X287990789Y-146330638D01*
X287985920Y-146328914D01*
X287985916Y-146328912D01*
X287785087Y-146257795D01*
X287785083Y-146257794D01*
X287780212Y-146256069D01*
X287775119Y-146255162D01*
X287775116Y-146255161D01*
X287565373Y-146217800D01*
X287565367Y-146217799D01*
X287560284Y-146216894D01*
X287486452Y-146215992D01*
X287342081Y-146214228D01*
X287342079Y-146214228D01*
X287336911Y-146214165D01*
X287172059Y-146239391D01*
X287101698Y-146229923D01*
X287063906Y-146203936D01*
X286791169Y-145931199D01*
X286757143Y-145868887D01*
X286762208Y-145798072D01*
X286804755Y-145741236D01*
X286871275Y-145716425D01*
X286940649Y-145731516D01*
X286954324Y-145740167D01*
X286969784Y-145751400D01*
X287043948Y-145805283D01*
X287071248Y-145825118D01*
X287077276Y-145827802D01*
X287077278Y-145827803D01*
X287239681Y-145900109D01*
X287245712Y-145902794D01*
X287317881Y-145918134D01*
X287426056Y-145941128D01*
X287426061Y-145941128D01*
X287432513Y-145942500D01*
X287623487Y-145942500D01*
X287629939Y-145941128D01*
X287629944Y-145941128D01*
X287738119Y-145918134D01*
X287810288Y-145902794D01*
X287816319Y-145900109D01*
X287978722Y-145827803D01*
X287978724Y-145827802D01*
X287984752Y-145825118D01*
X288012053Y-145805283D01*
X288081814Y-145754598D01*
X288139253Y-145712866D01*
X288143675Y-145707955D01*
X288262621Y-145575852D01*
X288262622Y-145575851D01*
X288267040Y-145570944D01*
X288348347Y-145430116D01*
X288359223Y-145411279D01*
X288359224Y-145411278D01*
X288362527Y-145405556D01*
X288421542Y-145223928D01*
X288426450Y-145177230D01*
X288453463Y-145111573D01*
X288462665Y-145101305D01*
X288897520Y-144666450D01*
X288903785Y-144660596D01*
X288904151Y-144660277D01*
X288947385Y-144622561D01*
X288949060Y-144620177D01*
X289007805Y-144583982D01*
X289078788Y-144585331D01*
X289134636Y-144621221D01*
X289202747Y-144696866D01*
X289263174Y-144740769D01*
X289324053Y-144785000D01*
X289357248Y-144809118D01*
X289363276Y-144811802D01*
X289363278Y-144811803D01*
X289525681Y-144884109D01*
X289531712Y-144886794D01*
X289616254Y-144904764D01*
X289712056Y-144925128D01*
X289712061Y-144925128D01*
X289718513Y-144926500D01*
X289909487Y-144926500D01*
X289915939Y-144925128D01*
X289915944Y-144925128D01*
X290011746Y-144904764D01*
X290096288Y-144886794D01*
X290102319Y-144884109D01*
X290264722Y-144811803D01*
X290264724Y-144811802D01*
X290270752Y-144809118D01*
X290303948Y-144785000D01*
X290364826Y-144740769D01*
X290425253Y-144696866D01*
X290452640Y-144666450D01*
X290548621Y-144559852D01*
X290548622Y-144559851D01*
X290553040Y-144554944D01*
X290648527Y-144389556D01*
X290707542Y-144207928D01*
X290712122Y-144164358D01*
X290726814Y-144024565D01*
X290727504Y-144018000D01*
X290717725Y-143924957D01*
X290708232Y-143834635D01*
X290708232Y-143834633D01*
X290707542Y-143828072D01*
X290648527Y-143646444D01*
X290612957Y-143584835D01*
X290596219Y-143515840D01*
X290619439Y-143448748D01*
X290675246Y-143404861D01*
X290692930Y-143401426D01*
X290698971Y-143397520D01*
X290703000Y-143388630D01*
X290703000Y-143382878D01*
X291211000Y-143382878D01*
X291214973Y-143396409D01*
X291222871Y-143397544D01*
X291362790Y-143356893D01*
X291377221Y-143350648D01*
X291506678Y-143274089D01*
X291519104Y-143264449D01*
X291625449Y-143158104D01*
X291635089Y-143145678D01*
X291711648Y-143016221D01*
X291717893Y-143001790D01*
X291760269Y-142855935D01*
X291762570Y-142843333D01*
X291764807Y-142814916D01*
X291765000Y-142809986D01*
X291765000Y-142193115D01*
X291760525Y-142177876D01*
X291759135Y-142176671D01*
X291751452Y-142175000D01*
X291229115Y-142175000D01*
X291213876Y-142179475D01*
X291212671Y-142180865D01*
X291211000Y-142188548D01*
X291211000Y-143382878D01*
X290703000Y-143382878D01*
X290703000Y-141648885D01*
X291211000Y-141648885D01*
X291215475Y-141664124D01*
X291216865Y-141665329D01*
X291224548Y-141667000D01*
X291746884Y-141667000D01*
X291762123Y-141662525D01*
X291763328Y-141661135D01*
X291764999Y-141653452D01*
X291764999Y-141032017D01*
X291764805Y-141027080D01*
X291762570Y-140998664D01*
X291760270Y-140986069D01*
X291717893Y-140840210D01*
X291711648Y-140825779D01*
X291635089Y-140696322D01*
X291625449Y-140683896D01*
X291519104Y-140577551D01*
X291506678Y-140567911D01*
X291377221Y-140491352D01*
X291362790Y-140485107D01*
X291228395Y-140446061D01*
X291214294Y-140446101D01*
X291211000Y-140453370D01*
X291211000Y-141648885D01*
X290703000Y-141648885D01*
X290703000Y-140459122D01*
X290699027Y-140445591D01*
X290691129Y-140444456D01*
X290551210Y-140485107D01*
X290536779Y-140491352D01*
X290407324Y-140567910D01*
X290399636Y-140573874D01*
X290333551Y-140599821D01*
X290263928Y-140585920D01*
X290247842Y-140575582D01*
X290243807Y-140571547D01*
X290100601Y-140486855D01*
X290092990Y-140484644D01*
X290092988Y-140484643D01*
X290005142Y-140459122D01*
X289940831Y-140440438D01*
X289934426Y-140439934D01*
X289934421Y-140439933D01*
X289905958Y-140437693D01*
X289905950Y-140437693D01*
X289903502Y-140437500D01*
X289470498Y-140437500D01*
X289468050Y-140437693D01*
X289468042Y-140437693D01*
X289439579Y-140439933D01*
X289439574Y-140439934D01*
X289433169Y-140440438D01*
X289368858Y-140459122D01*
X289281012Y-140484643D01*
X289281010Y-140484644D01*
X289273399Y-140486855D01*
X289130193Y-140571547D01*
X289127511Y-140574229D01*
X289063139Y-140599502D01*
X288993516Y-140585600D01*
X288977688Y-140575428D01*
X288973807Y-140571547D01*
X288830601Y-140486855D01*
X288822990Y-140484644D01*
X288822988Y-140484643D01*
X288735142Y-140459122D01*
X288670831Y-140440438D01*
X288664426Y-140439934D01*
X288664421Y-140439933D01*
X288635958Y-140437693D01*
X288635950Y-140437693D01*
X288633502Y-140437500D01*
X288200498Y-140437500D01*
X288198050Y-140437693D01*
X288198042Y-140437693D01*
X288169579Y-140439933D01*
X288169574Y-140439934D01*
X288163169Y-140440438D01*
X288156993Y-140442232D01*
X288156989Y-140442233D01*
X288016652Y-140483004D01*
X287945656Y-140482801D01*
X287886040Y-140444247D01*
X287856732Y-140379582D01*
X287855500Y-140362007D01*
X287855500Y-140122490D01*
X287875502Y-140054369D01*
X287930251Y-140007383D01*
X287937077Y-140004344D01*
X287984752Y-139983118D01*
X288000475Y-139971695D01*
X288086922Y-139908887D01*
X288139253Y-139870866D01*
X288145389Y-139864051D01*
X288262621Y-139733852D01*
X288262622Y-139733851D01*
X288267040Y-139728944D01*
X288278266Y-139709500D01*
X288329648Y-139660507D01*
X288387385Y-139646500D01*
X290547088Y-139646500D01*
X290555658Y-139646792D01*
X290605776Y-139650209D01*
X290605780Y-139650209D01*
X290613352Y-139650725D01*
X290620829Y-139649420D01*
X290620830Y-139649420D01*
X290647308Y-139644799D01*
X290676303Y-139639738D01*
X290682821Y-139638777D01*
X290746242Y-139631102D01*
X290753343Y-139628419D01*
X290755952Y-139627778D01*
X290772262Y-139623315D01*
X290774798Y-139622550D01*
X290782284Y-139621243D01*
X290840800Y-139595556D01*
X290846904Y-139593065D01*
X290899548Y-139573173D01*
X290899549Y-139573172D01*
X290906656Y-139570487D01*
X290912919Y-139566183D01*
X290915285Y-139564946D01*
X290930097Y-139556701D01*
X290932351Y-139555368D01*
X290939305Y-139552315D01*
X290990002Y-139513413D01*
X290995332Y-139509541D01*
X291041720Y-139477661D01*
X291041725Y-139477656D01*
X291047981Y-139473357D01*
X291060905Y-139458852D01*
X291089434Y-139426831D01*
X291094416Y-139421554D01*
X291437535Y-139078436D01*
X291443800Y-139072583D01*
X291481664Y-139039552D01*
X291481665Y-139039551D01*
X291487385Y-139034561D01*
X291524136Y-138982271D01*
X291528028Y-138977029D01*
X291567476Y-138926718D01*
X291570600Y-138919799D01*
X291571988Y-138917507D01*
X291580357Y-138902835D01*
X291581622Y-138900475D01*
X291585990Y-138894261D01*
X291609203Y-138834723D01*
X291611759Y-138828642D01*
X291617012Y-138817010D01*
X291638045Y-138770427D01*
X291639430Y-138762954D01*
X291640234Y-138760388D01*
X291644855Y-138744165D01*
X291645520Y-138741573D01*
X291648282Y-138734491D01*
X291656622Y-138671139D01*
X291657654Y-138664623D01*
X291667911Y-138609281D01*
X291669295Y-138601814D01*
X291665709Y-138539620D01*
X291665500Y-138532367D01*
X291665500Y-138179706D01*
X291683045Y-138115569D01*
X291716145Y-138059601D01*
X291762562Y-137899831D01*
X291763074Y-137893334D01*
X291765307Y-137864958D01*
X291765307Y-137864950D01*
X291765500Y-137862502D01*
X291765500Y-136079498D01*
X291765307Y-136077042D01*
X291763067Y-136048579D01*
X291763066Y-136048574D01*
X291762562Y-136042169D01*
X291719806Y-135895000D01*
X291718357Y-135890012D01*
X291718356Y-135890010D01*
X291716145Y-135882399D01*
X291640634Y-135754717D01*
X291635491Y-135746020D01*
X291635489Y-135746017D01*
X291631453Y-135739193D01*
X291513807Y-135621547D01*
X291506983Y-135617511D01*
X291506980Y-135617509D01*
X291377427Y-135540892D01*
X291377428Y-135540892D01*
X291370601Y-135536855D01*
X291362990Y-135534644D01*
X291362988Y-135534643D01*
X291310769Y-135519472D01*
X291210831Y-135490438D01*
X291204426Y-135489934D01*
X291204421Y-135489933D01*
X291175958Y-135487693D01*
X291175950Y-135487693D01*
X291173502Y-135487500D01*
X290740498Y-135487500D01*
X290738050Y-135487693D01*
X290738042Y-135487693D01*
X290709579Y-135489933D01*
X290709574Y-135489934D01*
X290703169Y-135490438D01*
X290603231Y-135519472D01*
X290551012Y-135534643D01*
X290551010Y-135534644D01*
X290543399Y-135536855D01*
X290400193Y-135621547D01*
X290397511Y-135624229D01*
X290333139Y-135649502D01*
X290263516Y-135635600D01*
X290247688Y-135625428D01*
X290243807Y-135621547D01*
X290100601Y-135536855D01*
X290092990Y-135534644D01*
X290092988Y-135534643D01*
X290040769Y-135519472D01*
X289940831Y-135490438D01*
X289934426Y-135489934D01*
X289934421Y-135489933D01*
X289905958Y-135487693D01*
X289905950Y-135487693D01*
X289903502Y-135487500D01*
X289470498Y-135487500D01*
X289468050Y-135487693D01*
X289468042Y-135487693D01*
X289439579Y-135489933D01*
X289439574Y-135489934D01*
X289433169Y-135490438D01*
X289426993Y-135492232D01*
X289426989Y-135492233D01*
X289286652Y-135533004D01*
X289215656Y-135532801D01*
X289156040Y-135494247D01*
X289126732Y-135429582D01*
X289125500Y-135412007D01*
X289125500Y-135283927D01*
X289125792Y-135275358D01*
X289129210Y-135225225D01*
X289129210Y-135225221D01*
X289129726Y-135217648D01*
X289118736Y-135154681D01*
X289117775Y-135148165D01*
X289117497Y-135145870D01*
X289110102Y-135084758D01*
X289107419Y-135077657D01*
X289106778Y-135075048D01*
X289102309Y-135058715D01*
X289101548Y-135056195D01*
X289100243Y-135048717D01*
X289093779Y-135033991D01*
X289074559Y-134990204D01*
X289072068Y-134984099D01*
X289052175Y-134931456D01*
X289052173Y-134931452D01*
X289049487Y-134924344D01*
X289045184Y-134918083D01*
X289043947Y-134915717D01*
X289035720Y-134900937D01*
X289034369Y-134898652D01*
X289031315Y-134891695D01*
X289026695Y-134885675D01*
X289026692Y-134885669D01*
X288992421Y-134841009D01*
X288988541Y-134835668D01*
X288956661Y-134789280D01*
X288956656Y-134789275D01*
X288952357Y-134783019D01*
X288941071Y-134772963D01*
X288905830Y-134741565D01*
X288900554Y-134736584D01*
X288485450Y-134321480D01*
X288479596Y-134315215D01*
X288460630Y-134293474D01*
X288441561Y-134271615D01*
X288430841Y-134264081D01*
X288386610Y-134208547D01*
X288380259Y-134136484D01*
X288380797Y-134134861D01*
X288391500Y-134030400D01*
X288391500Y-133029600D01*
X288386455Y-132980978D01*
X288381238Y-132930692D01*
X288381237Y-132930688D01*
X288380526Y-132923834D01*
X288343619Y-132813209D01*
X288326868Y-132763002D01*
X288324550Y-132756054D01*
X288255356Y-132644238D01*
X288236500Y-132577935D01*
X288236500Y-132576809D01*
X288256502Y-132508688D01*
X288286932Y-132475985D01*
X288329261Y-132444261D01*
X288416615Y-132327705D01*
X288467745Y-132191316D01*
X288474500Y-132129134D01*
X288474500Y-131582866D01*
X288467745Y-131520684D01*
X288452169Y-131479134D01*
X288757500Y-131479134D01*
X288764255Y-131541316D01*
X288815385Y-131677705D01*
X288902739Y-131794261D01*
X289019295Y-131881615D01*
X289155684Y-131932745D01*
X289217866Y-131939500D01*
X290014134Y-131939500D01*
X290076316Y-131932745D01*
X290103596Y-131922518D01*
X290147826Y-131914500D01*
X291388340Y-131914500D01*
X291456461Y-131934502D01*
X291477435Y-131951405D01*
X292116595Y-132590565D01*
X292150621Y-132652877D01*
X292153500Y-132679660D01*
X292153500Y-144243088D01*
X292153208Y-144251658D01*
X292149275Y-144309352D01*
X292150580Y-144316829D01*
X292150580Y-144316830D01*
X292152028Y-144325124D01*
X292156248Y-144349303D01*
X292160261Y-144372299D01*
X292161223Y-144378821D01*
X292168898Y-144442242D01*
X292171581Y-144449343D01*
X292172222Y-144451952D01*
X292176685Y-144468262D01*
X292177450Y-144470798D01*
X292178757Y-144478284D01*
X292186998Y-144497056D01*
X292204442Y-144536795D01*
X292206933Y-144542899D01*
X292229513Y-144602656D01*
X292233817Y-144608919D01*
X292235054Y-144611285D01*
X292243299Y-144626097D01*
X292244632Y-144628351D01*
X292247685Y-144635305D01*
X292269248Y-144663405D01*
X292286579Y-144685991D01*
X292290459Y-144691332D01*
X292322339Y-144737720D01*
X292322344Y-144737725D01*
X292326643Y-144743981D01*
X292332313Y-144749032D01*
X292332314Y-144749034D01*
X292373170Y-144785435D01*
X292378446Y-144790416D01*
X293488557Y-145900528D01*
X293494411Y-145906793D01*
X293524364Y-145941128D01*
X293532439Y-145950385D01*
X293584729Y-145987136D01*
X293589971Y-145991028D01*
X293640282Y-146030476D01*
X293647201Y-146033600D01*
X293649493Y-146034988D01*
X293664165Y-146043357D01*
X293666525Y-146044622D01*
X293672739Y-146048990D01*
X293679818Y-146051750D01*
X293679820Y-146051751D01*
X293732275Y-146072202D01*
X293738344Y-146074753D01*
X293796573Y-146101045D01*
X293804046Y-146102430D01*
X293806612Y-146103234D01*
X293822835Y-146107855D01*
X293825427Y-146108520D01*
X293832509Y-146111282D01*
X293840044Y-146112274D01*
X293895861Y-146119622D01*
X293902377Y-146120654D01*
X293940770Y-146127770D01*
X293965186Y-146132295D01*
X293972766Y-146131858D01*
X293972767Y-146131858D01*
X294027380Y-146128709D01*
X294034633Y-146128500D01*
X294541198Y-146128500D01*
X294609319Y-146148502D01*
X294642024Y-146178935D01*
X294682739Y-146233261D01*
X294799295Y-146320615D01*
X294935684Y-146371745D01*
X294997866Y-146378500D01*
X296594134Y-146378500D01*
X296656316Y-146371745D01*
X296792705Y-146320615D01*
X296909261Y-146233261D01*
X296996615Y-146116705D01*
X297047745Y-145980316D01*
X297054500Y-145918134D01*
X297054500Y-144921866D01*
X297047745Y-144859684D01*
X297036328Y-144829229D01*
X297031145Y-144758423D01*
X297036326Y-144740776D01*
X297047745Y-144710316D01*
X297054500Y-144648134D01*
X297054500Y-143651866D01*
X297047745Y-143589684D01*
X297036328Y-143559229D01*
X297031145Y-143488423D01*
X297036326Y-143470776D01*
X297047745Y-143440316D01*
X297054500Y-143378134D01*
X297054500Y-142381866D01*
X297047745Y-142319684D01*
X297036328Y-142289229D01*
X297031145Y-142218423D01*
X297036326Y-142200776D01*
X297047745Y-142170316D01*
X297054500Y-142108134D01*
X297054500Y-141111866D01*
X297047745Y-141049684D01*
X297036328Y-141019229D01*
X297031145Y-140948423D01*
X297036326Y-140930776D01*
X297047745Y-140900316D01*
X297054500Y-140838134D01*
X297054500Y-139841866D01*
X297047745Y-139779684D01*
X297036328Y-139749229D01*
X297031145Y-139678423D01*
X297036326Y-139660776D01*
X297047745Y-139630316D01*
X297054500Y-139568134D01*
X297054500Y-138571866D01*
X297047745Y-138509684D01*
X297036328Y-138479229D01*
X297031145Y-138408423D01*
X297036326Y-138390776D01*
X297047745Y-138360316D01*
X297054500Y-138298134D01*
X297054500Y-137301866D01*
X297047745Y-137239684D01*
X297036328Y-137209229D01*
X297031145Y-137138423D01*
X297036326Y-137120776D01*
X297047745Y-137090316D01*
X297054500Y-137028134D01*
X297054500Y-136031866D01*
X297047745Y-135969684D01*
X297036328Y-135939229D01*
X297031145Y-135868423D01*
X297036326Y-135850776D01*
X297047745Y-135820316D01*
X297054500Y-135758134D01*
X297054500Y-134824500D01*
X297074502Y-134756379D01*
X297128158Y-134709886D01*
X297180500Y-134698500D01*
X297220340Y-134698500D01*
X297288461Y-134718502D01*
X297309435Y-134735405D01*
X298466595Y-135892565D01*
X298500621Y-135954877D01*
X298503500Y-135981660D01*
X298503500Y-141367256D01*
X298483498Y-141435377D01*
X298479436Y-141441317D01*
X298477379Y-141444148D01*
X298472960Y-141449056D01*
X298469659Y-141454774D01*
X298469658Y-141454775D01*
X298435458Y-141514012D01*
X298377473Y-141614444D01*
X298318458Y-141796072D01*
X298317768Y-141802633D01*
X298317768Y-141802635D01*
X298309700Y-141879401D01*
X298298496Y-141986000D01*
X298299186Y-141992565D01*
X298316863Y-142160749D01*
X298318458Y-142175928D01*
X298377473Y-142357556D01*
X298472960Y-142522944D01*
X298477378Y-142527851D01*
X298477379Y-142527852D01*
X298580553Y-142642438D01*
X298600747Y-142664866D01*
X298667346Y-142713253D01*
X298733141Y-142761056D01*
X298755248Y-142777118D01*
X298761276Y-142779802D01*
X298761278Y-142779803D01*
X298829071Y-142809986D01*
X298929712Y-142854794D01*
X299013068Y-142872512D01*
X299110056Y-142893128D01*
X299110061Y-142893128D01*
X299116513Y-142894500D01*
X299307487Y-142894500D01*
X299313939Y-142893128D01*
X299313944Y-142893128D01*
X299410932Y-142872512D01*
X299494288Y-142854794D01*
X299594929Y-142809986D01*
X299662722Y-142779803D01*
X299662724Y-142779802D01*
X299668752Y-142777118D01*
X299690860Y-142761056D01*
X299756654Y-142713253D01*
X299823253Y-142664866D01*
X299843447Y-142642438D01*
X299946621Y-142527852D01*
X299946622Y-142527851D01*
X299951040Y-142522944D01*
X300046527Y-142357556D01*
X300105542Y-142175928D01*
X300107138Y-142160749D01*
X300124814Y-141992565D01*
X300125504Y-141986000D01*
X300114300Y-141879401D01*
X300106232Y-141802635D01*
X300106232Y-141802633D01*
X300105542Y-141796072D01*
X300046527Y-141614444D01*
X299988543Y-141514012D01*
X299954342Y-141454775D01*
X299954341Y-141454774D01*
X299951040Y-141449056D01*
X299946621Y-141444148D01*
X299944564Y-141441317D01*
X299920705Y-141374449D01*
X299920500Y-141367256D01*
X299920500Y-135664927D01*
X299920792Y-135656358D01*
X299924210Y-135606225D01*
X299924210Y-135606221D01*
X299924726Y-135598648D01*
X299913736Y-135535681D01*
X299912775Y-135529165D01*
X299908621Y-135494840D01*
X299905102Y-135465758D01*
X299902419Y-135458657D01*
X299901778Y-135456048D01*
X299897313Y-135439728D01*
X299896548Y-135437195D01*
X299895243Y-135429717D01*
X299869552Y-135371190D01*
X299867066Y-135365100D01*
X299856455Y-135337017D01*
X299851088Y-135266224D01*
X299884848Y-135203767D01*
X299947014Y-135169477D01*
X300017851Y-135174240D01*
X300063417Y-135203387D01*
X300752595Y-135892565D01*
X300786621Y-135954877D01*
X300789500Y-135981660D01*
X300789500Y-140859256D01*
X300769498Y-140927377D01*
X300765436Y-140933317D01*
X300763379Y-140936148D01*
X300758960Y-140941056D01*
X300755659Y-140946774D01*
X300755658Y-140946775D01*
X300667128Y-141100114D01*
X300663473Y-141106444D01*
X300604458Y-141288072D01*
X300603768Y-141294633D01*
X300603768Y-141294635D01*
X300594103Y-141386595D01*
X300584496Y-141478000D01*
X300585186Y-141484565D01*
X300602937Y-141653452D01*
X300604458Y-141667928D01*
X300663473Y-141849556D01*
X300758960Y-142014944D01*
X300763378Y-142019851D01*
X300763379Y-142019852D01*
X300882325Y-142151955D01*
X300886747Y-142156866D01*
X300947174Y-142200769D01*
X301008053Y-142245000D01*
X301041248Y-142269118D01*
X301047276Y-142271802D01*
X301047278Y-142271803D01*
X301201411Y-142340427D01*
X301215712Y-142346794D01*
X301309112Y-142366647D01*
X301396056Y-142385128D01*
X301396061Y-142385128D01*
X301402513Y-142386500D01*
X301593487Y-142386500D01*
X301599939Y-142385128D01*
X301599944Y-142385128D01*
X301686888Y-142366647D01*
X301780288Y-142346794D01*
X301794589Y-142340427D01*
X301948722Y-142271803D01*
X301948724Y-142271802D01*
X301954752Y-142269118D01*
X301987948Y-142245000D01*
X302048826Y-142200769D01*
X302109253Y-142156866D01*
X302113675Y-142151955D01*
X302232621Y-142019852D01*
X302232622Y-142019851D01*
X302237040Y-142014944D01*
X302332527Y-141849556D01*
X302391542Y-141667928D01*
X302393064Y-141653452D01*
X302410814Y-141484565D01*
X302411504Y-141478000D01*
X302401897Y-141386595D01*
X302392232Y-141294635D01*
X302392232Y-141294633D01*
X302391542Y-141288072D01*
X302332527Y-141106444D01*
X302328873Y-141100114D01*
X302240342Y-140946775D01*
X302240341Y-140946774D01*
X302237040Y-140941056D01*
X302232621Y-140936148D01*
X302230564Y-140933317D01*
X302206705Y-140866449D01*
X302206500Y-140859256D01*
X302206500Y-138394669D01*
X302618001Y-138394669D01*
X302618371Y-138401490D01*
X302623895Y-138452352D01*
X302627521Y-138467604D01*
X302672676Y-138588054D01*
X302681214Y-138603649D01*
X302757715Y-138705724D01*
X302770276Y-138718285D01*
X302872351Y-138794786D01*
X302887946Y-138803324D01*
X303008394Y-138848478D01*
X303023649Y-138852105D01*
X303074514Y-138857631D01*
X303081328Y-138858000D01*
X304953885Y-138858000D01*
X304969124Y-138853525D01*
X304970329Y-138852135D01*
X304972000Y-138844452D01*
X304972000Y-138839884D01*
X305480000Y-138839884D01*
X305484475Y-138855123D01*
X305485865Y-138856328D01*
X305493548Y-138857999D01*
X307370669Y-138857999D01*
X307377490Y-138857629D01*
X307428352Y-138852105D01*
X307443604Y-138848479D01*
X307564054Y-138803324D01*
X307579649Y-138794786D01*
X307681724Y-138718285D01*
X307694285Y-138705724D01*
X307770786Y-138603649D01*
X307779324Y-138588054D01*
X307824478Y-138467606D01*
X307828105Y-138452351D01*
X307833631Y-138401486D01*
X307834000Y-138394672D01*
X307834000Y-136522115D01*
X307829525Y-136506876D01*
X307828135Y-136505671D01*
X307820452Y-136504000D01*
X307371479Y-136504000D01*
X307360454Y-136507237D01*
X307363692Y-136514327D01*
X307385273Y-136535908D01*
X307419299Y-136598220D01*
X307414235Y-136669036D01*
X307385275Y-136714100D01*
X307099684Y-136999692D01*
X307092073Y-137013630D01*
X307092205Y-137015466D01*
X307096454Y-137022078D01*
X307385275Y-137310900D01*
X307419300Y-137373212D01*
X307414235Y-137444028D01*
X307385274Y-137489091D01*
X307306432Y-137567932D01*
X307227589Y-137646775D01*
X307165276Y-137680800D01*
X307094461Y-137675734D01*
X307049399Y-137646774D01*
X307017812Y-137615187D01*
X307007723Y-137609678D01*
X307005000Y-137616979D01*
X307005000Y-137903000D01*
X306984998Y-137971121D01*
X306931342Y-138017614D01*
X306879000Y-138029000D01*
X306596490Y-138029000D01*
X306585465Y-138032237D01*
X306588703Y-138039328D01*
X306622774Y-138073399D01*
X306656800Y-138135711D01*
X306651735Y-138206526D01*
X306622774Y-138251589D01*
X306543932Y-138330431D01*
X306465090Y-138409274D01*
X306402778Y-138443300D01*
X306331963Y-138438235D01*
X306286900Y-138409275D01*
X306001308Y-138123684D01*
X305987370Y-138116073D01*
X305985534Y-138116205D01*
X305978922Y-138120454D01*
X305690100Y-138409275D01*
X305627788Y-138443300D01*
X305556972Y-138438235D01*
X305511908Y-138409273D01*
X305492808Y-138390172D01*
X305482723Y-138384666D01*
X305480000Y-138391968D01*
X305480000Y-138839884D01*
X304972000Y-138839884D01*
X304972000Y-138395479D01*
X304968763Y-138384454D01*
X304961673Y-138387692D01*
X304940092Y-138409273D01*
X304877780Y-138443299D01*
X304806964Y-138438235D01*
X304761900Y-138409275D01*
X304476308Y-138123684D01*
X304462370Y-138116073D01*
X304460534Y-138116205D01*
X304453922Y-138120454D01*
X304165100Y-138409275D01*
X304102788Y-138443300D01*
X304031972Y-138438235D01*
X303986909Y-138409274D01*
X303908068Y-138330432D01*
X303829225Y-138251589D01*
X303795200Y-138189276D01*
X303800266Y-138118461D01*
X303829226Y-138073399D01*
X303860813Y-138041812D01*
X303866322Y-138031723D01*
X303859021Y-138029000D01*
X303573000Y-138029000D01*
X303504879Y-138008998D01*
X303458386Y-137955342D01*
X303447000Y-137903000D01*
X303447000Y-137620490D01*
X303443763Y-137609465D01*
X303436672Y-137612703D01*
X303402601Y-137646774D01*
X303340289Y-137680800D01*
X303269474Y-137675735D01*
X303224411Y-137646774D01*
X303145569Y-137567932D01*
X303066726Y-137489090D01*
X303032700Y-137426778D01*
X303037765Y-137355963D01*
X303066725Y-137310900D01*
X303352316Y-137025308D01*
X303358693Y-137013629D01*
X304042074Y-137013629D01*
X304042205Y-137015468D01*
X304046453Y-137022077D01*
X304076005Y-137051630D01*
X304076004Y-137051630D01*
X304076005Y-137051631D01*
X304450690Y-137426315D01*
X304464630Y-137433927D01*
X304466466Y-137433795D01*
X304473078Y-137429546D01*
X304850995Y-137051630D01*
X304850997Y-137051628D01*
X304877315Y-137025309D01*
X304883693Y-137013629D01*
X305567074Y-137013629D01*
X305567205Y-137015468D01*
X305571453Y-137022077D01*
X305601005Y-137051630D01*
X305601004Y-137051630D01*
X305601005Y-137051631D01*
X305975690Y-137426315D01*
X305989630Y-137433927D01*
X305991466Y-137433795D01*
X305998078Y-137429546D01*
X306375995Y-137051630D01*
X306375997Y-137051628D01*
X306402315Y-137025309D01*
X306409926Y-137011371D01*
X306409795Y-137009533D01*
X306405545Y-137002921D01*
X306027630Y-136625005D01*
X306027628Y-136625003D01*
X306001309Y-136598685D01*
X305987371Y-136591074D01*
X305985533Y-136591205D01*
X305978921Y-136595455D01*
X305601005Y-136973370D01*
X305601003Y-136973372D01*
X305574685Y-136999691D01*
X305567074Y-137013629D01*
X304883693Y-137013629D01*
X304884926Y-137011371D01*
X304884795Y-137009533D01*
X304880545Y-137002921D01*
X304502630Y-136625005D01*
X304502628Y-136625003D01*
X304476309Y-136598685D01*
X304462371Y-136591074D01*
X304460533Y-136591205D01*
X304453921Y-136595455D01*
X304076005Y-136973370D01*
X304076003Y-136973372D01*
X304049685Y-136999691D01*
X304042074Y-137013629D01*
X303358693Y-137013629D01*
X303359927Y-137011370D01*
X303359795Y-137009534D01*
X303355546Y-137002922D01*
X303066725Y-136714100D01*
X303032700Y-136651788D01*
X303037765Y-136580972D01*
X303066727Y-136535908D01*
X303085828Y-136516808D01*
X303091334Y-136506723D01*
X303084032Y-136504000D01*
X302636116Y-136504000D01*
X302620877Y-136508475D01*
X302619672Y-136509865D01*
X302618001Y-136517548D01*
X302618001Y-138394669D01*
X302206500Y-138394669D01*
X302206500Y-135977885D01*
X302618000Y-135977885D01*
X302622475Y-135993124D01*
X302623865Y-135994329D01*
X302631548Y-135996000D01*
X303080521Y-135996000D01*
X303091546Y-135992763D01*
X303088308Y-135985673D01*
X303066727Y-135964092D01*
X303032701Y-135901780D01*
X303037765Y-135830964D01*
X303066725Y-135785900D01*
X303352316Y-135500308D01*
X303358693Y-135488629D01*
X304042074Y-135488629D01*
X304042205Y-135490468D01*
X304046453Y-135497077D01*
X304076005Y-135526630D01*
X304076004Y-135526630D01*
X304076005Y-135526631D01*
X304450690Y-135901315D01*
X304464630Y-135908927D01*
X304466466Y-135908795D01*
X304473078Y-135904546D01*
X304850995Y-135526630D01*
X304850997Y-135526628D01*
X304877315Y-135500309D01*
X304883693Y-135488629D01*
X305567074Y-135488629D01*
X305567205Y-135490468D01*
X305571453Y-135497077D01*
X305601005Y-135526630D01*
X305601004Y-135526630D01*
X305601005Y-135526631D01*
X305975690Y-135901315D01*
X305989630Y-135908927D01*
X305991466Y-135908795D01*
X305998078Y-135904546D01*
X306375995Y-135526630D01*
X306375997Y-135526628D01*
X306402315Y-135500309D01*
X306409926Y-135486371D01*
X306409795Y-135484533D01*
X306405545Y-135477921D01*
X306027630Y-135100005D01*
X306027628Y-135100003D01*
X306001309Y-135073685D01*
X305987371Y-135066074D01*
X305985533Y-135066205D01*
X305978921Y-135070455D01*
X305601005Y-135448370D01*
X305601003Y-135448372D01*
X305574685Y-135474691D01*
X305567074Y-135488629D01*
X304883693Y-135488629D01*
X304884926Y-135486371D01*
X304884795Y-135484533D01*
X304880545Y-135477921D01*
X304502630Y-135100005D01*
X304502628Y-135100003D01*
X304476309Y-135073685D01*
X304462371Y-135066074D01*
X304460533Y-135066205D01*
X304453921Y-135070455D01*
X304076005Y-135448370D01*
X304076003Y-135448372D01*
X304049685Y-135474691D01*
X304042074Y-135488629D01*
X303358693Y-135488629D01*
X303359927Y-135486370D01*
X303359795Y-135484534D01*
X303355546Y-135477922D01*
X303066725Y-135189100D01*
X303032700Y-135126788D01*
X303037765Y-135055972D01*
X303066726Y-135010909D01*
X303145568Y-134932068D01*
X303224411Y-134853225D01*
X303286724Y-134819200D01*
X303357539Y-134824266D01*
X303402601Y-134853226D01*
X303434188Y-134884813D01*
X303444277Y-134890322D01*
X303447000Y-134883021D01*
X303447000Y-134597000D01*
X303467002Y-134528879D01*
X303520658Y-134482386D01*
X303573000Y-134471000D01*
X303855510Y-134471000D01*
X303866535Y-134467763D01*
X303863297Y-134460672D01*
X303829226Y-134426601D01*
X303795200Y-134364289D01*
X303800265Y-134293474D01*
X303829226Y-134248411D01*
X303908068Y-134169569D01*
X303986910Y-134090726D01*
X304049222Y-134056700D01*
X304120037Y-134061765D01*
X304165100Y-134090725D01*
X304450692Y-134376316D01*
X304464630Y-134383927D01*
X304466466Y-134383795D01*
X304473078Y-134379546D01*
X304761900Y-134090725D01*
X304824212Y-134056700D01*
X304895028Y-134061765D01*
X304940092Y-134090727D01*
X304959192Y-134109828D01*
X304969277Y-134115334D01*
X304972000Y-134108032D01*
X304972000Y-134104521D01*
X305480000Y-134104521D01*
X305483237Y-134115546D01*
X305490327Y-134112308D01*
X305511908Y-134090727D01*
X305574220Y-134056701D01*
X305645036Y-134061765D01*
X305690100Y-134090725D01*
X305975692Y-134376316D01*
X305989630Y-134383927D01*
X305991466Y-134383795D01*
X305998078Y-134379546D01*
X306286900Y-134090725D01*
X306349212Y-134056700D01*
X306420028Y-134061765D01*
X306465091Y-134090726D01*
X306543932Y-134169568D01*
X306622775Y-134248411D01*
X306656800Y-134310724D01*
X306651734Y-134381539D01*
X306622774Y-134426601D01*
X306591187Y-134458188D01*
X306585678Y-134468277D01*
X306592979Y-134471000D01*
X306879000Y-134471000D01*
X306947121Y-134491002D01*
X306993614Y-134544658D01*
X307005000Y-134597000D01*
X307005000Y-134879510D01*
X307008237Y-134890535D01*
X307015328Y-134887297D01*
X307049399Y-134853226D01*
X307111711Y-134819200D01*
X307182526Y-134824265D01*
X307227589Y-134853226D01*
X307306431Y-134932068D01*
X307385274Y-135010910D01*
X307419300Y-135073222D01*
X307414235Y-135144037D01*
X307385275Y-135189100D01*
X307099684Y-135474692D01*
X307092073Y-135488630D01*
X307092205Y-135490466D01*
X307096454Y-135497078D01*
X307385275Y-135785900D01*
X307419300Y-135848212D01*
X307414235Y-135919028D01*
X307385273Y-135964092D01*
X307366172Y-135983192D01*
X307360666Y-135993277D01*
X307367968Y-135996000D01*
X307815884Y-135996000D01*
X307831123Y-135991525D01*
X307832328Y-135990135D01*
X307833999Y-135982452D01*
X307833999Y-134105331D01*
X307833629Y-134098510D01*
X307828105Y-134047648D01*
X307824479Y-134032396D01*
X307779324Y-133911946D01*
X307770786Y-133896351D01*
X307694285Y-133794276D01*
X307681724Y-133781715D01*
X307579649Y-133705214D01*
X307564054Y-133696676D01*
X307443606Y-133651522D01*
X307428351Y-133647895D01*
X307377486Y-133642369D01*
X307370672Y-133642000D01*
X305498115Y-133642000D01*
X305482876Y-133646475D01*
X305481671Y-133647865D01*
X305480000Y-133655548D01*
X305480000Y-134104521D01*
X304972000Y-134104521D01*
X304972000Y-133660116D01*
X304967525Y-133644877D01*
X304966135Y-133643672D01*
X304958452Y-133642001D01*
X303081331Y-133642001D01*
X303074510Y-133642371D01*
X303023648Y-133647895D01*
X303008396Y-133651521D01*
X302887946Y-133696676D01*
X302872351Y-133705214D01*
X302770276Y-133781715D01*
X302757715Y-133794276D01*
X302681214Y-133896351D01*
X302672676Y-133911946D01*
X302627522Y-134032394D01*
X302623895Y-134047649D01*
X302618369Y-134098514D01*
X302618000Y-134105328D01*
X302618000Y-135977885D01*
X302206500Y-135977885D01*
X302206500Y-135664927D01*
X302206792Y-135656358D01*
X302210210Y-135606225D01*
X302210210Y-135606221D01*
X302210726Y-135598648D01*
X302199736Y-135535681D01*
X302198775Y-135529165D01*
X302194621Y-135494840D01*
X302191102Y-135465758D01*
X302188419Y-135458657D01*
X302187778Y-135456048D01*
X302183309Y-135439715D01*
X302182548Y-135437195D01*
X302181243Y-135429717D01*
X302170627Y-135405532D01*
X302155559Y-135371204D01*
X302153068Y-135365099D01*
X302133175Y-135312456D01*
X302133173Y-135312452D01*
X302130487Y-135305344D01*
X302126184Y-135299083D01*
X302124947Y-135296717D01*
X302116720Y-135281937D01*
X302115369Y-135279652D01*
X302112315Y-135272695D01*
X302107695Y-135266675D01*
X302107692Y-135266669D01*
X302073421Y-135222009D01*
X302069541Y-135216668D01*
X302037661Y-135170280D01*
X302037656Y-135170275D01*
X302033357Y-135164019D01*
X302019254Y-135151453D01*
X301986830Y-135122565D01*
X301981554Y-135117584D01*
X299103450Y-132239480D01*
X299097596Y-132233215D01*
X299096674Y-132232158D01*
X299059561Y-132189615D01*
X299007280Y-132152871D01*
X299001986Y-132148939D01*
X298957693Y-132114209D01*
X298951718Y-132109524D01*
X298944802Y-132106401D01*
X298942516Y-132105017D01*
X298927835Y-132096643D01*
X298925475Y-132095378D01*
X298919261Y-132091010D01*
X298912182Y-132088250D01*
X298912180Y-132088249D01*
X298863331Y-132069204D01*
X298859723Y-132067797D01*
X298853656Y-132065247D01*
X298795427Y-132038955D01*
X298787960Y-132037571D01*
X298785405Y-132036770D01*
X298769152Y-132032141D01*
X298766572Y-132031478D01*
X298759491Y-132028718D01*
X298751960Y-132027727D01*
X298751958Y-132027726D01*
X298722339Y-132023827D01*
X298696139Y-132020378D01*
X298689641Y-132019348D01*
X298626814Y-132007704D01*
X298619234Y-132008141D01*
X298619233Y-132008141D01*
X298564608Y-132011291D01*
X298557354Y-132011500D01*
X297180500Y-132011500D01*
X297112379Y-131991498D01*
X297065886Y-131937842D01*
X297054500Y-131885500D01*
X297054500Y-130951866D01*
X297047745Y-130889684D01*
X297036328Y-130859229D01*
X297031145Y-130788423D01*
X297036326Y-130770776D01*
X297047745Y-130740316D01*
X297054500Y-130678134D01*
X297054500Y-129681866D01*
X297047745Y-129619684D01*
X297036061Y-129588517D01*
X297030878Y-129517712D01*
X297036061Y-129500057D01*
X297044479Y-129477602D01*
X297048105Y-129462351D01*
X297053631Y-129411486D01*
X297054000Y-129404672D01*
X297054000Y-129182115D01*
X297049525Y-129166876D01*
X297048135Y-129165671D01*
X297040452Y-129164000D01*
X294556116Y-129164000D01*
X294540877Y-129168475D01*
X294539672Y-129169865D01*
X294538001Y-129177548D01*
X294538001Y-129404669D01*
X294538371Y-129411490D01*
X294543895Y-129462352D01*
X294547520Y-129477600D01*
X294555939Y-129500057D01*
X294561122Y-129570864D01*
X294555942Y-129588510D01*
X294544255Y-129619684D01*
X294537500Y-129681866D01*
X294537500Y-130678134D01*
X294544255Y-130740316D01*
X294555672Y-130770771D01*
X294560855Y-130841577D01*
X294555674Y-130859224D01*
X294544255Y-130889684D01*
X294537500Y-130951866D01*
X294537500Y-131948134D01*
X294544255Y-132010316D01*
X294555672Y-132040771D01*
X294560855Y-132111577D01*
X294555674Y-132129224D01*
X294544255Y-132159684D01*
X294537500Y-132221866D01*
X294537500Y-133218134D01*
X294544255Y-133280316D01*
X294555672Y-133310771D01*
X294560855Y-133381577D01*
X294555674Y-133399224D01*
X294544255Y-133429684D01*
X294537500Y-133491866D01*
X294537500Y-134488134D01*
X294544255Y-134550316D01*
X294555672Y-134580771D01*
X294560855Y-134651577D01*
X294555674Y-134669224D01*
X294544255Y-134699684D01*
X294537500Y-134761866D01*
X294537500Y-135758134D01*
X294544255Y-135820316D01*
X294555672Y-135850771D01*
X294560855Y-135921577D01*
X294555674Y-135939224D01*
X294544255Y-135969684D01*
X294537500Y-136031866D01*
X294537500Y-137028134D01*
X294544255Y-137090316D01*
X294555672Y-137120771D01*
X294560855Y-137191577D01*
X294555674Y-137209224D01*
X294544255Y-137239684D01*
X294537500Y-137301866D01*
X294537500Y-138298134D01*
X294544255Y-138360316D01*
X294555672Y-138390771D01*
X294560855Y-138461577D01*
X294555674Y-138479224D01*
X294544255Y-138509684D01*
X294537500Y-138571866D01*
X294537500Y-139568134D01*
X294544255Y-139630316D01*
X294555672Y-139660771D01*
X294560855Y-139731577D01*
X294555674Y-139749224D01*
X294544255Y-139779684D01*
X294537500Y-139841866D01*
X294537500Y-140838134D01*
X294544255Y-140900316D01*
X294555672Y-140930771D01*
X294560855Y-141001577D01*
X294555674Y-141019224D01*
X294544255Y-141049684D01*
X294537500Y-141111866D01*
X294537500Y-142108134D01*
X294544255Y-142170316D01*
X294555672Y-142200771D01*
X294560855Y-142271577D01*
X294555674Y-142289224D01*
X294544255Y-142319684D01*
X294537500Y-142381866D01*
X294537500Y-143378134D01*
X294544255Y-143440316D01*
X294555672Y-143470771D01*
X294560855Y-143541577D01*
X294555674Y-143559224D01*
X294544255Y-143589684D01*
X294537500Y-143651866D01*
X294537500Y-144585500D01*
X294517498Y-144653621D01*
X294463842Y-144700114D01*
X294411500Y-144711500D01*
X294355660Y-144711500D01*
X294287539Y-144691498D01*
X294266565Y-144674595D01*
X293607405Y-144015435D01*
X293573379Y-143953123D01*
X293570500Y-143926340D01*
X293570500Y-132362927D01*
X293570792Y-132354358D01*
X293574210Y-132304225D01*
X293574210Y-132304221D01*
X293574726Y-132296648D01*
X293563736Y-132233681D01*
X293562775Y-132227165D01*
X293559332Y-132198715D01*
X293555102Y-132163758D01*
X293552419Y-132156657D01*
X293551778Y-132154048D01*
X293547309Y-132137715D01*
X293546548Y-132135195D01*
X293545243Y-132127717D01*
X293542191Y-132120764D01*
X293519559Y-132069204D01*
X293517068Y-132063099D01*
X293497175Y-132010456D01*
X293497173Y-132010452D01*
X293494487Y-132003344D01*
X293490184Y-131997083D01*
X293488947Y-131994717D01*
X293480720Y-131979937D01*
X293479369Y-131977652D01*
X293476315Y-131970695D01*
X293471695Y-131964675D01*
X293471692Y-131964669D01*
X293445066Y-131929971D01*
X293437413Y-131919998D01*
X293433541Y-131914668D01*
X293401661Y-131868280D01*
X293401656Y-131868275D01*
X293397357Y-131862019D01*
X293375725Y-131842745D01*
X293350830Y-131820565D01*
X293345554Y-131815584D01*
X292255450Y-130725480D01*
X292249596Y-130719215D01*
X292239881Y-130708079D01*
X292211561Y-130675615D01*
X292159280Y-130638871D01*
X292153986Y-130634939D01*
X292109693Y-130600209D01*
X292103718Y-130595524D01*
X292096802Y-130592401D01*
X292094516Y-130591017D01*
X292079835Y-130582643D01*
X292077475Y-130581378D01*
X292071261Y-130577010D01*
X292064182Y-130574250D01*
X292064180Y-130574249D01*
X292022200Y-130557882D01*
X292011723Y-130553797D01*
X292005656Y-130551247D01*
X291947427Y-130524955D01*
X291939960Y-130523571D01*
X291937405Y-130522770D01*
X291921152Y-130518141D01*
X291918572Y-130517478D01*
X291911491Y-130514718D01*
X291903960Y-130513727D01*
X291903958Y-130513726D01*
X291866106Y-130508743D01*
X291848139Y-130506378D01*
X291841641Y-130505348D01*
X291778814Y-130493704D01*
X291771234Y-130494141D01*
X291771233Y-130494141D01*
X291716608Y-130497291D01*
X291709354Y-130497500D01*
X290147826Y-130497500D01*
X290103596Y-130489482D01*
X290076316Y-130479255D01*
X290014134Y-130472500D01*
X289217866Y-130472500D01*
X289155684Y-130479255D01*
X289019295Y-130530385D01*
X288902739Y-130617739D01*
X288815385Y-130734295D01*
X288764255Y-130870684D01*
X288757500Y-130932866D01*
X288757500Y-131479134D01*
X288452169Y-131479134D01*
X288416615Y-131384295D01*
X288339623Y-131281565D01*
X288314775Y-131215059D01*
X288329828Y-131145676D01*
X288339623Y-131130435D01*
X288345765Y-131122240D01*
X288416615Y-131027705D01*
X288467745Y-130891316D01*
X288474500Y-130829134D01*
X288474500Y-130282866D01*
X288467745Y-130220684D01*
X288416615Y-130084295D01*
X288411229Y-130077108D01*
X288406921Y-130069240D01*
X288408845Y-130068187D01*
X288388272Y-130013130D01*
X288403323Y-129943747D01*
X288453495Y-129893515D01*
X288474070Y-129884543D01*
X288583998Y-129847868D01*
X288590946Y-129845550D01*
X288741348Y-129752478D01*
X288866305Y-129627303D01*
X288870146Y-129621072D01*
X288955275Y-129482968D01*
X288955276Y-129482966D01*
X288959115Y-129476738D01*
X289014797Y-129308861D01*
X289017116Y-129286234D01*
X289024269Y-129216413D01*
X289025500Y-129204400D01*
X289025500Y-128342500D01*
X289045502Y-128274379D01*
X289099158Y-128227886D01*
X289151500Y-128216500D01*
X294418799Y-128216500D01*
X294486920Y-128236502D01*
X294533413Y-128290158D01*
X294544062Y-128356108D01*
X294538369Y-128408514D01*
X294538000Y-128415328D01*
X294538000Y-128637885D01*
X294542475Y-128653124D01*
X294543865Y-128654329D01*
X294551548Y-128656000D01*
X297035884Y-128656000D01*
X297051123Y-128651525D01*
X297052328Y-128650135D01*
X297053999Y-128642452D01*
X297053999Y-128415331D01*
X297053629Y-128408507D01*
X297047938Y-128356104D01*
X297060468Y-128286222D01*
X297108790Y-128234208D01*
X297173201Y-128216500D01*
X306994340Y-128216500D01*
X307062461Y-128236502D01*
X307083435Y-128253405D01*
X310760550Y-131930520D01*
X310766404Y-131936785D01*
X310804439Y-131980385D01*
X310847226Y-132010456D01*
X310856719Y-132017128D01*
X310862014Y-132021061D01*
X310912282Y-132060476D01*
X310919198Y-132063599D01*
X310921484Y-132064983D01*
X310936165Y-132073357D01*
X310938525Y-132074622D01*
X310944739Y-132078990D01*
X310951818Y-132081750D01*
X310951820Y-132081751D01*
X310968487Y-132088249D01*
X311003252Y-132101803D01*
X311004275Y-132102202D01*
X311010344Y-132104753D01*
X311068573Y-132131045D01*
X311076040Y-132132429D01*
X311078595Y-132133230D01*
X311094848Y-132137859D01*
X311097428Y-132138522D01*
X311104509Y-132141282D01*
X311112040Y-132142273D01*
X311112042Y-132142274D01*
X311141661Y-132146173D01*
X311167861Y-132149622D01*
X311174359Y-132150652D01*
X311237186Y-132162296D01*
X311244766Y-132161859D01*
X311244767Y-132161859D01*
X311299392Y-132158709D01*
X311306646Y-132158500D01*
X311911500Y-132158500D01*
X311979621Y-132178502D01*
X312026114Y-132232158D01*
X312037500Y-132284500D01*
X312037500Y-133218134D01*
X312044255Y-133280316D01*
X312055672Y-133310771D01*
X312060855Y-133381577D01*
X312055674Y-133399224D01*
X312044255Y-133429684D01*
X312037500Y-133491866D01*
X312037500Y-134488134D01*
X312044255Y-134550316D01*
X312055672Y-134580771D01*
X312060855Y-134651577D01*
X312055674Y-134669224D01*
X312044255Y-134699684D01*
X312037500Y-134761866D01*
X312037500Y-135758134D01*
X312044255Y-135820316D01*
X312055672Y-135850771D01*
X312060855Y-135921577D01*
X312055674Y-135939224D01*
X312044255Y-135969684D01*
X312037500Y-136031866D01*
X312037500Y-137028134D01*
X312044255Y-137090316D01*
X312055672Y-137120771D01*
X312060855Y-137191577D01*
X312055674Y-137209224D01*
X312044255Y-137239684D01*
X312037500Y-137301866D01*
X312037500Y-138298134D01*
X312044255Y-138360316D01*
X312055672Y-138390771D01*
X312060855Y-138461577D01*
X312055674Y-138479224D01*
X312044255Y-138509684D01*
X312037500Y-138571866D01*
X312037500Y-139568134D01*
X312044255Y-139630316D01*
X312055672Y-139660771D01*
X312060855Y-139731577D01*
X312055674Y-139749224D01*
X312044255Y-139779684D01*
X312037500Y-139841866D01*
X312037500Y-140838134D01*
X312044255Y-140900316D01*
X312055672Y-140930771D01*
X312060855Y-141001577D01*
X312055674Y-141019224D01*
X312044255Y-141049684D01*
X312037500Y-141111866D01*
X312037500Y-142108134D01*
X312044255Y-142170316D01*
X312055672Y-142200771D01*
X312060855Y-142271577D01*
X312055674Y-142289224D01*
X312044255Y-142319684D01*
X312037500Y-142381866D01*
X312037500Y-143378134D01*
X312044255Y-143440316D01*
X312055672Y-143470771D01*
X312060855Y-143541577D01*
X312055674Y-143559224D01*
X312044255Y-143589684D01*
X312037500Y-143651866D01*
X312037500Y-144648134D01*
X312044255Y-144710316D01*
X312055672Y-144740771D01*
X312060855Y-144811577D01*
X312055674Y-144829224D01*
X312044255Y-144859684D01*
X312037500Y-144921866D01*
X312037500Y-145918134D01*
X312044255Y-145980316D01*
X312095385Y-146116705D01*
X312182739Y-146233261D01*
X312299295Y-146320615D01*
X312435684Y-146371745D01*
X312497866Y-146378500D01*
X314094134Y-146378500D01*
X314156316Y-146371745D01*
X314292705Y-146320615D01*
X314409261Y-146233261D01*
X314449976Y-146178935D01*
X314506835Y-146136420D01*
X314550802Y-146128500D01*
X316354561Y-146128500D01*
X316422682Y-146148502D01*
X316450496Y-146173690D01*
X316451522Y-146175348D01*
X316576697Y-146300305D01*
X316582927Y-146304145D01*
X316582928Y-146304146D01*
X316720090Y-146388694D01*
X316727262Y-146393115D01*
X316778576Y-146410135D01*
X316888611Y-146446632D01*
X316888613Y-146446632D01*
X316895139Y-146448797D01*
X316901975Y-146449497D01*
X316901978Y-146449498D01*
X316945031Y-146453909D01*
X316999600Y-146459500D01*
X318000400Y-146459500D01*
X318003646Y-146459163D01*
X318003650Y-146459163D01*
X318099308Y-146449238D01*
X318099312Y-146449237D01*
X318106166Y-146448526D01*
X318112702Y-146446345D01*
X318112704Y-146446345D01*
X318257955Y-146397885D01*
X318273946Y-146392550D01*
X318424348Y-146299478D01*
X318549305Y-146174303D01*
X318577410Y-146128709D01*
X318638275Y-146029968D01*
X318638276Y-146029966D01*
X318642115Y-146023738D01*
X318677142Y-145918134D01*
X318695632Y-145862389D01*
X318695632Y-145862387D01*
X318697797Y-145855861D01*
X318708500Y-145751400D01*
X318708500Y-145125600D01*
X318705979Y-145101305D01*
X318698238Y-145026692D01*
X318698237Y-145026688D01*
X318697526Y-145019834D01*
X318665930Y-144925128D01*
X318643868Y-144859002D01*
X318641550Y-144852054D01*
X318548478Y-144701652D01*
X318461891Y-144615216D01*
X318427812Y-144552934D01*
X318432815Y-144482114D01*
X318461736Y-144437025D01*
X318544134Y-144354483D01*
X318549305Y-144349303D01*
X318600628Y-144266042D01*
X318638275Y-144204968D01*
X318638276Y-144204966D01*
X318642115Y-144198738D01*
X318678255Y-144089778D01*
X318695632Y-144037389D01*
X318695632Y-144037387D01*
X318697797Y-144030861D01*
X318698720Y-144021859D01*
X318708172Y-143929598D01*
X318708500Y-143926400D01*
X318708500Y-143300600D01*
X318708163Y-143297350D01*
X318698238Y-143201692D01*
X318698237Y-143201688D01*
X318697526Y-143194834D01*
X318641550Y-143027054D01*
X318548478Y-142876652D01*
X318495071Y-142823338D01*
X318460992Y-142761056D01*
X318465995Y-142690235D01*
X318508492Y-142633363D01*
X318519938Y-142625720D01*
X318572807Y-142594453D01*
X318690453Y-142476807D01*
X318694489Y-142469983D01*
X318694491Y-142469980D01*
X318767343Y-142346794D01*
X318775145Y-142333601D01*
X318821562Y-142173831D01*
X318822898Y-142156866D01*
X318824307Y-142138958D01*
X318824307Y-142138950D01*
X318824500Y-142136502D01*
X318824500Y-141904500D01*
X318844502Y-141836379D01*
X318898158Y-141789886D01*
X318950500Y-141778500D01*
X319003103Y-141778500D01*
X319066102Y-141795380D01*
X319081944Y-141804527D01*
X319263572Y-141863542D01*
X319270133Y-141864232D01*
X319270135Y-141864232D01*
X319323389Y-141869829D01*
X319405890Y-141878500D01*
X327226497Y-141878500D01*
X327294618Y-141898502D01*
X327315592Y-141915405D01*
X332864587Y-147464400D01*
X332898613Y-147526712D01*
X332901282Y-147546236D01*
X332914110Y-147768715D01*
X332915247Y-147773761D01*
X332915248Y-147773767D01*
X332937685Y-147873324D01*
X332963222Y-147986639D01*
X333047266Y-148193616D01*
X333097798Y-148276077D01*
X333158227Y-148374688D01*
X333163987Y-148384088D01*
X333310250Y-148552938D01*
X333314230Y-148556242D01*
X333318981Y-148560187D01*
X333358616Y-148619090D01*
X333360113Y-148690071D01*
X333322997Y-148750593D01*
X333282725Y-148775112D01*
X333219626Y-148798767D01*
X333167295Y-148818385D01*
X333050739Y-148905739D01*
X332963385Y-149022295D01*
X332912255Y-149158684D01*
X332905500Y-149220866D01*
X332905500Y-151017134D01*
X332912255Y-151079316D01*
X332963385Y-151215705D01*
X333050739Y-151332261D01*
X333167295Y-151419615D01*
X333303684Y-151470745D01*
X333365866Y-151477500D01*
X335162134Y-151477500D01*
X335224316Y-151470745D01*
X335360705Y-151419615D01*
X335477261Y-151332261D01*
X335564615Y-151215705D01*
X335615745Y-151079316D01*
X335622500Y-151017134D01*
X335622500Y-149398134D01*
X340541500Y-149398134D01*
X340548255Y-149460316D01*
X340599385Y-149596705D01*
X340686739Y-149713261D01*
X340803295Y-149800615D01*
X340939684Y-149851745D01*
X341001866Y-149858500D01*
X344598134Y-149858500D01*
X344660316Y-149851745D01*
X344796705Y-149800615D01*
X344913261Y-149713261D01*
X345000615Y-149596705D01*
X345051745Y-149460316D01*
X345058500Y-149398134D01*
X345058500Y-148659961D01*
X346792001Y-148659961D01*
X346792209Y-148665071D01*
X346803082Y-148798767D01*
X346804852Y-148809320D01*
X346857967Y-149016185D01*
X346861701Y-149026731D01*
X346950510Y-149220705D01*
X346956046Y-149230412D01*
X347077803Y-149405597D01*
X347084976Y-149414176D01*
X347235824Y-149565024D01*
X347244403Y-149572197D01*
X347419588Y-149693954D01*
X347429295Y-149699490D01*
X347623269Y-149788299D01*
X347633815Y-149792033D01*
X347840679Y-149845147D01*
X347851234Y-149846918D01*
X347984930Y-149857793D01*
X347990036Y-149858000D01*
X348527885Y-149858000D01*
X348543124Y-149853525D01*
X348544329Y-149852135D01*
X348546000Y-149844452D01*
X348546000Y-149839884D01*
X349054000Y-149839884D01*
X349058475Y-149855123D01*
X349059865Y-149856328D01*
X349067548Y-149857999D01*
X349609961Y-149857999D01*
X349615071Y-149857791D01*
X349748767Y-149846918D01*
X349759320Y-149845148D01*
X349966185Y-149792033D01*
X349976731Y-149788299D01*
X350170705Y-149699490D01*
X350180412Y-149693954D01*
X350355597Y-149572197D01*
X350364176Y-149565024D01*
X350515024Y-149414176D01*
X350522197Y-149405597D01*
X350643954Y-149230412D01*
X350649490Y-149220705D01*
X350738299Y-149026731D01*
X350742033Y-149016185D01*
X350795147Y-148809321D01*
X350796918Y-148798766D01*
X350807793Y-148665070D01*
X350808000Y-148659964D01*
X350808000Y-147872115D01*
X350803525Y-147856876D01*
X350802135Y-147855671D01*
X350794452Y-147854000D01*
X349072115Y-147854000D01*
X349056876Y-147858475D01*
X349055671Y-147859865D01*
X349054000Y-147867548D01*
X349054000Y-149839884D01*
X348546000Y-149839884D01*
X348546000Y-147872115D01*
X348541525Y-147856876D01*
X348540135Y-147855671D01*
X348532452Y-147854000D01*
X346810116Y-147854000D01*
X346794877Y-147858475D01*
X346793672Y-147859865D01*
X346792001Y-147867548D01*
X346792001Y-148659961D01*
X345058500Y-148659961D01*
X345058500Y-147327885D01*
X346792000Y-147327885D01*
X346796475Y-147343124D01*
X346797865Y-147344329D01*
X346805548Y-147346000D01*
X348527885Y-147346000D01*
X348543124Y-147341525D01*
X348544329Y-147340135D01*
X348546000Y-147332452D01*
X348546000Y-147327885D01*
X349054000Y-147327885D01*
X349058475Y-147343124D01*
X349059865Y-147344329D01*
X349067548Y-147346000D01*
X350789884Y-147346000D01*
X350805123Y-147341525D01*
X350806328Y-147340135D01*
X350807999Y-147332452D01*
X350807999Y-146540039D01*
X350807791Y-146534929D01*
X350796918Y-146401233D01*
X350795148Y-146390680D01*
X350742033Y-146183815D01*
X350738299Y-146173269D01*
X350649490Y-145979295D01*
X350643954Y-145969588D01*
X350522197Y-145794403D01*
X350515024Y-145785824D01*
X350364176Y-145634976D01*
X350355597Y-145627803D01*
X350180412Y-145506046D01*
X350170705Y-145500510D01*
X349976731Y-145411701D01*
X349966185Y-145407967D01*
X349759321Y-145354853D01*
X349748766Y-145353082D01*
X349615070Y-145342207D01*
X349609964Y-145342000D01*
X349072115Y-145342000D01*
X349056876Y-145346475D01*
X349055671Y-145347865D01*
X349054000Y-145355548D01*
X349054000Y-147327885D01*
X348546000Y-147327885D01*
X348546000Y-145360116D01*
X348541525Y-145344877D01*
X348540135Y-145343672D01*
X348532452Y-145342001D01*
X347990039Y-145342001D01*
X347984929Y-145342209D01*
X347851233Y-145353082D01*
X347840680Y-145354852D01*
X347633815Y-145407967D01*
X347623269Y-145411701D01*
X347429295Y-145500510D01*
X347419588Y-145506046D01*
X347244403Y-145627803D01*
X347235824Y-145634976D01*
X347084976Y-145785824D01*
X347077803Y-145794403D01*
X346956046Y-145969588D01*
X346950510Y-145979295D01*
X346861701Y-146173269D01*
X346857967Y-146183815D01*
X346804853Y-146390679D01*
X346803082Y-146401234D01*
X346792207Y-146534930D01*
X346792000Y-146540036D01*
X346792000Y-147327885D01*
X345058500Y-147327885D01*
X345058500Y-145801866D01*
X345051745Y-145739684D01*
X345000615Y-145603295D01*
X344913261Y-145486739D01*
X344796705Y-145399385D01*
X344788304Y-145396236D01*
X344786082Y-145395019D01*
X344735936Y-145344760D01*
X344720923Y-145275369D01*
X344745809Y-145208877D01*
X344802693Y-145166395D01*
X344846592Y-145158500D01*
X346767364Y-145158500D01*
X346769037Y-145158409D01*
X346769052Y-145158409D01*
X346820599Y-145155617D01*
X346824957Y-145155381D01*
X346838160Y-145152803D01*
X347050160Y-145111402D01*
X347050161Y-145111402D01*
X347055393Y-145110380D01*
X347274952Y-145027196D01*
X347454125Y-144921866D01*
X347472750Y-144910917D01*
X347472752Y-144910915D01*
X347477356Y-144908209D01*
X347656819Y-144756819D01*
X347808209Y-144577356D01*
X347812601Y-144569886D01*
X347857178Y-144494056D01*
X347927196Y-144374952D01*
X348010380Y-144155393D01*
X348018713Y-144112725D01*
X348054544Y-143929243D01*
X348055381Y-143924957D01*
X348055945Y-143914550D01*
X348058409Y-143869052D01*
X348058409Y-143869037D01*
X348058500Y-143867364D01*
X348058500Y-141932636D01*
X348056652Y-141898502D01*
X348055617Y-141879401D01*
X348055381Y-141875043D01*
X348013608Y-141661135D01*
X348011402Y-141649840D01*
X348011402Y-141649839D01*
X348010380Y-141644607D01*
X347927196Y-141425048D01*
X347808209Y-141222644D01*
X347656819Y-141043181D01*
X347477356Y-140891791D01*
X347274952Y-140772804D01*
X347055393Y-140689620D01*
X346824957Y-140644619D01*
X346819227Y-140644309D01*
X346769052Y-140641591D01*
X346769037Y-140641591D01*
X346767364Y-140641500D01*
X344832636Y-140641500D01*
X344830963Y-140641591D01*
X344830948Y-140641591D01*
X344780773Y-140644309D01*
X344775043Y-140644619D01*
X344544607Y-140689620D01*
X344325048Y-140772804D01*
X344122644Y-140891791D01*
X343943181Y-141043181D01*
X343791791Y-141222644D01*
X343672804Y-141425048D01*
X343589620Y-141644607D01*
X343588598Y-141649839D01*
X343588598Y-141649840D01*
X343586392Y-141661135D01*
X343544619Y-141875043D01*
X343544383Y-141879401D01*
X343543349Y-141898502D01*
X343541500Y-141932636D01*
X343541500Y-143867364D01*
X343541591Y-143869037D01*
X343541591Y-143869052D01*
X343544055Y-143914550D01*
X343544619Y-143924957D01*
X343545456Y-143929243D01*
X343581288Y-144112725D01*
X343589620Y-144155393D01*
X343672804Y-144374952D01*
X343742822Y-144494056D01*
X343787400Y-144569886D01*
X343791791Y-144577356D01*
X343943181Y-144756819D01*
X344122644Y-144908209D01*
X344127248Y-144910915D01*
X344127250Y-144910917D01*
X344145875Y-144921866D01*
X344325048Y-145027196D01*
X344330034Y-145029085D01*
X344511068Y-145097673D01*
X344567683Y-145140512D01*
X344592151Y-145207160D01*
X344576702Y-145276455D01*
X344526241Y-145326398D01*
X344466427Y-145341500D01*
X341001866Y-145341500D01*
X340939684Y-145348255D01*
X340803295Y-145399385D01*
X340686739Y-145486739D01*
X340599385Y-145603295D01*
X340548255Y-145739684D01*
X340541500Y-145801866D01*
X340541500Y-149398134D01*
X335622500Y-149398134D01*
X335622500Y-149220866D01*
X335615745Y-149158684D01*
X335564615Y-149022295D01*
X335477261Y-148905739D01*
X335360705Y-148818385D01*
X335336524Y-148809320D01*
X335242203Y-148773960D01*
X335185439Y-148731318D01*
X335160739Y-148664756D01*
X335175947Y-148595408D01*
X335197493Y-148566727D01*
X335216348Y-148547938D01*
X335302096Y-148462489D01*
X335359222Y-148382990D01*
X335429435Y-148285277D01*
X335432453Y-148281077D01*
X335455791Y-148233857D01*
X335529136Y-148085453D01*
X335529137Y-148085451D01*
X335531430Y-148080811D01*
X335596370Y-147867069D01*
X335625529Y-147645590D01*
X335627156Y-147579000D01*
X335608852Y-147356361D01*
X335554431Y-147139702D01*
X335465354Y-146934840D01*
X335344014Y-146747277D01*
X335193670Y-146582051D01*
X335189619Y-146578852D01*
X335189615Y-146578848D01*
X335022414Y-146446800D01*
X335022410Y-146446798D01*
X335018359Y-146443598D01*
X335009302Y-146438598D01*
X334941616Y-146401234D01*
X334822789Y-146335638D01*
X334817920Y-146333914D01*
X334817916Y-146333912D01*
X334617087Y-146262795D01*
X334617083Y-146262794D01*
X334612212Y-146261069D01*
X334607119Y-146260162D01*
X334607116Y-146260161D01*
X334397373Y-146222800D01*
X334397367Y-146222799D01*
X334392284Y-146221894D01*
X334240512Y-146220040D01*
X334172642Y-146199207D01*
X334152957Y-146183144D01*
X328354981Y-140385168D01*
X328342140Y-140370135D01*
X328337746Y-140364087D01*
X328337745Y-140364086D01*
X328333866Y-140358747D01*
X328283041Y-140312984D01*
X328278256Y-140308443D01*
X328263741Y-140293928D01*
X328251097Y-140283689D01*
X328247784Y-140281006D01*
X328242769Y-140276722D01*
X328196855Y-140235381D01*
X328196850Y-140235377D01*
X328191944Y-140230960D01*
X328186228Y-140227660D01*
X328186224Y-140227657D01*
X328179763Y-140223927D01*
X328163466Y-140212727D01*
X328157660Y-140208025D01*
X328157658Y-140208024D01*
X328152530Y-140203871D01*
X328091577Y-140172814D01*
X328085782Y-140169667D01*
X328075851Y-140163933D01*
X328046880Y-140147207D01*
X328032279Y-140138777D01*
X328032275Y-140138775D01*
X328026556Y-140135473D01*
X328020274Y-140133432D01*
X328020272Y-140133431D01*
X328013174Y-140131125D01*
X327994907Y-140123559D01*
X327991384Y-140121764D01*
X327982370Y-140117171D01*
X327916299Y-140099467D01*
X327909997Y-140097600D01*
X327844928Y-140076458D01*
X327838363Y-140075768D01*
X327838354Y-140075766D01*
X327830925Y-140074985D01*
X327811491Y-140071383D01*
X327804286Y-140069453D01*
X327804284Y-140069453D01*
X327797903Y-140067743D01*
X327791312Y-140067398D01*
X327791308Y-140067397D01*
X327729616Y-140064164D01*
X327723042Y-140063647D01*
X327705884Y-140061844D01*
X327705882Y-140061844D01*
X327702610Y-140061500D01*
X327682074Y-140061500D01*
X327675480Y-140061327D01*
X327613782Y-140058093D01*
X327613777Y-140058093D01*
X327607190Y-140057748D01*
X327593292Y-140059949D01*
X327573583Y-140061500D01*
X319405890Y-140061500D01*
X319330221Y-140069453D01*
X319270135Y-140075768D01*
X319270133Y-140075768D01*
X319263572Y-140076458D01*
X319081944Y-140135473D01*
X319066102Y-140144620D01*
X319003103Y-140161500D01*
X318799498Y-140161500D01*
X318797050Y-140161693D01*
X318797042Y-140161693D01*
X318768579Y-140163933D01*
X318768574Y-140163934D01*
X318762169Y-140164438D01*
X318669347Y-140191405D01*
X318610012Y-140208643D01*
X318610010Y-140208644D01*
X318602399Y-140210855D01*
X318568403Y-140230960D01*
X318525297Y-140256453D01*
X318461158Y-140274000D01*
X317850615Y-140274000D01*
X317835376Y-140278475D01*
X317834171Y-140279865D01*
X317832500Y-140287548D01*
X317832500Y-140809884D01*
X317836975Y-140825123D01*
X317838365Y-140826328D01*
X317846048Y-140827999D01*
X318081500Y-140827999D01*
X318149621Y-140848001D01*
X318196114Y-140901657D01*
X318207500Y-140953999D01*
X318207500Y-140985500D01*
X318187498Y-141053621D01*
X318133842Y-141100114D01*
X318081500Y-141111500D01*
X316924498Y-141111500D01*
X316922050Y-141111693D01*
X316922042Y-141111693D01*
X316893579Y-141113933D01*
X316893574Y-141113934D01*
X316887169Y-141114438D01*
X316787231Y-141143472D01*
X316735012Y-141158643D01*
X316735010Y-141158644D01*
X316727399Y-141160855D01*
X316698589Y-141177893D01*
X316591020Y-141241509D01*
X316591017Y-141241511D01*
X316584193Y-141245547D01*
X316466547Y-141363193D01*
X316462511Y-141370017D01*
X316462509Y-141370020D01*
X316429966Y-141425048D01*
X316381855Y-141506399D01*
X316335438Y-141666169D01*
X316332500Y-141703498D01*
X316332500Y-142136502D01*
X316332693Y-142138950D01*
X316332693Y-142138958D01*
X316334103Y-142156866D01*
X316335438Y-142173831D01*
X316381855Y-142333601D01*
X316389657Y-142346794D01*
X316462509Y-142469980D01*
X316462511Y-142469983D01*
X316466547Y-142476807D01*
X316569866Y-142580126D01*
X316603892Y-142642438D01*
X316598827Y-142713253D01*
X316569944Y-142758238D01*
X316455870Y-142872512D01*
X316455866Y-142872517D01*
X316450695Y-142877697D01*
X316446855Y-142883927D01*
X316446854Y-142883928D01*
X316374203Y-143001790D01*
X316357885Y-143028262D01*
X316355581Y-143035209D01*
X316309109Y-143175319D01*
X316302203Y-143196139D01*
X316301503Y-143202975D01*
X316301502Y-143202978D01*
X316297091Y-143246031D01*
X316291500Y-143300600D01*
X316291500Y-143926400D01*
X316291837Y-143929646D01*
X316291837Y-143929650D01*
X316301405Y-144021859D01*
X316302474Y-144032166D01*
X316304655Y-144038702D01*
X316304655Y-144038704D01*
X316333613Y-144125500D01*
X316358450Y-144199946D01*
X316451522Y-144350348D01*
X316500026Y-144398767D01*
X316538109Y-144436784D01*
X316572188Y-144499066D01*
X316567185Y-144569886D01*
X316538264Y-144614975D01*
X316478825Y-144674518D01*
X316416543Y-144708597D01*
X316389652Y-144711500D01*
X314680500Y-144711500D01*
X314612379Y-144691498D01*
X314565886Y-144637842D01*
X314554500Y-144585500D01*
X314554500Y-143651866D01*
X314547745Y-143589684D01*
X314536328Y-143559229D01*
X314531145Y-143488423D01*
X314536326Y-143470776D01*
X314547745Y-143440316D01*
X314554500Y-143378134D01*
X314554500Y-142381866D01*
X314547745Y-142319684D01*
X314536328Y-142289229D01*
X314531145Y-142218423D01*
X314536326Y-142200776D01*
X314547745Y-142170316D01*
X314554500Y-142108134D01*
X314554500Y-141111866D01*
X314547745Y-141049684D01*
X314536328Y-141019229D01*
X314531145Y-140948423D01*
X314536326Y-140930776D01*
X314547745Y-140900316D01*
X314554500Y-140838134D01*
X314554500Y-140285871D01*
X316339456Y-140285871D01*
X316380107Y-140425790D01*
X316386352Y-140440221D01*
X316462911Y-140569678D01*
X316472551Y-140582104D01*
X316578896Y-140688449D01*
X316591322Y-140698089D01*
X316720779Y-140774648D01*
X316735210Y-140780893D01*
X316881065Y-140823269D01*
X316893667Y-140825570D01*
X316922084Y-140827807D01*
X316927014Y-140828000D01*
X317306385Y-140828000D01*
X317321624Y-140823525D01*
X317322829Y-140822135D01*
X317324500Y-140814452D01*
X317324500Y-140292115D01*
X317320025Y-140276876D01*
X317318635Y-140275671D01*
X317310952Y-140274000D01*
X316354122Y-140274000D01*
X316340591Y-140277973D01*
X316339456Y-140285871D01*
X314554500Y-140285871D01*
X314554500Y-139841866D01*
X314547745Y-139779684D01*
X314536328Y-139749229D01*
X314536282Y-139748605D01*
X316341061Y-139748605D01*
X316341101Y-139762706D01*
X316348370Y-139766000D01*
X317306385Y-139766000D01*
X317321624Y-139761525D01*
X317322829Y-139760135D01*
X317324500Y-139752452D01*
X317324500Y-139747885D01*
X317832500Y-139747885D01*
X317836975Y-139763124D01*
X317838365Y-139764329D01*
X317846048Y-139766000D01*
X318802878Y-139766000D01*
X318816409Y-139762027D01*
X318817544Y-139754129D01*
X318776893Y-139614210D01*
X318770648Y-139599779D01*
X318694089Y-139470322D01*
X318684449Y-139457896D01*
X318578104Y-139351551D01*
X318565678Y-139341911D01*
X318436221Y-139265352D01*
X318421790Y-139259107D01*
X318275935Y-139216731D01*
X318263333Y-139214430D01*
X318234916Y-139212193D01*
X318229986Y-139212000D01*
X317850615Y-139212000D01*
X317835376Y-139216475D01*
X317834171Y-139217865D01*
X317832500Y-139225548D01*
X317832500Y-139747885D01*
X317324500Y-139747885D01*
X317324500Y-139230116D01*
X317320025Y-139214877D01*
X317318635Y-139213672D01*
X317310952Y-139212001D01*
X316927017Y-139212001D01*
X316922080Y-139212195D01*
X316893664Y-139214430D01*
X316881069Y-139216730D01*
X316735210Y-139259107D01*
X316720779Y-139265352D01*
X316591322Y-139341911D01*
X316578896Y-139351551D01*
X316472551Y-139457896D01*
X316462911Y-139470322D01*
X316386352Y-139599779D01*
X316380107Y-139614210D01*
X316341061Y-139748605D01*
X314536282Y-139748605D01*
X314531145Y-139678423D01*
X314536326Y-139660776D01*
X314547745Y-139630316D01*
X314554500Y-139568134D01*
X314554500Y-138645695D01*
X334997251Y-138645695D01*
X334997548Y-138650848D01*
X334997548Y-138650851D01*
X335007689Y-138826729D01*
X335010110Y-138868715D01*
X335011247Y-138873761D01*
X335011248Y-138873767D01*
X335028896Y-138952076D01*
X335059222Y-139086639D01*
X335143266Y-139293616D01*
X335179441Y-139352648D01*
X335256049Y-139477661D01*
X335259987Y-139484088D01*
X335406250Y-139652938D01*
X335410230Y-139656242D01*
X335414981Y-139660187D01*
X335454616Y-139719090D01*
X335456113Y-139790071D01*
X335418997Y-139850593D01*
X335378725Y-139875112D01*
X335288631Y-139908887D01*
X335263295Y-139918385D01*
X335146739Y-140005739D01*
X335059385Y-140122295D01*
X335008255Y-140258684D01*
X335001500Y-140320866D01*
X335001500Y-142117134D01*
X335008255Y-142179316D01*
X335059385Y-142315705D01*
X335146739Y-142432261D01*
X335263295Y-142519615D01*
X335399684Y-142570745D01*
X335461866Y-142577500D01*
X337258134Y-142577500D01*
X337320316Y-142570745D01*
X337456705Y-142519615D01*
X337573261Y-142432261D01*
X337660615Y-142315705D01*
X337711745Y-142179316D01*
X337718500Y-142117134D01*
X337718500Y-140320866D01*
X337711745Y-140258684D01*
X337660615Y-140122295D01*
X337573261Y-140005739D01*
X337456705Y-139918385D01*
X337431369Y-139908887D01*
X337338203Y-139873960D01*
X337281439Y-139831318D01*
X337256739Y-139764756D01*
X337271947Y-139695408D01*
X337293493Y-139666727D01*
X337313791Y-139646500D01*
X337398096Y-139562489D01*
X337457594Y-139479689D01*
X337525435Y-139385277D01*
X337528453Y-139381077D01*
X337542504Y-139352648D01*
X337625136Y-139185453D01*
X337625137Y-139185451D01*
X337627430Y-139180811D01*
X337683643Y-138995793D01*
X337690865Y-138972023D01*
X337690865Y-138972021D01*
X337692370Y-138967069D01*
X337721529Y-138745590D01*
X337721815Y-138733894D01*
X337723074Y-138682365D01*
X337723074Y-138682361D01*
X337723156Y-138679000D01*
X337704852Y-138456361D01*
X337650431Y-138239702D01*
X337561354Y-138034840D01*
X337469810Y-137893334D01*
X337442822Y-137851617D01*
X337442820Y-137851614D01*
X337440014Y-137847277D01*
X337289670Y-137682051D01*
X337285619Y-137678852D01*
X337285615Y-137678848D01*
X337118414Y-137546800D01*
X337118410Y-137546798D01*
X337114359Y-137543598D01*
X337073053Y-137520796D01*
X337023084Y-137470364D01*
X337008312Y-137400921D01*
X337033428Y-137334516D01*
X337060780Y-137307909D01*
X337121472Y-137264618D01*
X337239860Y-137180173D01*
X337285855Y-137134339D01*
X337368855Y-137051628D01*
X337398096Y-137022489D01*
X337433392Y-136973370D01*
X337525435Y-136845277D01*
X337528453Y-136841077D01*
X337565452Y-136766216D01*
X337625136Y-136645453D01*
X337625137Y-136645451D01*
X337627430Y-136640811D01*
X337668489Y-136505671D01*
X337690865Y-136432023D01*
X337690865Y-136432021D01*
X337692370Y-136427069D01*
X337721529Y-136205590D01*
X337721628Y-136201528D01*
X337723074Y-136142365D01*
X337723074Y-136142361D01*
X337723156Y-136139000D01*
X337704852Y-135916361D01*
X337650431Y-135699702D01*
X337561354Y-135494840D01*
X337492602Y-135388565D01*
X337442822Y-135311617D01*
X337442820Y-135311614D01*
X337440014Y-135307277D01*
X337289670Y-135142051D01*
X337285619Y-135138852D01*
X337285615Y-135138848D01*
X337118414Y-135006800D01*
X337118410Y-135006798D01*
X337114359Y-135003598D01*
X337072569Y-134980529D01*
X337022598Y-134930097D01*
X337007826Y-134860654D01*
X337032942Y-134794248D01*
X337060294Y-134767641D01*
X337235328Y-134642792D01*
X337243200Y-134636139D01*
X337394052Y-134485812D01*
X337400730Y-134477965D01*
X337525003Y-134305020D01*
X337530313Y-134296183D01*
X337624670Y-134105267D01*
X337628469Y-134095672D01*
X337690377Y-133891910D01*
X337692555Y-133881837D01*
X337693986Y-133870962D01*
X337691775Y-133856778D01*
X337678617Y-133853000D01*
X335043225Y-133853000D01*
X335029694Y-133856973D01*
X335028257Y-133866966D01*
X335058565Y-134001446D01*
X335061645Y-134011275D01*
X335141770Y-134208603D01*
X335146413Y-134217794D01*
X335257694Y-134399388D01*
X335263777Y-134407699D01*
X335403213Y-134568667D01*
X335410580Y-134575883D01*
X335574434Y-134711916D01*
X335582881Y-134717831D01*
X335651969Y-134758203D01*
X335700693Y-134809842D01*
X335713764Y-134879625D01*
X335687033Y-134945396D01*
X335646584Y-134978752D01*
X335633607Y-134985507D01*
X335629474Y-134988610D01*
X335629471Y-134988612D01*
X335459100Y-135116530D01*
X335454965Y-135119635D01*
X335402783Y-135174240D01*
X335306153Y-135275358D01*
X335300629Y-135281138D01*
X335297715Y-135285410D01*
X335297714Y-135285411D01*
X335239190Y-135371204D01*
X335174743Y-135465680D01*
X335158669Y-135500309D01*
X335086234Y-135656358D01*
X335080688Y-135668305D01*
X335020989Y-135883570D01*
X335020440Y-135888707D01*
X335019456Y-135897913D01*
X334997251Y-136105695D01*
X334997548Y-136110848D01*
X334997548Y-136110851D01*
X335004345Y-136228725D01*
X335010110Y-136328715D01*
X335011247Y-136333761D01*
X335011248Y-136333767D01*
X335031119Y-136421939D01*
X335059222Y-136546639D01*
X335143266Y-136753616D01*
X335259987Y-136944088D01*
X335406250Y-137112938D01*
X335516134Y-137204165D01*
X335558917Y-137239684D01*
X335578126Y-137255632D01*
X335612785Y-137275885D01*
X335651445Y-137298476D01*
X335700169Y-137350114D01*
X335713240Y-137419897D01*
X335686509Y-137485669D01*
X335646055Y-137519027D01*
X335633607Y-137525507D01*
X335629474Y-137528610D01*
X335629471Y-137528612D01*
X335467475Y-137650242D01*
X335454965Y-137659635D01*
X335300629Y-137821138D01*
X335297715Y-137825410D01*
X335297714Y-137825411D01*
X335242735Y-137906008D01*
X335174743Y-138005680D01*
X335080688Y-138208305D01*
X335020989Y-138423570D01*
X335020440Y-138428707D01*
X335019456Y-138437913D01*
X334997251Y-138645695D01*
X314554500Y-138645695D01*
X314554500Y-138571866D01*
X314547745Y-138509684D01*
X314536328Y-138479229D01*
X314531145Y-138408423D01*
X314536326Y-138390776D01*
X314547745Y-138360316D01*
X314554500Y-138298134D01*
X314554500Y-137301866D01*
X314547745Y-137239684D01*
X314536328Y-137209229D01*
X314531145Y-137138423D01*
X314536326Y-137120776D01*
X314547745Y-137090316D01*
X314554500Y-137028134D01*
X314554500Y-136031866D01*
X314547745Y-135969684D01*
X314536328Y-135939229D01*
X314531145Y-135868423D01*
X314536326Y-135850776D01*
X314547745Y-135820316D01*
X314554500Y-135758134D01*
X314554500Y-134761866D01*
X314547745Y-134699684D01*
X314536328Y-134669229D01*
X314531145Y-134598423D01*
X314536326Y-134580776D01*
X314547745Y-134550316D01*
X314554500Y-134488134D01*
X314554500Y-133491866D01*
X314547745Y-133429684D01*
X314536328Y-133399229D01*
X314531145Y-133328423D01*
X314536326Y-133310776D01*
X314547745Y-133280316D01*
X314554500Y-133218134D01*
X314554500Y-132284500D01*
X314574502Y-132216379D01*
X314628158Y-132169886D01*
X314680500Y-132158500D01*
X315561963Y-132158500D01*
X315630084Y-132178502D01*
X315669106Y-132218196D01*
X315699522Y-132267348D01*
X315824697Y-132392305D01*
X315830927Y-132396145D01*
X315830928Y-132396146D01*
X315968090Y-132480694D01*
X315975262Y-132485115D01*
X316046333Y-132508688D01*
X316136611Y-132538632D01*
X316136613Y-132538632D01*
X316143139Y-132540797D01*
X316149975Y-132541497D01*
X316149978Y-132541498D01*
X316193031Y-132545909D01*
X316247600Y-132551500D01*
X317248400Y-132551500D01*
X317251646Y-132551163D01*
X317251650Y-132551163D01*
X317347308Y-132541238D01*
X317347312Y-132541237D01*
X317354166Y-132540526D01*
X317360702Y-132538345D01*
X317360704Y-132538345D01*
X317492806Y-132494272D01*
X317521946Y-132484550D01*
X317672348Y-132391478D01*
X317692962Y-132370828D01*
X317787643Y-132275982D01*
X317849926Y-132241903D01*
X317876816Y-132239000D01*
X317945500Y-132239000D01*
X318013621Y-132259002D01*
X318060114Y-132312658D01*
X318071500Y-132365000D01*
X318071500Y-132535400D01*
X318071837Y-132538646D01*
X318071837Y-132538650D01*
X318081618Y-132632914D01*
X318082474Y-132641166D01*
X318084655Y-132647702D01*
X318084655Y-132647704D01*
X318098408Y-132688925D01*
X318138450Y-132808946D01*
X318231522Y-132959348D01*
X318356697Y-133084305D01*
X318362927Y-133088145D01*
X318362928Y-133088146D01*
X318500288Y-133172816D01*
X318507262Y-133177115D01*
X318587005Y-133203564D01*
X318668611Y-133230632D01*
X318668613Y-133230632D01*
X318675139Y-133232797D01*
X318681975Y-133233497D01*
X318681978Y-133233498D01*
X318725031Y-133237909D01*
X318779600Y-133243500D01*
X319380400Y-133243500D01*
X319383646Y-133243163D01*
X319383650Y-133243163D01*
X319479308Y-133233238D01*
X319479312Y-133233237D01*
X319486166Y-133232526D01*
X319492702Y-133230345D01*
X319492704Y-133230345D01*
X319624806Y-133186272D01*
X319653946Y-133176550D01*
X319804348Y-133083478D01*
X319929305Y-132958303D01*
X319932102Y-132953765D01*
X319989353Y-132913176D01*
X320060276Y-132909946D01*
X320121687Y-132945572D01*
X320129062Y-132954068D01*
X320137098Y-132964207D01*
X320251829Y-133078739D01*
X320263240Y-133087751D01*
X320401243Y-133172816D01*
X320414424Y-133178963D01*
X320568710Y-133230138D01*
X320582086Y-133233005D01*
X320676438Y-133242672D01*
X320682854Y-133243000D01*
X320707885Y-133243000D01*
X320723124Y-133238525D01*
X320724329Y-133237135D01*
X320726000Y-133229452D01*
X320726000Y-133224884D01*
X321234000Y-133224884D01*
X321238475Y-133240123D01*
X321239865Y-133241328D01*
X321247548Y-133242999D01*
X321277095Y-133242999D01*
X321283614Y-133242662D01*
X321379206Y-133232743D01*
X321392600Y-133229851D01*
X321546784Y-133178412D01*
X321559962Y-133172239D01*
X321697807Y-133086937D01*
X321709208Y-133077901D01*
X321823739Y-132963171D01*
X321832751Y-132951760D01*
X321917816Y-132813757D01*
X321923963Y-132800576D01*
X321975138Y-132646290D01*
X321978005Y-132632914D01*
X321987672Y-132538562D01*
X321988000Y-132532146D01*
X321988000Y-132282115D01*
X321983525Y-132266876D01*
X321982135Y-132265671D01*
X321974452Y-132264000D01*
X321252115Y-132264000D01*
X321236876Y-132268475D01*
X321235671Y-132269865D01*
X321234000Y-132277548D01*
X321234000Y-133224884D01*
X320726000Y-133224884D01*
X320726000Y-131737885D01*
X321234000Y-131737885D01*
X321238475Y-131753124D01*
X321239865Y-131754329D01*
X321247548Y-131756000D01*
X321969884Y-131756000D01*
X321985123Y-131751525D01*
X321986328Y-131750135D01*
X321987999Y-131742452D01*
X321987999Y-131487905D01*
X321987662Y-131481386D01*
X321977743Y-131385794D01*
X321974851Y-131372400D01*
X321923412Y-131218216D01*
X321917239Y-131205038D01*
X321831937Y-131067193D01*
X321822901Y-131055792D01*
X321708171Y-130941261D01*
X321696760Y-130932249D01*
X321558757Y-130847184D01*
X321545576Y-130841037D01*
X321391290Y-130789862D01*
X321377914Y-130786995D01*
X321283562Y-130777328D01*
X321277145Y-130777000D01*
X321252115Y-130777000D01*
X321236876Y-130781475D01*
X321235671Y-130782865D01*
X321234000Y-130790548D01*
X321234000Y-131737885D01*
X320726000Y-131737885D01*
X320726000Y-130795116D01*
X320721525Y-130779877D01*
X320720135Y-130778672D01*
X320712452Y-130777001D01*
X320682905Y-130777001D01*
X320676386Y-130777338D01*
X320580794Y-130787257D01*
X320567400Y-130790149D01*
X320413216Y-130841588D01*
X320400038Y-130847761D01*
X320262193Y-130933063D01*
X320250792Y-130942099D01*
X320136262Y-131056828D01*
X320129206Y-131065762D01*
X320071288Y-131106823D01*
X320000365Y-131110053D01*
X319938954Y-131074426D01*
X319932154Y-131066593D01*
X319928478Y-131060652D01*
X319803303Y-130935695D01*
X319793203Y-130929469D01*
X319658968Y-130846725D01*
X319658966Y-130846724D01*
X319652738Y-130842885D01*
X319549694Y-130808707D01*
X319491389Y-130789368D01*
X319491387Y-130789368D01*
X319484861Y-130787203D01*
X319478025Y-130786503D01*
X319478022Y-130786502D01*
X319434969Y-130782091D01*
X319380400Y-130776500D01*
X318779600Y-130776500D01*
X318776354Y-130776837D01*
X318776350Y-130776837D01*
X318680692Y-130786762D01*
X318680688Y-130786763D01*
X318673834Y-130787474D01*
X318667298Y-130789655D01*
X318667296Y-130789655D01*
X318589758Y-130815524D01*
X318549882Y-130822000D01*
X317877002Y-130822000D01*
X317808881Y-130801998D01*
X317787984Y-130785173D01*
X317780136Y-130777338D01*
X317709891Y-130707216D01*
X317675812Y-130644934D01*
X317680815Y-130574113D01*
X317709736Y-130529025D01*
X317787643Y-130450982D01*
X317849925Y-130416903D01*
X317876816Y-130414000D01*
X318418092Y-130414000D01*
X318484208Y-130432740D01*
X318510812Y-130449139D01*
X318517262Y-130453115D01*
X318575706Y-130472500D01*
X318678611Y-130506632D01*
X318678613Y-130506632D01*
X318685139Y-130508797D01*
X318691975Y-130509497D01*
X318691978Y-130509498D01*
X318733246Y-130513726D01*
X318789600Y-130519500D01*
X319390400Y-130519500D01*
X319393646Y-130519163D01*
X319393650Y-130519163D01*
X319489308Y-130509238D01*
X319489312Y-130509237D01*
X319496166Y-130508526D01*
X319502702Y-130506345D01*
X319502704Y-130506345D01*
X319651555Y-130456684D01*
X319663946Y-130452550D01*
X319814348Y-130359478D01*
X319939305Y-130234303D01*
X319942102Y-130229765D01*
X319999353Y-130189176D01*
X320070276Y-130185946D01*
X320131687Y-130221572D01*
X320139062Y-130230068D01*
X320147098Y-130240207D01*
X320261829Y-130354739D01*
X320273240Y-130363751D01*
X320411243Y-130448816D01*
X320424424Y-130454963D01*
X320578710Y-130506138D01*
X320592086Y-130509005D01*
X320686438Y-130518672D01*
X320692854Y-130519000D01*
X320717885Y-130519000D01*
X320733124Y-130514525D01*
X320734329Y-130513135D01*
X320736000Y-130505452D01*
X320736000Y-130500884D01*
X321244000Y-130500884D01*
X321248475Y-130516123D01*
X321249865Y-130517328D01*
X321257548Y-130518999D01*
X321287095Y-130518999D01*
X321293614Y-130518662D01*
X321389206Y-130508743D01*
X321402600Y-130505851D01*
X321556784Y-130454412D01*
X321569962Y-130448239D01*
X321707807Y-130362937D01*
X321719208Y-130353901D01*
X321833739Y-130239171D01*
X321842751Y-130227760D01*
X321927816Y-130089757D01*
X321933963Y-130076576D01*
X321985138Y-129922290D01*
X321988005Y-129908914D01*
X321997672Y-129814562D01*
X321998000Y-129808146D01*
X321998000Y-129558115D01*
X321993525Y-129542876D01*
X321992135Y-129541671D01*
X321984452Y-129540000D01*
X321262115Y-129540000D01*
X321246876Y-129544475D01*
X321245671Y-129545865D01*
X321244000Y-129553548D01*
X321244000Y-130500884D01*
X320736000Y-130500884D01*
X320736000Y-129013885D01*
X321244000Y-129013885D01*
X321248475Y-129029124D01*
X321249865Y-129030329D01*
X321257548Y-129032000D01*
X321979884Y-129032000D01*
X321995123Y-129027525D01*
X321996328Y-129026135D01*
X321997999Y-129018452D01*
X321997999Y-128763905D01*
X321997662Y-128757386D01*
X321987743Y-128661794D01*
X321984851Y-128648400D01*
X321933412Y-128494216D01*
X321927239Y-128481038D01*
X321841937Y-128343193D01*
X321832901Y-128331792D01*
X321718171Y-128217261D01*
X321706760Y-128208249D01*
X321568757Y-128123184D01*
X321555576Y-128117037D01*
X321401290Y-128065862D01*
X321387914Y-128062995D01*
X321293562Y-128053328D01*
X321287145Y-128053000D01*
X321262115Y-128053000D01*
X321246876Y-128057475D01*
X321245671Y-128058865D01*
X321244000Y-128066548D01*
X321244000Y-129013885D01*
X320736000Y-129013885D01*
X320736000Y-128071116D01*
X320731525Y-128055877D01*
X320706597Y-128034277D01*
X320668213Y-127974551D01*
X320668213Y-127903554D01*
X320700014Y-127849957D01*
X320825393Y-127724578D01*
X320825397Y-127724573D01*
X327662565Y-120887405D01*
X327724877Y-120853379D01*
X327751660Y-120850500D01*
X330906159Y-120850500D01*
X330974280Y-120870502D01*
X331020773Y-120924158D01*
X331031081Y-120992945D01*
X331024379Y-121043853D01*
X331023348Y-121050359D01*
X331011704Y-121113186D01*
X331012141Y-121120766D01*
X331012141Y-121120767D01*
X331015291Y-121175392D01*
X331015500Y-121182646D01*
X331015500Y-134763256D01*
X330995498Y-134831377D01*
X330991436Y-134837317D01*
X330989379Y-134840148D01*
X330984960Y-134845056D01*
X330981659Y-134850774D01*
X330981658Y-134850775D01*
X330893426Y-135003598D01*
X330889473Y-135010444D01*
X330830458Y-135192072D01*
X330829768Y-135198633D01*
X330829768Y-135198635D01*
X330822664Y-135266224D01*
X330810496Y-135382000D01*
X330811186Y-135388565D01*
X330826346Y-135532801D01*
X330830458Y-135571928D01*
X330889473Y-135753556D01*
X330984960Y-135918944D01*
X330989378Y-135923851D01*
X330989379Y-135923852D01*
X331050312Y-135991525D01*
X331112747Y-136060866D01*
X331267248Y-136173118D01*
X331273276Y-136175802D01*
X331273278Y-136175803D01*
X331435681Y-136248109D01*
X331441712Y-136250794D01*
X331535112Y-136270647D01*
X331622056Y-136289128D01*
X331622061Y-136289128D01*
X331628513Y-136290500D01*
X331819487Y-136290500D01*
X331825939Y-136289128D01*
X331825944Y-136289128D01*
X331912888Y-136270647D01*
X332006288Y-136250794D01*
X332012319Y-136248109D01*
X332174722Y-136175803D01*
X332174724Y-136175802D01*
X332180752Y-136173118D01*
X332335253Y-136060866D01*
X332397688Y-135991525D01*
X332458621Y-135923852D01*
X332458622Y-135923851D01*
X332463040Y-135918944D01*
X332558527Y-135753556D01*
X332617542Y-135571928D01*
X332621655Y-135532801D01*
X332636814Y-135388565D01*
X332637504Y-135382000D01*
X332625336Y-135266224D01*
X332618232Y-135198635D01*
X332618232Y-135198633D01*
X332617542Y-135192072D01*
X332558527Y-135010444D01*
X332554575Y-135003598D01*
X332466342Y-134850775D01*
X332466341Y-134850774D01*
X332463040Y-134845056D01*
X332458621Y-134840148D01*
X332456564Y-134837317D01*
X332432705Y-134770449D01*
X332432500Y-134763256D01*
X332432500Y-131025695D01*
X334997251Y-131025695D01*
X334997548Y-131030848D01*
X334997548Y-131030851D01*
X335008169Y-131215059D01*
X335010110Y-131248715D01*
X335011247Y-131253761D01*
X335011248Y-131253767D01*
X335014397Y-131267739D01*
X335059222Y-131466639D01*
X335143266Y-131673616D01*
X335162045Y-131704261D01*
X335255623Y-131856966D01*
X335259987Y-131864088D01*
X335406250Y-132032938D01*
X335550008Y-132152288D01*
X335558917Y-132159684D01*
X335578126Y-132175632D01*
X335594582Y-132185248D01*
X335651955Y-132218774D01*
X335700679Y-132270412D01*
X335713750Y-132340195D01*
X335687019Y-132405967D01*
X335646562Y-132439327D01*
X335638457Y-132443546D01*
X335629738Y-132449036D01*
X335459433Y-132576905D01*
X335451726Y-132583748D01*
X335304590Y-132737717D01*
X335298104Y-132745727D01*
X335178098Y-132921649D01*
X335173000Y-132930623D01*
X335083338Y-133123783D01*
X335079775Y-133133470D01*
X335024389Y-133333183D01*
X335025912Y-133341607D01*
X335038292Y-133345000D01*
X337678344Y-133345000D01*
X337691875Y-133341027D01*
X337693180Y-133331947D01*
X337651214Y-133164875D01*
X337647894Y-133155124D01*
X337562972Y-132959814D01*
X337558105Y-132950739D01*
X337442426Y-132771926D01*
X337436136Y-132763757D01*
X337292806Y-132606240D01*
X337285273Y-132599215D01*
X337118139Y-132467222D01*
X337109556Y-132461520D01*
X337072602Y-132441120D01*
X337022631Y-132390687D01*
X337007859Y-132321245D01*
X337032975Y-132254839D01*
X337060327Y-132228232D01*
X337114466Y-132189615D01*
X337239860Y-132100173D01*
X337258347Y-132081751D01*
X337394435Y-131946137D01*
X337398096Y-131942489D01*
X337414250Y-131920009D01*
X337525435Y-131765277D01*
X337528453Y-131761077D01*
X337542292Y-131733077D01*
X337625136Y-131565453D01*
X337625137Y-131565451D01*
X337627430Y-131560811D01*
X337679590Y-131389134D01*
X337690865Y-131352023D01*
X337690865Y-131352021D01*
X337692370Y-131347069D01*
X337721529Y-131125590D01*
X337723156Y-131059000D01*
X337704852Y-130836361D01*
X337650431Y-130619702D01*
X337561354Y-130414840D01*
X337481850Y-130291946D01*
X337442822Y-130231617D01*
X337442820Y-130231614D01*
X337440014Y-130227277D01*
X337289670Y-130062051D01*
X337285619Y-130058852D01*
X337285615Y-130058848D01*
X337118414Y-129926800D01*
X337118410Y-129926798D01*
X337114359Y-129923598D01*
X337101047Y-129916249D01*
X337005145Y-129863309D01*
X336918789Y-129815638D01*
X336913920Y-129813914D01*
X336913916Y-129813912D01*
X336713087Y-129742795D01*
X336713083Y-129742794D01*
X336708212Y-129741069D01*
X336703119Y-129740162D01*
X336703116Y-129740161D01*
X336493373Y-129702800D01*
X336493367Y-129702799D01*
X336488284Y-129701894D01*
X336414452Y-129700992D01*
X336270081Y-129699228D01*
X336270079Y-129699228D01*
X336264911Y-129699165D01*
X336044091Y-129732955D01*
X335831756Y-129802357D01*
X335803641Y-129816993D01*
X335711532Y-129864942D01*
X335633607Y-129905507D01*
X335629474Y-129908610D01*
X335629471Y-129908612D01*
X335502646Y-130003835D01*
X335454965Y-130039635D01*
X335451393Y-130043373D01*
X335305269Y-130196283D01*
X335300629Y-130201138D01*
X335297715Y-130205410D01*
X335297714Y-130205411D01*
X335280894Y-130230068D01*
X335174743Y-130385680D01*
X335145223Y-130449275D01*
X335087213Y-130574249D01*
X335080688Y-130588305D01*
X335020989Y-130803570D01*
X335020440Y-130808707D01*
X335019456Y-130817913D01*
X334997251Y-131025695D01*
X332432500Y-131025695D01*
X332432500Y-121503660D01*
X332452502Y-121435539D01*
X332469405Y-121414565D01*
X332996565Y-120887405D01*
X333058877Y-120853379D01*
X333085660Y-120850500D01*
X345590595Y-120850500D01*
X345658716Y-120870502D01*
X345664656Y-120874564D01*
X345732916Y-120924158D01*
X345745248Y-120933118D01*
X345751276Y-120935802D01*
X345751278Y-120935803D01*
X345913681Y-121008109D01*
X345919712Y-121010794D01*
X346013112Y-121030647D01*
X346100056Y-121049128D01*
X346100061Y-121049128D01*
X346106513Y-121050500D01*
X346297487Y-121050500D01*
X346303939Y-121049128D01*
X346303944Y-121049128D01*
X346390888Y-121030647D01*
X346484288Y-121010794D01*
X346490319Y-121008109D01*
X346652722Y-120935803D01*
X346652724Y-120935802D01*
X346658752Y-120933118D01*
X346671085Y-120924158D01*
X346772465Y-120850500D01*
X346813253Y-120820866D01*
X346941040Y-120678944D01*
X347036527Y-120513556D01*
X347095542Y-120331928D01*
X347115504Y-120142000D01*
X347099000Y-119984976D01*
X347096232Y-119958635D01*
X347096232Y-119958633D01*
X347095542Y-119952072D01*
X347036527Y-119770444D01*
X346941040Y-119605056D01*
X346932530Y-119595604D01*
X346817675Y-119468045D01*
X346817674Y-119468044D01*
X346813253Y-119463134D01*
X346658752Y-119350882D01*
X346652724Y-119348198D01*
X346652722Y-119348197D01*
X346490319Y-119275891D01*
X346490318Y-119275891D01*
X346484288Y-119273206D01*
X346390887Y-119253353D01*
X346303944Y-119234872D01*
X346303939Y-119234872D01*
X346297487Y-119233500D01*
X346106513Y-119233500D01*
X346100061Y-119234872D01*
X346100056Y-119234872D01*
X346013113Y-119253353D01*
X345919712Y-119273206D01*
X345913682Y-119275891D01*
X345913681Y-119275891D01*
X345751278Y-119348197D01*
X345751276Y-119348198D01*
X345745248Y-119350882D01*
X345739907Y-119354762D01*
X345739906Y-119354763D01*
X345664656Y-119409436D01*
X345597789Y-119433294D01*
X345590595Y-119433500D01*
X333085660Y-119433500D01*
X333017539Y-119413498D01*
X332996565Y-119396595D01*
X328689450Y-115089480D01*
X328683596Y-115083215D01*
X328681812Y-115081170D01*
X328645561Y-115039615D01*
X328593280Y-115002871D01*
X328587986Y-114998939D01*
X328543693Y-114964209D01*
X328537718Y-114959524D01*
X328530802Y-114956401D01*
X328528516Y-114955017D01*
X328513835Y-114946643D01*
X328511475Y-114945378D01*
X328505261Y-114941010D01*
X328498182Y-114938250D01*
X328498180Y-114938249D01*
X328445725Y-114917798D01*
X328439656Y-114915247D01*
X328381427Y-114888955D01*
X328373960Y-114887571D01*
X328371405Y-114886770D01*
X328355152Y-114882141D01*
X328352572Y-114881478D01*
X328345491Y-114878718D01*
X328337960Y-114877727D01*
X328337958Y-114877726D01*
X328308339Y-114873827D01*
X328282139Y-114870378D01*
X328275641Y-114869348D01*
X328212814Y-114857704D01*
X328205234Y-114858141D01*
X328205233Y-114858141D01*
X328150608Y-114861291D01*
X328143354Y-114861500D01*
X289842911Y-114861500D01*
X289834342Y-114861208D01*
X289784223Y-114857791D01*
X289784219Y-114857791D01*
X289776647Y-114857275D01*
X289713685Y-114868264D01*
X289707195Y-114869221D01*
X289643758Y-114876898D01*
X289636649Y-114879584D01*
X289634078Y-114880216D01*
X289617772Y-114884676D01*
X289615204Y-114885451D01*
X289607716Y-114886758D01*
X289572722Y-114902119D01*
X289549212Y-114912439D01*
X289543105Y-114914931D01*
X289535518Y-114917798D01*
X289483344Y-114937513D01*
X289477083Y-114941816D01*
X289474717Y-114943053D01*
X289459937Y-114951280D01*
X289457652Y-114952631D01*
X289450695Y-114955685D01*
X289444675Y-114960305D01*
X289444669Y-114960308D01*
X289413542Y-114984194D01*
X289399998Y-114994587D01*
X289394668Y-114998459D01*
X289348280Y-115030339D01*
X289348275Y-115030344D01*
X289342019Y-115034643D01*
X289336968Y-115040313D01*
X289336966Y-115040314D01*
X289300565Y-115081170D01*
X289295584Y-115086446D01*
X278879435Y-125502595D01*
X278817123Y-125536621D01*
X278790340Y-125539500D01*
X274786286Y-125539500D01*
X274718165Y-125519498D01*
X274680494Y-125481941D01*
X274640818Y-125420612D01*
X274638014Y-125416277D01*
X274487670Y-125251051D01*
X274483619Y-125247852D01*
X274483615Y-125247848D01*
X274316414Y-125115800D01*
X274316410Y-125115798D01*
X274312359Y-125112598D01*
X274271053Y-125089796D01*
X274221084Y-125039364D01*
X274206312Y-124969921D01*
X274231428Y-124903516D01*
X274258780Y-124876909D01*
X274302603Y-124845650D01*
X274437860Y-124749173D01*
X274596096Y-124591489D01*
X274726453Y-124410077D01*
X274730611Y-124401665D01*
X274823136Y-124214453D01*
X274823137Y-124214451D01*
X274825430Y-124209811D01*
X274890370Y-123996069D01*
X274919529Y-123774590D01*
X274921156Y-123708000D01*
X274902852Y-123485361D01*
X274848431Y-123268702D01*
X274759354Y-123063840D01*
X274638014Y-122876277D01*
X274487670Y-122711051D01*
X274483619Y-122707852D01*
X274483615Y-122707848D01*
X274316414Y-122575800D01*
X274316410Y-122575798D01*
X274312359Y-122572598D01*
X274271053Y-122549796D01*
X274221084Y-122499364D01*
X274206312Y-122429921D01*
X274231428Y-122363516D01*
X274258780Y-122336909D01*
X274302603Y-122305650D01*
X274437860Y-122209173D01*
X274596096Y-122051489D01*
X274655594Y-121968689D01*
X274723435Y-121874277D01*
X274726453Y-121870077D01*
X274825430Y-121669811D01*
X274890370Y-121456069D01*
X274919529Y-121234590D01*
X274920887Y-121179016D01*
X274921074Y-121171365D01*
X274921074Y-121171361D01*
X274921156Y-121168000D01*
X274902852Y-120945361D01*
X274848431Y-120728702D01*
X274759354Y-120523840D01*
X274638014Y-120336277D01*
X274634540Y-120332459D01*
X274634533Y-120332450D01*
X274490435Y-120174088D01*
X274459383Y-120110242D01*
X274467779Y-120039744D01*
X274512956Y-119984976D01*
X274539400Y-119971307D01*
X274646052Y-119931325D01*
X274661649Y-119922786D01*
X274763724Y-119846285D01*
X274776285Y-119833724D01*
X274852786Y-119731649D01*
X274861324Y-119716054D01*
X274906478Y-119595606D01*
X274910105Y-119580351D01*
X274915631Y-119529486D01*
X274916000Y-119522672D01*
X274916000Y-118900115D01*
X274911525Y-118884876D01*
X274910135Y-118883671D01*
X274902452Y-118882000D01*
X272218116Y-118882000D01*
X272202877Y-118886475D01*
X272201672Y-118887865D01*
X272200001Y-118895548D01*
X272200001Y-119522669D01*
X272200371Y-119529490D01*
X272205895Y-119580352D01*
X272209521Y-119595604D01*
X272254676Y-119716054D01*
X272263214Y-119731649D01*
X272339715Y-119833724D01*
X272352276Y-119846285D01*
X272454351Y-119922786D01*
X272469946Y-119931324D01*
X272578827Y-119972142D01*
X272635591Y-120014784D01*
X272660291Y-120081345D01*
X272645083Y-120150694D01*
X272625691Y-120177175D01*
X272502200Y-120306401D01*
X272498629Y-120310138D01*
X272372743Y-120494680D01*
X272357003Y-120528590D01*
X272284933Y-120683852D01*
X272278688Y-120697305D01*
X272218989Y-120912570D01*
X272195251Y-121134695D01*
X272195548Y-121139848D01*
X272195548Y-121139851D01*
X272201011Y-121234590D01*
X272208110Y-121357715D01*
X272209247Y-121362761D01*
X272209248Y-121362767D01*
X272229119Y-121450939D01*
X272257222Y-121575639D01*
X272341266Y-121782616D01*
X272457987Y-121973088D01*
X272604250Y-122141938D01*
X272776126Y-122284632D01*
X272846595Y-122325811D01*
X272849445Y-122327476D01*
X272898169Y-122379114D01*
X272911240Y-122448897D01*
X272884509Y-122514669D01*
X272844055Y-122548027D01*
X272831607Y-122554507D01*
X272827474Y-122557610D01*
X272827471Y-122557612D01*
X272803247Y-122575800D01*
X272652965Y-122688635D01*
X272498629Y-122850138D01*
X272495715Y-122854410D01*
X272495714Y-122854411D01*
X272383095Y-123019504D01*
X272328184Y-123064507D01*
X272279007Y-123074500D01*
X265244768Y-123074500D01*
X265233585Y-123073973D01*
X265226092Y-123072298D01*
X265218166Y-123072547D01*
X265218165Y-123072547D01*
X265158002Y-123074438D01*
X265154044Y-123074500D01*
X265126144Y-123074500D01*
X265122154Y-123075004D01*
X265110320Y-123075936D01*
X265066111Y-123077326D01*
X265058495Y-123079539D01*
X265058493Y-123079539D01*
X265046652Y-123082979D01*
X265027293Y-123086988D01*
X265025983Y-123087154D01*
X265007203Y-123089526D01*
X264999837Y-123092442D01*
X264999831Y-123092444D01*
X264966098Y-123105800D01*
X264954868Y-123109645D01*
X264920017Y-123119770D01*
X264912407Y-123121981D01*
X264905584Y-123126016D01*
X264894966Y-123132295D01*
X264877213Y-123140992D01*
X264869568Y-123144019D01*
X264858383Y-123148448D01*
X264851968Y-123153109D01*
X264822612Y-123174437D01*
X264812695Y-123180951D01*
X264774638Y-123203458D01*
X264760317Y-123217779D01*
X264745284Y-123230619D01*
X264728893Y-123242528D01*
X264723842Y-123248634D01*
X264700702Y-123276605D01*
X264692712Y-123285384D01*
X260973747Y-127004348D01*
X260965461Y-127011888D01*
X260958982Y-127016000D01*
X260953557Y-127021777D01*
X260912357Y-127065651D01*
X260909602Y-127068493D01*
X260889865Y-127088230D01*
X260887385Y-127091427D01*
X260879682Y-127100447D01*
X260849414Y-127132679D01*
X260845595Y-127139625D01*
X260845593Y-127139628D01*
X260839652Y-127150434D01*
X260828801Y-127166953D01*
X260816386Y-127182959D01*
X260813241Y-127190228D01*
X260813238Y-127190232D01*
X260798826Y-127223537D01*
X260793609Y-127234187D01*
X260772305Y-127272940D01*
X260770334Y-127280615D01*
X260770334Y-127280616D01*
X260767267Y-127292562D01*
X260760863Y-127311266D01*
X260752819Y-127329855D01*
X260751580Y-127337678D01*
X260751577Y-127337688D01*
X260745901Y-127373524D01*
X260743495Y-127385144D01*
X260732500Y-127427970D01*
X260732500Y-127448224D01*
X260730949Y-127467934D01*
X260727780Y-127487943D01*
X63338500Y-127487943D01*
X63338500Y-118355885D01*
X272200000Y-118355885D01*
X272204475Y-118371124D01*
X272205865Y-118372329D01*
X272213548Y-118374000D01*
X273285885Y-118374000D01*
X273301124Y-118369525D01*
X273302329Y-118368135D01*
X273304000Y-118360452D01*
X273304000Y-118355885D01*
X273812000Y-118355885D01*
X273816475Y-118371124D01*
X273817865Y-118372329D01*
X273825548Y-118374000D01*
X274897884Y-118374000D01*
X274913123Y-118369525D01*
X274914328Y-118368135D01*
X274915999Y-118360452D01*
X274915999Y-117733331D01*
X274915629Y-117726510D01*
X274910105Y-117675648D01*
X274906479Y-117660396D01*
X274861324Y-117539946D01*
X274852786Y-117524351D01*
X274776285Y-117422276D01*
X274763724Y-117409715D01*
X274661649Y-117333214D01*
X274646054Y-117324676D01*
X274525606Y-117279522D01*
X274510351Y-117275895D01*
X274459486Y-117270369D01*
X274452672Y-117270000D01*
X273830115Y-117270000D01*
X273814876Y-117274475D01*
X273813671Y-117275865D01*
X273812000Y-117283548D01*
X273812000Y-118355885D01*
X273304000Y-118355885D01*
X273304000Y-117288116D01*
X273299525Y-117272877D01*
X273298135Y-117271672D01*
X273290452Y-117270001D01*
X272663331Y-117270001D01*
X272656510Y-117270371D01*
X272605648Y-117275895D01*
X272590396Y-117279521D01*
X272469946Y-117324676D01*
X272454351Y-117333214D01*
X272352276Y-117409715D01*
X272339715Y-117422276D01*
X272263214Y-117524351D01*
X272254676Y-117539946D01*
X272209522Y-117660394D01*
X272205895Y-117675649D01*
X272200369Y-117726514D01*
X272200000Y-117733328D01*
X272200000Y-118355885D01*
X63338500Y-118355885D01*
X63338500Y-114574500D01*
X63358502Y-114506379D01*
X63412158Y-114459886D01*
X63464500Y-114448500D01*
X352225500Y-114448500D01*
X352293621Y-114468502D01*
G37*
%TD.AperFunction*%
%TA.AperFunction,Conductor*%
G36*
X327890461Y-116298502D02*
G01*
X327911435Y-116315405D01*
X330814434Y-119218405D01*
X330848460Y-119280717D01*
X330843395Y-119351533D01*
X330800848Y-119408368D01*
X330734328Y-119433179D01*
X330725339Y-119433500D01*
X327434927Y-119433500D01*
X327426358Y-119433208D01*
X327376225Y-119429790D01*
X327376221Y-119429790D01*
X327368648Y-119429274D01*
X327305681Y-119440264D01*
X327299169Y-119441224D01*
X327235758Y-119448898D01*
X327228657Y-119451581D01*
X327226048Y-119452222D01*
X327209715Y-119456691D01*
X327207195Y-119457452D01*
X327199717Y-119458757D01*
X327192765Y-119461809D01*
X327192764Y-119461809D01*
X327141204Y-119484441D01*
X327135099Y-119486932D01*
X327082456Y-119506825D01*
X327082452Y-119506827D01*
X327075344Y-119509513D01*
X327069083Y-119513816D01*
X327066717Y-119515053D01*
X327051937Y-119523280D01*
X327049652Y-119524631D01*
X327042695Y-119527685D01*
X327036675Y-119532305D01*
X327036669Y-119532308D01*
X327005542Y-119556194D01*
X326991998Y-119566587D01*
X326986668Y-119570459D01*
X326940280Y-119602339D01*
X326940275Y-119602344D01*
X326934019Y-119606643D01*
X326928968Y-119612313D01*
X326928966Y-119612314D01*
X326892565Y-119653170D01*
X326887584Y-119658446D01*
X318609480Y-127936550D01*
X318603215Y-127942404D01*
X318559615Y-127980439D01*
X318555248Y-127986653D01*
X318522872Y-128032719D01*
X318518939Y-128038014D01*
X318479524Y-128088282D01*
X318476401Y-128095198D01*
X318475017Y-128097484D01*
X318466643Y-128112165D01*
X318465378Y-128114525D01*
X318461010Y-128120739D01*
X318458250Y-128127817D01*
X318454660Y-128134513D01*
X318452703Y-128133464D01*
X318416089Y-128180908D01*
X318408386Y-128186078D01*
X318365652Y-128212522D01*
X318240695Y-128337697D01*
X318236855Y-128343927D01*
X318236854Y-128343928D01*
X318192841Y-128415331D01*
X318147885Y-128488262D01*
X318121436Y-128568005D01*
X318098258Y-128637885D01*
X318092203Y-128656139D01*
X318091503Y-128662975D01*
X318091502Y-128662978D01*
X318088173Y-128695474D01*
X318081500Y-128760600D01*
X318081500Y-128871000D01*
X318061498Y-128939121D01*
X318007842Y-128985614D01*
X317955500Y-128997000D01*
X317877002Y-128997000D01*
X317808881Y-128976998D01*
X317787984Y-128960173D01*
X317758310Y-128930550D01*
X317671303Y-128843695D01*
X317665072Y-128839854D01*
X317526968Y-128754725D01*
X317526966Y-128754724D01*
X317520738Y-128750885D01*
X317360254Y-128697655D01*
X317359389Y-128697368D01*
X317359387Y-128697368D01*
X317352861Y-128695203D01*
X317346025Y-128694503D01*
X317346022Y-128694502D01*
X317302969Y-128690091D01*
X317248400Y-128684500D01*
X316247600Y-128684500D01*
X316244354Y-128684837D01*
X316244350Y-128684837D01*
X316148692Y-128694762D01*
X316148688Y-128694763D01*
X316141834Y-128695474D01*
X316135298Y-128697655D01*
X316135296Y-128697655D01*
X316003194Y-128741728D01*
X315974054Y-128751450D01*
X315875166Y-128812644D01*
X315808863Y-128831500D01*
X315242927Y-128831500D01*
X315234358Y-128831208D01*
X315184225Y-128827790D01*
X315184221Y-128827790D01*
X315176648Y-128827274D01*
X315113681Y-128838264D01*
X315107169Y-128839224D01*
X315043758Y-128846898D01*
X315036657Y-128849581D01*
X315034048Y-128850222D01*
X315017728Y-128854687D01*
X315015195Y-128855452D01*
X315007717Y-128856757D01*
X314949190Y-128882448D01*
X314943108Y-128884930D01*
X314922753Y-128892622D01*
X314890449Y-128904828D01*
X314890447Y-128904829D01*
X314883344Y-128907513D01*
X314877085Y-128911814D01*
X314874720Y-128913051D01*
X314859948Y-128921273D01*
X314857656Y-128922628D01*
X314850695Y-128925684D01*
X314844668Y-128930309D01*
X314844664Y-128930311D01*
X314799987Y-128964593D01*
X314794662Y-128968462D01*
X314769706Y-128985614D01*
X314753140Y-128997000D01*
X314742019Y-129004643D01*
X314736967Y-129010313D01*
X314736966Y-129010314D01*
X314700572Y-129051162D01*
X314695591Y-129056438D01*
X314624934Y-129127095D01*
X314562622Y-129161121D01*
X314535839Y-129164000D01*
X312056116Y-129164000D01*
X312040877Y-129168475D01*
X312039672Y-129169865D01*
X312038001Y-129177548D01*
X312038001Y-129404669D01*
X312038371Y-129411490D01*
X312043895Y-129462352D01*
X312047520Y-129477600D01*
X312055939Y-129500057D01*
X312061122Y-129570864D01*
X312055942Y-129588510D01*
X312044255Y-129619684D01*
X312037500Y-129681866D01*
X312037500Y-130615500D01*
X312017498Y-130683621D01*
X311963842Y-130730114D01*
X311911500Y-130741500D01*
X311627660Y-130741500D01*
X311559539Y-130721498D01*
X311538565Y-130704595D01*
X309471855Y-128637885D01*
X312038000Y-128637885D01*
X312042475Y-128653124D01*
X312043865Y-128654329D01*
X312051548Y-128656000D01*
X313023885Y-128656000D01*
X313039124Y-128651525D01*
X313040329Y-128650135D01*
X313042000Y-128642452D01*
X313042000Y-128637885D01*
X313550000Y-128637885D01*
X313554475Y-128653124D01*
X313555865Y-128654329D01*
X313563548Y-128656000D01*
X314535884Y-128656000D01*
X314551123Y-128651525D01*
X314552328Y-128650135D01*
X314553999Y-128642452D01*
X314553999Y-128415331D01*
X314553629Y-128408510D01*
X314548105Y-128357648D01*
X314544479Y-128342396D01*
X314499324Y-128221946D01*
X314490786Y-128206351D01*
X314414285Y-128104276D01*
X314401724Y-128091715D01*
X314299649Y-128015214D01*
X314284054Y-128006676D01*
X314163606Y-127961522D01*
X314148351Y-127957895D01*
X314097486Y-127952369D01*
X314090672Y-127952000D01*
X313568115Y-127952000D01*
X313552876Y-127956475D01*
X313551671Y-127957865D01*
X313550000Y-127965548D01*
X313550000Y-128637885D01*
X313042000Y-128637885D01*
X313042000Y-127970116D01*
X313037525Y-127954877D01*
X313036135Y-127953672D01*
X313028452Y-127952001D01*
X312501331Y-127952001D01*
X312494510Y-127952371D01*
X312443648Y-127957895D01*
X312428396Y-127961521D01*
X312307946Y-128006676D01*
X312292351Y-128015214D01*
X312190276Y-128091715D01*
X312177715Y-128104276D01*
X312101214Y-128206351D01*
X312092676Y-128221946D01*
X312047522Y-128342394D01*
X312043895Y-128357649D01*
X312038369Y-128408514D01*
X312038000Y-128415328D01*
X312038000Y-128637885D01*
X309471855Y-128637885D01*
X308239065Y-127405095D01*
X308205039Y-127342783D01*
X308210104Y-127271968D01*
X308252651Y-127215132D01*
X308319171Y-127190321D01*
X308328160Y-127190000D01*
X318546000Y-127190000D01*
X318546000Y-116410000D01*
X318549489Y-116410000D01*
X318549489Y-116369003D01*
X318587872Y-116309276D01*
X318652452Y-116279783D01*
X318670385Y-116278500D01*
X327822340Y-116278500D01*
X327890461Y-116298502D01*
G37*
%TD.AperFunction*%
%TD*%
M02*
